SplineFontDB: 3.0
FontName: DidactGothic
FullName: Didact Gothic
FamilyName: Didact Gothic
Weight: Medium
Copyright: Copyright (c) 2010, 2011 by Daniel Johnson. Released under the terms of the SIL Open Font License.
Version: 20110825
ItalicAngle: 0
UnderlinePosition: -99
UnderlineWidth: 50
Ascent: 819
Descent: 205
LayerCount: 2
Layer: 0 0 "Back"  1
Layer: 1 1 "Fore"  0
NeedsXUIDChange: 1
XUID: [1021 338 342 11129]
FSType: 0
OS2Version: 2
OS2_WeightWidthSlopeOnly: 0
OS2_UseTypoMetrics: 1
CreationTime: 1287597777
ModificationTime: 1314338040
PfmFamily: 17
TTFWeight: 500
TTFWidth: 5
LineGap: 92
VLineGap: 0
Panose: 2 0 6 3 0 0 0 0 0 0
OS2TypoAscent: 0
OS2TypoAOffset: 1
OS2TypoDescent: 0
OS2TypoDOffset: 1
OS2TypoLinegap: 92
OS2WinAscent: 0
OS2WinAOffset: 1
OS2WinDescent: 0
OS2WinDOffset: 1
HheadAscent: 0
HheadAOffset: 1
HheadDescent: 0
HheadDOffset: 1
OS2SubXSize: 666
OS2SubYSize: 716
OS2SubXOff: 0
OS2SubYOff: 143
OS2SupXSize: 666
OS2SupYSize: 716
OS2SupXOff: 0
OS2SupYOff: 490
OS2StrikeYSize: 50
OS2StrikeYPos: 264
OS2Vendor: 'PfEd'
OS2CodePages: 0000009f.00000000
OS2UnicodeRanges: e00002ff.0000000a.00000000.00000000
Lookup: 260 0 0 "'blwm' Below Base Mark lookup 2"  {"'blwm' Below Base Mark lookup 2-1"  } ['blwm' ('DFLT' <'dflt' > 'cyrl' <'dflt' > 'grek' <'dflt' > 'latn' <'dflt' > ) ]
Lookup: 260 0 0 "'abvm' Above Base Mark lookup 1"  {"'abvm' Above Base Mark lookup 1-1"  } ['abvm' ('DFLT' <'dflt' > 'cyrl' <'dflt' > 'grek' <'dflt' > 'latn' <'dflt' > ) ]
Lookup: 258 0 0 "'kern' Horizontal Kerning in Latin lookup 0"  {"'kern' Horizontal Kerning in Latin lookup 0 per glyph data 0"  "'kern' Horizontal Kerning in Latin lookup 0 kerning class 1"  } ['kern' ('latn' <'dflt' > ) ]
MarkAttachClasses: 1
DEI: 91125
KernClass2: 173+ 140 "'kern' Horizontal Kerning in Latin lookup 0 kerning class 1" 
 5 space
 2 Xi

StartChar: .notdef
Encoding: 65536 -1 0
Width: 512
Flags: W
HStem: 0 51<102 410> 495 51<102 410>
VStem: 51 51<51 495> 410 51<51 495>
LayerCount: 2
Fore
SplineSet
51 0 m 1,0,-1
 51 546 l 1,1,-1
 461 546 l 1,2,-1
 461 0 l 1,3,-1
 51 0 l 1,0,-1
102 51 m 1,4,-1
 410 51 l 1,5,-1
 410 495 l 1,6,-1
 102 495 l 1,7,-1
 102 51 l 1,4,-1
EndSplineSet
Validated: 19457
EndChar

StartChar: exclam
Encoding: 33 33 2
Width: 238
Flags: W
HStem: -8 111<81.5017 158.498> 678 20G<84 154>
VStem: 65 110<9.01721 86.4983> 84 70<170 698>
LayerCount: 2
Fore
SplineSet
65 48 m 128,-1,1
 65 71 65 71 81 87 c 128,-1,2
 97 103 97 103 120 103 c 128,-1,3
 143 103 143 103 159 87 c 128,-1,4
 175 71 175 71 175 48 c 128,-1,5
 175 25 175 25 159 8.5 c 128,-1,6
 143 -8 143 -8 120 -8 c 128,-1,7
 97 -8 97 -8 81 8.5 c 128,-1,0
 65 25 65 25 65 48 c 128,-1,1
84 170 m 1,8,-1
 84 698 l 1,9,-1
 154 698 l 1,10,-1
 154 170 l 1,11,-1
 84 170 l 1,8,-1
EndSplineSet
Validated: 19457
EndChar

StartChar: quotedbl
Encoding: 34 34 3
Width: 337
Flags: W
HStem: 434 264<60 130 208 278>
VStem: 60 70<434 698> 208 70<434 698>
LayerCount: 2
Fore
SplineSet
208 434 m 1,0,-1
 208 698 l 1,1,-1
 278 698 l 1,2,-1
 278 434 l 1,3,-1
 208 434 l 1,0,-1
60 434 m 1,4,-1
 60 698 l 1,5,-1
 130 698 l 1,6,-1
 130 434 l 1,7,-1
 60 434 l 1,4,-1
EndSplineSet
Validated: 19457
EndChar

StartChar: numbersign
Encoding: 35 35 4
Width: 552
Flags: W
HStem: 0 21G<123 192.412 318 389.294> 170 70<40 134 207 330 403 493> 420 70<60 150 223 345 420 513>
LayerCount: 2
Fore
SplineSet
155 490 m 1,0,-1
 165 658 l 1,1,-1
 233 658 l 1,2,-1
 223 490 l 1,3,-1
 350 490 l 1,4,-1
 360 658 l 1,5,-1
 430 658 l 1,6,-1
 420 490 l 1,7,-1
 513 490 l 1,8,-1
 513 420 l 1,9,-1
 415 420 l 1,10,-1
 403 240 l 1,11,-1
 493 240 l 1,12,-1
 493 170 l 1,13,-1
 399 170 l 1,14,-1
 388 0 l 1,15,-1
 318 0 l 1,16,-1
 330 170 l 1,17,-1
 203 170 l 1,18,-1
 191 0 l 1,19,-1
 123 0 l 1,20,-1
 134 170 l 1,21,-1
 40 170 l 1,22,-1
 40 240 l 1,23,-1
 138 240 l 1,24,-1
 150 420 l 1,25,-1
 60 420 l 1,26,-1
 60 490 l 1,27,-1
 155 490 l 1,0,-1
218 420 m 1,28,-1
 207 240 l 1,29,-1
 334 240 l 1,30,-1
 345 420 l 1,31,-1
 218 420 l 1,28,-1
EndSplineSet
Validated: 19457
EndChar

StartChar: dollar
Encoding: 36 36 5
Width: 485
Flags: W
HStem: 0 21G<219 261> 85 65<146.756 219 261 333.017> 531 65<154.232 219 261 328.762> 678 20G<219 261>
VStem: 50 71<405.73 499.826> 219 42<0 85 151 305 383 531 597 698> 379 70<188.506 271.629>
LayerCount: 2
Fore
SplineSet
219 698 m 1,0,-1
 261 698 l 1,1,-1
 261 597 l 1,2,3
 387 592 387 592 433 484 c 1,4,-1
 371 453 l 1,5,6
 341 528 341 528 261 532 c 1,7,-1
 261 376 l 1,8,9
 298 370 298 370 326 362 c 128,-1,10
 354 354 354 354 385 338.5 c 128,-1,11
 416 323 416 323 432.5 297 c 128,-1,12
 449 271 449 271 449 236 c 0,13,14
 449 173 449 173 395.5 132.5 c 128,-1,15
 342 92 342 92 261 86 c 1,16,-1
 261 0 l 1,17,-1
 219 0 l 1,18,-1
 219 85 l 1,19,20
 155 87 155 87 106.5 116.5 c 128,-1,21
 58 146 58 146 36 198 c 1,22,-1
 98 229 l 1,23,24
 111 196 111 196 143 174.5 c 128,-1,25
 175 153 175 153 219 150 c 1,26,-1
 219 313 l 1,27,28
 193 318 193 318 173.5 323 c 128,-1,29
 154 328 154 328 129 338.5 c 128,-1,30
 104 349 104 349 88 362.5 c 128,-1,31
 72 376 72 376 61 397.5 c 128,-1,32
 50 419 50 419 50 446 c 0,33,34
 50 509 50 509 96.5 549 c 128,-1,35
 143 589 143 589 219 596 c 1,36,-1
 219 698 l 1,0,-1
219 383 m 1,37,-1
 219 531 l 1,38,39
 171 525 171 525 146 502.5 c 128,-1,40
 121 480 121 480 121 446 c 0,41,42
 121 417 121 417 147 403.5 c 128,-1,43
 173 390 173 390 219 383 c 1,37,-1
261 305 m 1,44,-1
 261 151 l 1,45,46
 314 156 314 156 346.5 180 c 128,-1,47
 379 204 379 204 379 236 c 0,48,49
 379 254 379 254 369.5 266.5 c 128,-1,50
 360 279 360 279 337.5 286.5 c 128,-1,51
 315 294 315 294 303 297 c 128,-1,52
 291 300 291 300 261 305 c 1,44,-1
EndSplineSet
Validated: 19457
EndChar

StartChar: percent
Encoding: 37 37 6
Width: 543
Flags: W
HStem: 6 44<375.005 448.911> 146 44<375.005 448.911> 342 44<95.089 168.911> 482 44<95.089 168.911>
VStem: 40 44<397.089 470.911> 180 44<397.089 470.911> 319 45<61.089 134.911> 460 44<61.089 134.911>
LayerCount: 2
Fore
SplineSet
84 434 m 128,-1,1
 84 414 84 414 98 400 c 128,-1,2
 112 386 112 386 132 386 c 128,-1,3
 152 386 152 386 166 400 c 128,-1,4
 180 414 180 414 180 434 c 128,-1,5
 180 454 180 454 166 468 c 128,-1,6
 152 482 152 482 132 482 c 128,-1,7
 112 482 112 482 98 468 c 128,-1,0
 84 454 84 454 84 434 c 128,-1,1
40 434 m 128,-1,9
 40 472 40 472 67 499 c 128,-1,10
 94 526 94 526 132 526 c 128,-1,11
 170 526 170 526 197 499 c 128,-1,12
 224 472 224 472 224 434 c 128,-1,13
 224 396 224 396 197 369 c 128,-1,14
 170 342 170 342 132 342 c 128,-1,15
 94 342 94 342 67 369 c 128,-1,8
 40 396 40 396 40 434 c 128,-1,9
364 98 m 128,-1,17
 364 78 364 78 378 64 c 128,-1,18
 392 50 392 50 412 50 c 128,-1,19
 432 50 432 50 446 64 c 128,-1,20
 460 78 460 78 460 98 c 128,-1,21
 460 118 460 118 446 132 c 128,-1,22
 432 146 432 146 412 146 c 128,-1,23
 392 146 392 146 378 132 c 128,-1,16
 364 118 364 118 364 98 c 128,-1,17
319 98 m 128,-1,25
 319 136 319 136 346.5 163 c 128,-1,26
 374 190 374 190 412 190 c 128,-1,27
 450 190 450 190 477 163 c 128,-1,28
 504 136 504 136 504 98 c 128,-1,29
 504 60 504 60 477 33 c 128,-1,30
 450 6 450 6 412 6 c 128,-1,31
 374 6 374 6 346.5 33 c 128,-1,24
 319 60 319 60 319 98 c 128,-1,25
50 41 m 1,32,-1
 456 524 l 1,33,-1
 494 490 l 1,34,-1
 88 8 l 1,35,-1
 50 41 l 1,32,-1
EndSplineSet
Validated: 19457
EndChar

StartChar: ampersand
Encoding: 38 38 7
Width: 548
Flags: W
HStem: -12 70<164.891 300.861> 0 21G<426.902 535> 640 70<191.346 280.576>
VStem: 31 78<118.152 260.659> 96 78<491.955 622.198> 290 78<525.283 629.612> 437 77<248.633 311.583>
LayerCount: 2
Fore
SplineSet
215 457 m 1,0,1
 290 537 290 537 290 590 c 0,2,3
 290 611 290 611 273 625.5 c 128,-1,4
 256 640 256 640 238 640 c 0,5,6
 219 640 219 640 196.5 622.5 c 128,-1,7
 174 605 174 605 174 584 c 0,8,9
 174 522 174 522 215 457 c 1,0,1
446 126 m 1,10,-1
 535 0 l 1,11,-1
 441 0 l 1,12,-1
 398 61 l 1,13,14
 328 -12 328 -12 231 -12 c 0,15,16
 148 -12 148 -12 89.5 49 c 128,-1,17
 31 110 31 110 31 196 c 0,18,19
 31 230 31 230 52 268 c 128,-1,20
 73 306 73 306 96 332 c 128,-1,21
 119 358 119 358 161 400 c 1,22,-1
 135 437 l 2,23,24
 96 492 96 492 96 586 c 0,25,26
 96 642 96 642 139.5 676 c 128,-1,27
 183 710 183 710 238 710 c 0,28,29
 292 710 292 710 330 679.5 c 128,-1,30
 368 649 368 649 368 592 c 0,31,32
 368 511 368 511 256 397 c 1,33,-1
 395 199 l 1,34,35
 421 256 421 256 437 327 c 1,36,-1
 514 310 l 1,37,38
 496 209 496 209 446 126 c 1,10,-1
202 343 m 1,39,40
 156 296 156 296 132.5 262.5 c 128,-1,41
 109 229 109 229 109 198 c 0,42,43
 109 140 109 140 144.5 99 c 128,-1,44
 180 58 180 58 231 58 c 0,45,46
 297 58 297 58 352 128 c 1,47,-1
 202 343 l 1,39,40
EndSplineSet
Validated: 19457
EndChar

StartChar: quotesingle
Encoding: 39 39 8
Width: 190
Flags: W
HStem: 434 264<60 130>
VStem: 60 70<434 698>
LayerCount: 2
Fore
SplineSet
60 434 m 1,0,-1
 60 698 l 1,1,-1
 130 698 l 1,2,-1
 130 434 l 1,3,-1
 60 434 l 1,0,-1
EndSplineSet
Validated: 19457
EndChar

StartChar: parenleft
Encoding: 40 40 9
Width: 240
Flags: W
HStem: -16 21G<164 199> 694 20G<164 199>
VStem: 44 78<164.562 532.103>
LayerCount: 2
Fore
SplineSet
199 644 m 1,0,1
 172 629 172 629 147 542.5 c 128,-1,2
 122 456 122 456 122 348 c 128,-1,3
 122 240 122 240 147 154.5 c 128,-1,4
 172 69 172 69 199 54 c 1,5,-1
 199 -16 l 1,6,7
 129 -16 129 -16 86.5 89.5 c 128,-1,8
 44 195 44 195 44 348 c 128,-1,9
 44 501 44 501 86.5 607.5 c 128,-1,10
 129 714 129 714 199 714 c 1,11,-1
 199 644 l 1,0,1
EndSplineSet
Validated: 19457
EndChar

StartChar: parenright
Encoding: 41 41 10
Width: 240
Flags: W
HStem: -16 21G<42 77> 694 20G<42 77>
VStem: 119 78<165.897 533.438>
LayerCount: 2
Fore
SplineSet
42 54 m 1,0,1
 69 69 69 69 94 155.5 c 128,-1,2
 119 242 119 242 119 350 c 128,-1,3
 119 458 119 458 94 543.5 c 128,-1,4
 69 629 69 629 42 644 c 1,5,-1
 42 714 l 1,6,7
 112 714 112 714 154.5 608.5 c 128,-1,8
 197 503 197 503 197 350 c 128,-1,9
 197 197 197 197 154.5 90.5 c 128,-1,10
 112 -16 112 -16 42 -16 c 1,11,-1
 42 54 l 1,0,1
EndSplineSet
Validated: 19457
EndChar

StartChar: asterisk
Encoding: 42 42 11
Width: 356
Flags: W
HStem: 557 48<47 136 221 309> 686 20G<99 145.688 211.571 258>
VStem: 47 262<557 605>
LayerCount: 2
Fore
SplineSet
221 605 m 1,0,-1
 309 605 l 1,1,-1
 309 557 l 1,2,-1
 220 557 l 1,3,-1
 265 479 l 1,4,-1
 223 455 l 1,5,-1
 179 531 l 1,6,-1
 134 455 l 1,7,-1
 92 479 l 1,8,-1
 137 557 l 1,9,-1
 47 557 l 1,10,-1
 47 605 l 1,11,-1
 136 605 l 1,12,-1
 92 682 l 1,13,-1
 134 706 l 1,14,-1
 179 629 l 1,15,-1
 223 706 l 1,16,-1
 265 682 l 1,17,-1
 221 605 l 1,0,-1
EndSplineSet
Validated: 19457
EndChar

StartChar: plus
Encoding: 43 43 12
Width: 453
Flags: W
HStem: 218 56<39 199 255 415>
VStem: 199 56<58 218 274 434>
LayerCount: 2
Fore
SplineSet
199 218 m 1,0,-1
 39 218 l 1,1,-1
 39 274 l 1,2,-1
 199 274 l 1,3,-1
 199 434 l 1,4,-1
 255 434 l 1,5,-1
 255 274 l 1,6,-1
 415 274 l 1,7,-1
 415 218 l 1,8,-1
 255 218 l 1,9,-1
 255 58 l 1,10,-1
 199 58 l 1,11,-1
 199 218 l 1,0,-1
EndSplineSet
Validated: 19457
EndChar

StartChar: comma
Encoding: 44 44 13
Width: 209
Flags: W
HStem: -124 227
VStem: 49 111<9.01721 86.4983>
LayerCount: 2
Fore
SplineSet
49 48 m 128,-1,1
 49 71 49 71 65 87 c 128,-1,2
 81 103 81 103 104 103 c 128,-1,3
 127 103 127 103 143.5 87 c 128,-1,4
 160 71 160 71 160 48 c 0,5,6
 160 13 160 13 150.5 -17.5 c 128,-1,7
 141 -48 141 -48 127.5 -67 c 128,-1,8
 114 -86 114 -86 100 -100 c 0,9,10
 88 -112 88 -112 78 -118 c 2,11,-1
 68 -124 l 1,12,-1
 50 -114 l 1,13,14
 89 -75 89 -75 104 -8 c 1,15,16
 81 -8 81 -8 65 8.5 c 128,-1,0
 49 25 49 25 49 48 c 128,-1,1
EndSplineSet
Validated: 19457
EndChar

StartChar: hyphen
Encoding: 45 45 14
Width: 340
Flags: W
HStem: 218 56<57 284>
VStem: 57 227<218 274>
LayerCount: 2
Fore
SplineSet
57 274 m 1,0,-1
 284 274 l 1,1,-1
 284 218 l 1,2,-1
 57 218 l 1,3,-1
 57 274 l 1,0,-1
EndSplineSet
Validated: 19457
EndChar

StartChar: period
Encoding: 46 46 15
Width: 208
Flags: W
HStem: -8 111<65.5017 142.983>
VStem: 49 111<9.01721 86.4983>
LayerCount: 2
Fore
SplineSet
49 48 m 128,-1,1
 49 71 49 71 65 87 c 128,-1,2
 81 103 81 103 104 103 c 128,-1,3
 127 103 127 103 143.5 87 c 128,-1,4
 160 71 160 71 160 48 c 128,-1,5
 160 25 160 25 143.5 8.5 c 128,-1,6
 127 -8 127 -8 104 -8 c 128,-1,7
 81 -8 81 -8 65 8.5 c 128,-1,0
 49 25 49 25 49 48 c 128,-1,1
EndSplineSet
Validated: 19457
EndChar

StartChar: slash
Encoding: 47 47 16
Width: 386
Flags: W
HStem: 0 21G<35 105.278> 678 20G<281.722 352>
VStem: 35 317
LayerCount: 2
Fore
SplineSet
352 698 m 1,0,-1
 98 0 l 1,1,-1
 35 0 l 1,2,-1
 289 698 l 1,3,-1
 352 698 l 1,0,-1
EndSplineSet
Validated: 19457
EndChar

StartChar: zero
Encoding: 48 48 17
Width: 574
VWidth: 0
Flags: W
HStem: -16 63<215.703 340.829> 650 64<215.487 340.358>
VStem: 40 69<200.12 497.772> 445 70<199.808 498.085>
LayerCount: 2
Fore
SplineSet
109 349 m 128,-1,1
 109 223 109 223 160 135 c 128,-1,2
 211 47 211 47 278 47 c 128,-1,3
 345 47 345 47 395 135 c 128,-1,4
 445 223 445 223 445 349 c 128,-1,5
 445 475 445 475 395 562.5 c 128,-1,6
 345 650 345 650 278 650 c 128,-1,7
 211 650 211 650 160 562.5 c 128,-1,0
 109 475 109 475 109 349 c 128,-1,1
40 349 m 128,-1,9
 40 514 40 514 112 614 c 128,-1,10
 184 714 184 714 278 714 c 128,-1,11
 372 714 372 714 443.5 614.5 c 128,-1,12
 515 515 515 515 515 349 c 128,-1,13
 515 183 515 183 444 83.5 c 128,-1,14
 373 -16 373 -16 279 -16 c 0,15,16
 184 -16 184 -16 112 84 c 128,-1,8
 40 184 40 184 40 349 c 128,-1,9
EndSplineSet
Validated: 19457
EndChar

StartChar: one
Encoding: 49 49 18
Width: 574
VWidth: 0
Flags: W
HStem: 0 21G<316 392> 678 20G<304.231 392>
VStem: 316 76<0 526>
LayerCount: 2
Fore
SplineSet
392 0 m 1,0,-1
 316 0 l 1,1,-1
 316 526 l 1,2,-1
 206 422 l 1,3,-1
 163 438 l 1,4,-1
 316 698 l 1,5,-1
 392 698 l 1,6,-1
 392 0 l 1,0,-1
EndSplineSet
Validated: 19457
EndChar

StartChar: two
Encoding: 50 50 19
Width: 574
VWidth: 0
Flags: W
HStem: 0 70<153 492> 644 70<191.947 361.688>
VStem: 406 78<442.168 600.945>
LayerCount: 2
Fore
SplineSet
492 70 m 1,0,-1
 492 0 l 1,1,-1
 72 0 l 1,2,-1
 72 44 l 2,3,4
 72 115 72 115 126 186 c 128,-1,5
 180 257 180 257 278 335 c 1,6,7
 348 392 348 392 377 431.5 c 128,-1,8
 406 471 406 471 406 524 c 0,9,10
 406 644 406 644 272 644 c 0,11,12
 223 644 223 644 191 621 c 128,-1,13
 159 598 159 598 120 546 c 1,14,-1
 63 594 l 1,15,16
 112 658 112 658 159 686 c 128,-1,17
 206 714 206 714 272 714 c 0,18,19
 370 714 370 714 427 664.5 c 128,-1,20
 484 615 484 615 484 524 c 0,21,22
 484 454 484 454 446.5 400 c 128,-1,23
 409 346 409 346 312 274 c 0,24,25
 254 232 254 232 209 176.5 c 128,-1,26
 164 121 164 121 153 70 c 1,27,-1
 492 70 l 1,0,-1
EndSplineSet
Validated: 19457
EndChar

StartChar: three
Encoding: 51 51 20
Width: 574
VWidth: 0
Flags: W
HStem: -16 69<164.666 357.325> 345 69<206 316.068> 645 69<196.153 357.811>
VStem: 401 77<477.535 602.914> 425 77<110.318 268.498>
LayerCount: 2
Fore
SplineSet
360 385 m 1,0,1
 502 326 502 326 502 190 c 0,2,3
 502 92 502 92 425.5 38 c 128,-1,4
 349 -16 349 -16 250 -16 c 0,5,6
 198 -16 198 -16 142.5 11 c 128,-1,7
 87 38 87 38 53 81 c 1,8,-1
 108 124 l 1,9,10
 131 91 131 91 170.5 72 c 128,-1,11
 210 53 210 53 250 53 c 0,12,13
 326 53 326 53 375.5 85 c 128,-1,14
 425 117 425 117 425 190 c 0,15,16
 425 235 425 235 404 267.5 c 128,-1,17
 383 300 383 300 348 316 c 128,-1,18
 313 332 313 332 278.5 338.5 c 128,-1,19
 244 345 244 345 206 345 c 1,20,-1
 206 414 l 1,21,22
 278 414 278 414 339.5 447.5 c 128,-1,23
 401 481 401 481 401 534 c 0,24,25
 401 583 401 583 368.5 614 c 128,-1,26
 336 645 336 645 275 645 c 0,27,28
 198 645 198 645 150 578 c 1,29,-1
 94 621 l 1,30,31
 128 664 128 664 178 689 c 128,-1,32
 228 714 228 714 275 714 c 0,33,34
 360 714 360 714 419 664.5 c 128,-1,35
 478 615 478 615 478 534 c 0,36,37
 478 490 478 490 445.5 451 c 128,-1,38
 413 412 413 412 360 385 c 1,0,1
EndSplineSet
Validated: 19457
EndChar

StartChar: four
Encoding: 52 52 21
Width: 574
VWidth: 0
Flags: W
HStem: 0 21G<365 441> 180 76<137 365 441 510> 678 20G<350.973 441>
VStem: 365 76<0 180 256 580>
LayerCount: 2
Fore
SplineSet
365 580 m 1,0,-1
 137 256 l 1,1,-1
 365 256 l 1,2,-1
 365 580 l 1,0,-1
365 698 m 1,3,-1
 441 698 l 1,4,-1
 441 256 l 1,5,-1
 510 256 l 1,6,-1
 510 180 l 1,7,-1
 441 180 l 1,8,-1
 441 0 l 1,9,-1
 365 0 l 1,10,-1
 365 180 l 1,11,-1
 55 180 l 1,12,-1
 55 256 l 1,13,-1
 365 698 l 1,3,-1
EndSplineSet
Validated: 19457
EndChar

StartChar: five
Encoding: 53 53 22
Width: 574
VWidth: 0
Flags: W
HStem: -16 63<155.422 350.304> 402 64<165.026 363.653> 628 70<164 442>
VStem: 88 76<454 628> 439 69<137.929 322>
LayerCount: 2
Fore
SplineSet
47 76 m 1,0,-1
 101 114 l 1,1,2
 153 47 153 47 265 47 c 0,3,4
 340 47 340 47 389.5 100 c 128,-1,5
 439 153 439 153 439 225 c 0,6,7
 439 304 439 304 396 353 c 128,-1,8
 353 402 353 402 270 402 c 0,9,10
 219 402 219 402 184 396.5 c 128,-1,11
 149 391 149 391 136 385.5 c 128,-1,12
 123 380 123 380 88 364 c 1,13,-1
 88 698 l 1,14,-1
 442 698 l 1,15,-1
 442 628 l 1,16,-1
 164 628 l 1,17,-1
 164 454 l 1,18,19
 221 466 221 466 270 466 c 0,20,21
 386 466 386 466 447 405 c 128,-1,22
 508 344 508 344 508 225 c 0,23,24
 508 118 508 118 442 51 c 128,-1,25
 376 -16 376 -16 263 -16 c 0,26,27
 121 -16 121 -16 47 76 c 1,0,-1
EndSplineSet
Validated: 19457
EndChar

StartChar: six
Encoding: 54 54 23
Width: 574
VWidth: 0
Flags: W
HStem: -16 63<197.497 357.961> 412 64<197.333 358.435> 648 66<311.431 396>
VStem: 40 70<138.108 320.9> 446 69<138.108 321.784>
LayerCount: 2
Fore
SplineSet
515 230 m 128,-1,1
 515 127 515 127 441.5 55.5 c 128,-1,2
 368 -16 368 -16 276 -16 c 128,-1,3
 184 -16 184 -16 112 55.5 c 128,-1,4
 40 127 40 127 40 230 c 0,5,6
 40 331 40 331 62.5 413.5 c 128,-1,7
 85 496 85 496 121 549.5 c 128,-1,8
 157 603 157 603 205 640.5 c 128,-1,9
 253 678 253 678 300.5 694.5 c 128,-1,10
 348 711 348 711 396 714 c 1,11,-1
 396 648 l 1,12,13
 200 620 200 620 137 425 c 1,14,15
 202 476 202 476 278 476 c 0,16,17
 370 476 370 476 442.5 404.5 c 128,-1,0
 515 333 515 333 515 230 c 128,-1,1
446 230 m 128,-1,19
 446 308 446 308 396 360 c 128,-1,20
 346 412 346 412 278 412 c 128,-1,21
 210 412 210 412 160 360 c 128,-1,22
 110 308 110 308 110 230 c 128,-1,23
 110 152 110 152 160 99.5 c 128,-1,24
 210 47 210 47 278 47 c 128,-1,25
 346 47 346 47 396 99.5 c 128,-1,18
 446 152 446 152 446 230 c 128,-1,19
EndSplineSet
Validated: 19457
EndChar

StartChar: seven
Encoding: 55 55 24
Width: 574
VWidth: 0
Flags: W
HStem: 0 21G<168 257.791> 628 70<67 382>
LayerCount: 2
Fore
SplineSet
67 628 m 1,0,-1
 67 698 l 1,1,-1
 488 698 l 1,2,-1
 251 0 l 1,3,-1
 168 0 l 1,4,-1
 382 628 l 1,5,-1
 67 628 l 1,0,-1
EndSplineSet
Validated: 19457
EndChar

StartChar: eight
Encoding: 56 56 25
Width: 574
VWidth: 0
Flags: W
HStem: -16 68<181.348 373.198> 347 69<191.289 365.838> 645 69<189.453 366.066>
VStem: 40 74<115.275 284.111> 70 74<460.195 602.358> 410 75<458.115 603.977> 440 75<114.522 284.859>
LayerCount: 2
Fore
SplineSet
114 200 m 128,-1,1
 114 125 114 125 160 88.5 c 128,-1,2
 206 52 206 52 278 52 c 0,3,4
 349 52 349 52 394.5 88.5 c 128,-1,5
 440 125 440 125 440 200 c 128,-1,6
 440 275 440 275 395 311 c 128,-1,7
 350 347 350 347 278 347 c 128,-1,8
 206 347 206 347 160 311 c 128,-1,0
 114 275 114 275 114 200 c 128,-1,1
70 531 m 0,9,10
 70 618 70 618 133 666 c 128,-1,11
 196 714 196 714 278 714 c 128,-1,12
 360 714 360 714 422.5 666 c 128,-1,13
 485 618 485 618 485 531 c 0,14,15
 485 436 485 436 406 384 c 1,16,17
 515 323 515 323 515 200 c 0,18,19
 515 100 515 100 444.5 42 c 128,-1,20
 374 -16 374 -16 279 -16 c 0,21,22
 183 -16 183 -16 111.5 42 c 128,-1,23
 40 100 40 100 40 200 c 0,24,25
 40 323 40 323 150 384 c 1,26,27
 70 436 70 436 70 531 c 0,9,10
278 416 m 0,28,29
 338 416 338 416 374 444 c 128,-1,30
 410 472 410 472 410 531 c 128,-1,31
 410 590 410 590 374 617.5 c 128,-1,32
 338 645 338 645 278 645 c 128,-1,33
 218 645 218 645 181 617.5 c 128,-1,34
 144 590 144 590 144 531 c 0,35,36
 144 473 144 473 181.5 444.5 c 128,-1,37
 219 416 219 416 278 416 c 0,28,29
EndSplineSet
Validated: 19457
EndChar

StartChar: nine
Encoding: 57 57 26
Width: 574
VWidth: 0
Flags: W
HStem: -16 66<159 244.103> 222 64<197.406 358.807> 651 63<197.436 357.901>
VStem: 40 69<376.216 559.892> 445 70<376.151 560.846>
LayerCount: 2
Fore
SplineSet
40 468 m 128,-1,1
 40 571 40 571 113.5 642.5 c 128,-1,2
 187 714 187 714 279 714 c 128,-1,3
 371 714 371 714 443 642.5 c 128,-1,4
 515 571 515 571 515 468 c 0,5,6
 515 367 515 367 492.5 284.5 c 128,-1,7
 470 202 470 202 434 148.5 c 128,-1,8
 398 95 398 95 350 57.5 c 128,-1,9
 302 20 302 20 254.5 3.5 c 128,-1,10
 207 -13 207 -13 159 -16 c 1,11,-1
 159 50 l 1,12,13
 357 78 357 78 419 272 c 1,14,15
 355 222 355 222 278 222 c 0,16,17
 186 222 186 222 113 293.5 c 128,-1,0
 40 365 40 365 40 468 c 128,-1,1
109 468 m 128,-1,19
 109 390 109 390 159.5 338 c 128,-1,20
 210 286 210 286 278 286 c 128,-1,21
 346 286 346 286 395.5 338 c 128,-1,22
 445 390 445 390 445 468 c 128,-1,23
 445 546 445 546 395.5 598.5 c 128,-1,24
 346 651 346 651 278 651 c 128,-1,25
 210 651 210 651 159.5 598.5 c 128,-1,18
 109 546 109 546 109 468 c 128,-1,19
EndSplineSet
Validated: 19457
EndChar

StartChar: colon
Encoding: 58 58 27
Width: 225
Flags: W
HStem: -8 111<74.0172 151.498> 372 111<74.0172 151.498>
VStem: 57 111<9.01721 86.4983 389.017 466.498>
LayerCount: 2
Fore
SplineSet
57 48 m 128,-1,1
 57 71 57 71 73.5 87 c 128,-1,2
 90 103 90 103 113 103 c 128,-1,3
 136 103 136 103 152 87 c 128,-1,4
 168 71 168 71 168 48 c 128,-1,5
 168 25 168 25 152 8.5 c 128,-1,6
 136 -8 136 -8 113 -8 c 128,-1,7
 90 -8 90 -8 73.5 8.5 c 128,-1,0
 57 25 57 25 57 48 c 128,-1,1
57 428 m 128,-1,9
 57 451 57 451 73.5 467 c 128,-1,10
 90 483 90 483 113 483 c 128,-1,11
 136 483 136 483 152 467 c 128,-1,12
 168 451 168 451 168 428 c 128,-1,13
 168 405 168 405 152 388.5 c 128,-1,14
 136 372 136 372 113 372 c 128,-1,15
 90 372 90 372 73.5 388.5 c 128,-1,8
 57 405 57 405 57 428 c 128,-1,9
EndSplineSet
Validated: 19457
EndChar

StartChar: semicolon
Encoding: 59 59 28
Width: 225
Flags: W
HStem: 372 111<74.0172 151.498>
VStem: 57 111<9.01721 86.4983 389.017 466.498>
LayerCount: 2
Fore
SplineSet
57 428 m 128,-1,1
 57 451 57 451 73.5 467 c 128,-1,2
 90 483 90 483 113 483 c 128,-1,3
 136 483 136 483 152 467 c 128,-1,4
 168 451 168 451 168 428 c 128,-1,5
 168 405 168 405 152 388.5 c 128,-1,6
 136 372 136 372 113 372 c 128,-1,7
 90 372 90 372 73.5 388.5 c 128,-1,0
 57 405 57 405 57 428 c 128,-1,1
57 48 m 128,-1,9
 57 71 57 71 73.5 87 c 128,-1,10
 90 103 90 103 113 103 c 128,-1,11
 136 103 136 103 152 87 c 128,-1,12
 168 71 168 71 168 48 c 0,13,14
 168 13 168 13 158.5 -17.5 c 128,-1,15
 149 -48 149 -48 135.5 -67 c 128,-1,16
 122 -86 122 -86 108 -100 c 0,17,18
 96 -112 96 -112 86 -118 c 2,19,-1
 76 -124 l 1,20,-1
 58 -114 l 1,21,22
 98 -75 98 -75 113 -8 c 1,23,24
 90 -8 90 -8 73.5 8.5 c 128,-1,8
 57 25 57 25 57 48 c 128,-1,9
EndSplineSet
Validated: 19457
EndChar

StartChar: less
Encoding: 60 60 29
Width: 492
Flags: W
HStem: -16 21G<370.169 410.667>
LayerCount: 2
Fore
SplineSet
27 292 m 1,0,-1
 394 600 l 1,1,-1
 439 546 l 1,2,-1
 136 292 l 1,3,-1
 439 38 l 1,4,-1
 394 -16 l 1,5,-1
 27 292 l 1,0,-1
EndSplineSet
Validated: 19457
EndChar

StartChar: equal
Encoding: 61 61 30
Width: 408
Flags: W
HStem: 162 56<67 342> 274 56<67 342>
VStem: 67 275<162 218 274 330>
LayerCount: 2
Fore
SplineSet
67 330 m 1,0,-1
 342 330 l 1,1,-1
 342 274 l 1,2,-1
 67 274 l 1,3,-1
 67 330 l 1,0,-1
67 218 m 1,4,-1
 342 218 l 1,5,-1
 342 162 l 1,6,-1
 67 162 l 1,7,-1
 67 218 l 1,4,-1
EndSplineSet
Validated: 19457
EndChar

StartChar: greater
Encoding: 62 62 31
Width: 492
Flags: W
HStem: -16 21G<81.3333 121.896>
LayerCount: 2
Fore
SplineSet
466 292 m 1,0,-1
 98 -16 l 1,1,-1
 53 38 l 1,2,-1
 356 292 l 1,3,-1
 53 546 l 1,4,-1
 98 600 l 1,5,-1
 466 292 l 1,0,-1
EndSplineSet
Validated: 19457
EndChar

StartChar: question
Encoding: 63 63 32
Width: 472
Flags: W
HStem: -8 111<175.502 252.983> 650 64<148.312 305.587>
VStem: 159 111<9.01721 86.4983> 180 70<170 260.69> 362 70<425.25 593.169>
LayerCount: 2
Fore
SplineSet
159 48 m 128,-1,1
 159 71 159 71 175 87 c 128,-1,2
 191 103 191 103 214 103 c 128,-1,3
 237 103 237 103 253.5 87 c 128,-1,4
 270 71 270 71 270 48 c 128,-1,5
 270 25 270 25 253.5 8.5 c 128,-1,6
 237 -8 237 -8 214 -8 c 128,-1,7
 191 -8 191 -8 175 8.5 c 128,-1,0
 159 25 159 25 159 48 c 128,-1,1
30 572 m 1,8,9
 53 636 53 636 107 675 c 128,-1,10
 161 714 161 714 224 714 c 0,11,12
 312 714 312 714 372 657 c 128,-1,13
 432 600 432 600 432 516 c 0,14,15
 432 469 432 469 418.5 433 c 128,-1,16
 405 397 405 397 385 376.5 c 128,-1,17
 365 356 365 356 341 334 c 128,-1,18
 317 312 317 312 297 293.5 c 128,-1,19
 277 275 277 275 263.5 243 c 128,-1,20
 250 211 250 211 250 170 c 1,21,-1
 180 170 l 1,22,23
 180 217 180 217 193.5 253 c 128,-1,24
 207 289 207 289 227 309.5 c 128,-1,25
 247 330 247 330 271 352 c 128,-1,26
 295 374 295 374 315 392.5 c 128,-1,27
 335 411 335 411 348.5 443 c 128,-1,28
 362 475 362 475 362 516 c 0,29,30
 362 574 362 574 325 612 c 128,-1,31
 288 650 288 650 224 650 c 0,32,33
 178 650 178 650 143.5 624.5 c 128,-1,34
 109 599 109 599 94 552 c 1,35,-1
 30 572 l 1,8,9
EndSplineSet
Validated: 19457
EndChar

StartChar: at
Encoding: 64 64 33
Width: 769
Flags: W
HStem: -150 64<304.144 539.628> 56 63<328.502 434.729> 57 70<560.379 633.438> 444 64<329.714 434.021> 470 20G<481 545> 648 64<294.066 501.917>
VStem: 41 70<147.148 441.39> 219 63<176.121 385.686> 481 64<174.425 386.842 469 490> 664 70<163.829 458.885>
LayerCount: 2
Fore
SplineSet
384 56 m 0,0,1
 304 56 304 56 261.5 117 c 128,-1,2
 219 178 219 178 219 285 c 0,3,4
 219 390 219 390 261 449 c 128,-1,5
 303 508 303 508 382 508 c 0,6,7
 439 508 439 508 481 469 c 1,8,-1
 481 490 l 1,9,-1
 545 490 l 1,10,-1
 545 191 l 2,11,12
 545 159 545 159 562.5 143 c 128,-1,13
 580 127 580 127 597 127 c 0,14,15
 628 127 628 127 646 173.5 c 128,-1,16
 664 220 664 220 664 294 c 0,17,18
 664 462 664 462 594.5 555 c 128,-1,19
 525 648 525 648 382 648 c 0,20,21
 286 648 286 648 198.5 548.5 c 128,-1,22
 111 449 111 449 111 319 c 0,23,24
 111 133 111 133 194 23.5 c 128,-1,25
 277 -86 277 -86 419 -86 c 0,26,27
 479 -86 479 -86 554 -59 c 1,28,-1
 582 -119 l 1,29,30
 495 -150 495 -150 419 -150 c 0,31,32
 250 -150 250 -150 145.5 -23 c 128,-1,33
 41 104 41 104 41 316 c 0,34,35
 41 395 41 395 72 469.5 c 128,-1,36
 103 544 103 544 152 596.5 c 128,-1,37
 201 649 201 649 262 680.5 c 128,-1,38
 323 712 323 712 382 712 c 0,39,40
 556 712 556 712 645 596 c 128,-1,41
 734 480 734 480 734 278 c 0,42,43
 734 238 734 238 727 201 c 128,-1,44
 720 164 720 164 705 130.5 c 128,-1,45
 690 97 690 97 662.5 77 c 128,-1,46
 635 57 635 57 597 57 c 0,47,48
 524 57 524 57 497 112 c 1,49,50
 453 56 453 56 384 56 c 0,0,1
481 282 m 0,51,52
 481 348 481 348 454 396 c 128,-1,53
 427 444 427 444 382 444 c 128,-1,54
 337 444 337 444 309.5 396 c 128,-1,55
 282 348 282 348 282 282 c 0,56,57
 282 214 282 214 309 166.5 c 128,-1,58
 336 119 336 119 382 119 c 0,59,60
 427 119 427 119 454 165.5 c 128,-1,61
 481 212 481 212 481 282 c 0,51,52
EndSplineSet
Validated: 19457
EndChar

StartChar: A
Encoding: 65 65 34
Width: 589
Flags: W
HStem: 0 21G<1 90.2449 500.653 590> 196 63<177 414> 678 20G<254 337>
AnchorPoint: "ogonek" 515 0 basechar 0
AnchorPoint: "bottom" 295 0 basechar 0
AnchorPoint: "top" 295 743 basechar 0
LayerCount: 2
Fore
SplineSet
336 696 m 1,0,-1
 590 0 l 1,1,-1
 508 0 l 1,2,-1
 436 196 l 1,3,-1
 154 196 l 1,4,-1
 83 0 l 1,5,-1
 1 0 l 1,6,-1
 254 696 l 1,7,-1
 254 698 l 1,8,-1
 337 698 l 1,9,-1
 336 696 l 1,0,-1
295 584 m 1,10,-1
 177 259 l 1,11,-1
 414 259 l 1,12,-1
 295 584 l 1,10,-1
EndSplineSet
Validated: 19457
EndChar

StartChar: B
Encoding: 66 66 35
Width: 588
Flags: W
HStem: 0 63<158 396.174> 346 65<158 369.674> 634 64<158 368.618>
VStem: 81 77<63 346 411 634> 418 84<458.184 587.3> 465 84<126.666 284.743>
AnchorPoint: "bottom" 285 0 basechar 0
AnchorPoint: "top" 265 743 basechar 0
LayerCount: 2
Fore
SplineSet
81 0 m 1,0,-1
 81 698 l 1,1,-1
 288 698 l 2,2,3
 378 698 378 698 440 649 c 128,-1,4
 502 600 502 600 502 523 c 0,5,6
 502 437 502 437 425 386 c 1,7,8
 481 362 481 362 515 316.5 c 128,-1,9
 549 271 549 271 549 205 c 0,10,11
 549 106 549 106 476.5 53 c 128,-1,12
 404 0 404 0 306 0 c 2,13,-1
 81 0 l 1,0,-1
158 346 m 1,14,-1
 158 63 l 1,15,-1
 304 63 l 2,16,17
 373 63 373 63 419 100 c 128,-1,18
 465 137 465 137 465 205 c 128,-1,19
 465 273 465 273 419.5 309.5 c 128,-1,20
 374 346 374 346 304 346 c 2,21,-1
 158 346 l 1,14,-1
158 634 m 1,22,-1
 158 411 l 1,23,-1
 288 411 l 2,24,25
 350 411 350 411 384 444.5 c 128,-1,26
 418 478 418 478 418 523 c 0,27,28
 418 567 418 567 384 600.5 c 128,-1,29
 350 634 350 634 288 634 c 2,30,-1
 158 634 l 1,22,-1
EndSplineSet
Validated: 19457
EndChar

StartChar: C
Encoding: 67 67 36
Width: 586
Flags: W
HStem: -16 70<244.676 400.927> 644 70<246.618 400.078>
VStem: 45 78<212.142 484.171>
AnchorPoint: "bottom" 327 0 basechar 0
AnchorPoint: "top" 330 743 basechar 0
LayerCount: 2
Fore
SplineSet
559 147 m 1,0,1
 465 -16 465 -16 327 -16 c 0,2,3
 210 -16 210 -16 127.5 91.5 c 128,-1,4
 45 199 45 199 45 348 c 128,-1,5
 45 497 45 497 127.5 605.5 c 128,-1,6
 210 714 210 714 327 714 c 0,7,8
 454 714 454 714 547 570 c 1,9,-1
 486 527 l 1,10,11
 415 644 415 644 327 644 c 0,12,13
 238 644 238 644 180.5 556 c 128,-1,14
 123 468 123 468 123 348 c 128,-1,15
 123 228 123 228 180 141 c 128,-1,16
 237 54 237 54 327 54 c 0,17,18
 423 54 423 54 493 183 c 1,19,-1
 559 147 l 1,0,1
EndSplineSet
Validated: 19457
EndChar

StartChar: D
Encoding: 68 68 37
Width: 624
Flags: W
HStem: 0 70<158 345.508> 628 70<158 345.508>
VStem: 81 77<70 628> 498 81<215.543 481.1>
AnchorPoint: "bottom" 215 0 basechar 0
AnchorPoint: "top" 280 743 basechar 0
LayerCount: 2
Fore
SplineSet
81 0 m 1,0,-1
 81 698 l 1,1,-1
 233 698 l 2,2,3
 301 698 301 698 361.5 677 c 128,-1,4
 422 656 422 656 471.5 615 c 128,-1,5
 521 574 521 574 550 505 c 128,-1,6
 579 436 579 436 579 348 c 128,-1,7
 579 260 579 260 550 191.5 c 128,-1,8
 521 123 521 123 471.5 82 c 128,-1,9
 422 41 422 41 361.5 20.5 c 128,-1,10
 301 0 301 0 233 0 c 2,11,-1
 81 0 l 1,0,-1
158 628 m 1,12,-1
 158 70 l 1,13,-1
 211 70 l 2,14,15
 348 70 348 70 423 138.5 c 128,-1,16
 498 207 498 207 498 348 c 0,17,18
 498 490 498 490 423 559 c 128,-1,19
 348 628 348 628 211 628 c 2,20,-1
 158 628 l 1,12,-1
EndSplineSet
Validated: 19457
EndChar

StartChar: E
Encoding: 69 69 38
Width: 515
Flags: W
HStem: 0 63<158 475> 348 63<158 403> 634 64<158 472>
VStem: 81 77<63 348 411 634>
AnchorPoint: "ogonek" 427 0 basechar 0
AnchorPoint: "bottom" 292 0 basechar 0
AnchorPoint: "top" 292 743 basechar 0
LayerCount: 2
Fore
SplineSet
81 0 m 1,0,-1
 81 698 l 1,1,-1
 472 698 l 1,2,-1
 472 634 l 1,3,-1
 158 634 l 1,4,-1
 158 411 l 1,5,-1
 403 411 l 1,6,-1
 403 348 l 1,7,-1
 158 348 l 1,8,-1
 158 63 l 1,9,-1
 475 63 l 1,10,-1
 475 0 l 1,11,-1
 81 0 l 1,0,-1
EndSplineSet
Validated: 19457
EndChar

StartChar: F
Encoding: 70 70 39
Width: 490
Flags: W
HStem: 0 21G<81 158> 348 63<158 403> 634 64<158 472>
VStem: 81 77<0 348 411 634>
AnchorPoint: "bottom" 222 0 basechar 0
AnchorPoint: "top" 289 743 basechar 0
LayerCount: 2
Fore
SplineSet
81 0 m 1,0,-1
 81 698 l 1,1,-1
 472 698 l 1,2,-1
 472 634 l 1,3,-1
 158 634 l 1,4,-1
 158 411 l 1,5,-1
 403 411 l 1,6,-1
 403 348 l 1,7,-1
 158 348 l 1,8,-1
 158 0 l 1,9,-1
 81 0 l 1,0,-1
EndSplineSet
Validated: 19457
EndChar

StartChar: G
Encoding: 71 71 40
Width: 621
Flags: W
HStem: -16 70<233.615 419.922> 298 63<337 502> 644 70<247.482 414.936>
VStem: 45 78<203.746 485.12> 502 76<144.597 298>
AnchorPoint: "bottom" 312 0 basechar 0
AnchorPoint: "top" 331 743 basechar 0
LayerCount: 2
Fore
SplineSet
337 298 m 1,0,-1
 337 361 l 1,1,-1
 578 361 l 1,2,-1
 578 298 l 2,3,4
 578 133 578 133 509.5 58.5 c 128,-1,5
 441 -16 441 -16 312 -16 c 0,6,7
 196 -16 196 -16 120.5 90.5 c 128,-1,8
 45 197 45 197 45 348 c 128,-1,9
 45 499 45 499 126 606.5 c 128,-1,10
 207 714 207 714 332 714 c 0,11,12
 411 714 411 714 460.5 678.5 c 128,-1,13
 510 643 510 643 557 570 c 1,14,-1
 496 527 l 1,15,16
 461 585 461 585 425 614.5 c 128,-1,17
 389 644 389 644 332 644 c 0,18,19
 238 644 238 644 180.5 556.5 c 128,-1,20
 123 469 123 469 123 348 c 0,21,22
 123 226 123 226 173.5 140 c 128,-1,23
 224 54 224 54 312 54 c 0,24,25
 358 54 358 54 388.5 62.5 c 128,-1,26
 419 71 419 71 447 95.5 c 128,-1,27
 475 120 475 120 488.5 170 c 128,-1,28
 502 220 502 220 502 298 c 1,29,-1
 337 298 l 1,0,-1
EndSplineSet
Validated: 19457
EndChar

StartChar: H
Encoding: 72 72 41
Width: 622
Flags: W
HStem: 0 21G<81 158 465 542> 333 63<158 465> 678 20G<81 158 465 542>
VStem: 81 77<0 333 396 698> 465 77<0 333 396 698>
AnchorPoint: "bottom" 314 0 basechar 0
AnchorPoint: "top" 315 743 basechar 0
LayerCount: 2
Fore
SplineSet
81 0 m 1,0,-1
 81 698 l 1,1,-1
 158 698 l 1,2,-1
 158 396 l 1,3,-1
 465 396 l 1,4,-1
 465 698 l 1,5,-1
 542 698 l 1,6,-1
 542 0 l 1,7,-1
 465 0 l 1,8,-1
 465 333 l 1,9,-1
 158 333 l 1,10,-1
 158 0 l 1,11,-1
 81 0 l 1,0,-1
EndSplineSet
Validated: 19457
EndChar

StartChar: I
Encoding: 73 73 42
Width: 259
Flags: W
HStem: 0 68<54 91 168 205> 631 67<54 91 168 205>
VStem: 54 151<0 68 631 698>
AnchorPoint: "ogonek" 175 0 basechar 0
AnchorPoint: "bottom" 130 0 basechar 0
AnchorPoint: "top" 130 743 basechar 0
LayerCount: 2
Fore
SplineSet
168 631 m 1,0,-1
 168 68 l 1,1,-1
 205 68 l 1,2,-1
 205 0 l 1,3,-1
 54 0 l 1,4,-1
 54 68 l 1,5,-1
 91 68 l 1,6,-1
 91 631 l 1,7,-1
 54 631 l 1,8,-1
 54 698 l 1,9,-1
 205 698 l 1,10,-1
 205 631 l 1,11,-1
 168 631 l 1,0,-1
EndSplineSet
Validated: 19457
EndChar

StartChar: J
Encoding: 74 74 43
Width: 501
Flags: W
HStem: -16 71<135.043 292.184> 678 20G<349 426>
VStem: 349 77<112.275 698>
AnchorPoint: "bottom" 210 0 basechar 0
AnchorPoint: "top" 389 743 basechar 0
LayerCount: 2
Fore
SplineSet
77 161 m 1,0,1
 92 112 92 112 126.5 83.5 c 128,-1,2
 161 55 161 55 208 55 c 0,3,4
 276 55 276 55 312.5 93.5 c 128,-1,5
 349 132 349 132 349 210 c 2,6,-1
 349 698 l 1,7,-1
 426 698 l 1,8,-1
 426 210 l 2,9,10
 426 107 426 107 364 45.5 c 128,-1,11
 302 -16 302 -16 210 -16 c 0,12,13
 147 -16 147 -16 93 24.5 c 128,-1,14
 39 65 39 65 12 130 c 1,15,-1
 77 161 l 1,0,1
EndSplineSet
Validated: 19457
EndChar

StartChar: K
Encoding: 75 75 44
Width: 545
Flags: W
HStem: 0 21G<81 158 436.976 544> 678 20G<81 158 416.232 532>
VStem: 81 77<0 252 370 698>
AnchorPoint: "bottom" 296 0 basechar 0
AnchorPoint: "top" 281 743 basechar 0
LayerCount: 2
Fore
SplineSet
81 0 m 1,0,-1
 81 698 l 1,1,-1
 158 698 l 1,2,-1
 158 370 l 1,3,-1
 433 698 l 1,4,-1
 532 698 l 1,5,-1
 272 388 l 1,6,-1
 544 0 l 1,7,-1
 451 0 l 1,8,-1
 221 328 l 1,9,-1
 158 252 l 1,10,-1
 158 0 l 1,11,-1
 81 0 l 1,0,-1
EndSplineSet
Validated: 19457
EndChar

StartChar: L
Encoding: 76 76 45
Width: 446
Flags: W
HStem: 0 63<158 431> 678 20G<81 158>
VStem: 81 77<63 698>
AnchorPoint: "bottom" 273 0 basechar 0
AnchorPoint: "top" 120 743 basechar 0
LayerCount: 2
Fore
SplineSet
81 0 m 1,0,-1
 81 698 l 1,1,-1
 158 698 l 1,2,-1
 158 63 l 1,3,-1
 431 63 l 1,4,-1
 431 0 l 1,5,-1
 81 0 l 1,0,-1
EndSplineSet
Validated: 19457
EndChar

StartChar: M
Encoding: 77 77 46
Width: 812
Flags: W
HStem: 0 21G<81 158 357.907 455.078 655 731> 678 20G<81 172.141 639.926 731>
VStem: 81 77<0 514> 655 76<0 515>
AnchorPoint: "ogonek" 407 743 basechar 0
AnchorPoint: "bottom" 407 0 basechar 0
LayerCount: 2
Fore
SplineSet
81 0 m 1,0,-1
 81 698 l 1,1,-1
 164 698 l 1,2,-1
 407 101 l 1,3,-1
 648 698 l 1,4,-1
 731 698 l 1,5,-1
 731 0 l 1,6,-1
 655 0 l 1,7,-1
 655 515 l 1,8,-1
 447 0 l 1,9,-1
 366 0 l 1,10,-1
 158 514 l 1,11,-1
 158 0 l 1,12,-1
 81 0 l 1,0,-1
EndSplineSet
Validated: 19457
EndChar

StartChar: N
Encoding: 78 78 47
Width: 644
Flags: W
HStem: 0 21G<81 158 475.456 563> 678 20G<81 169.503 487 563>
VStem: 81 77<0 570> 487 76<126 698>
AnchorPoint: "bottom" 328 0 basechar 0
AnchorPoint: "top" 328 743 basechar 0
LayerCount: 2
Fore
SplineSet
81 0 m 1,0,-1
 81 698 l 1,1,-1
 158 698 l 1,2,-1
 487 126 l 1,3,-1
 487 698 l 1,4,-1
 563 698 l 1,5,-1
 563 0 l 1,6,-1
 487 0 l 1,7,-1
 158 570 l 1,8,-1
 158 0 l 1,9,-1
 81 0 l 1,0,-1
EndSplineSet
Validated: 19457
EndChar

StartChar: O
Encoding: 79 79 48
Width: 686
Flags: W
HStem: -16 70<259.95 426.05> 644 70<259.95 426.05>
VStem: 43 81<222.465 476.159> 562 81<222.465 476.159>
AnchorPoint: "ogonek" 375 0 basechar 0
AnchorPoint: "bottom" 343 0 basechar 0
AnchorPoint: "top" 343 743 basechar 0
LayerCount: 2
Fore
SplineSet
124 348 m 0,0,1
 124 231 124 231 188 142.5 c 128,-1,2
 252 54 252 54 343 54 c 128,-1,3
 434 54 434 54 498 142.5 c 128,-1,4
 562 231 562 231 562 348 c 0,5,6
 562 466 562 466 498 555 c 128,-1,7
 434 644 434 644 343 644 c 128,-1,8
 252 644 252 644 188 555 c 128,-1,9
 124 466 124 466 124 348 c 0,0,1
43 348 m 128,-1,11
 43 495 43 495 133.5 604.5 c 128,-1,12
 224 714 224 714 343 714 c 128,-1,13
 462 714 462 714 552.5 604.5 c 128,-1,14
 643 495 643 495 643 348 c 128,-1,15
 643 201 643 201 552.5 92.5 c 128,-1,16
 462 -16 462 -16 343 -16 c 128,-1,17
 224 -16 224 -16 133.5 92.5 c 128,-1,10
 43 201 43 201 43 348 c 128,-1,11
EndSplineSet
Validated: 19457
EndChar

StartChar: P
Encoding: 80 80 49
Width: 570
Flags: W
HStem: 0 21G<81 158> 288 64<158 397.625> 634 64<158 398.421>
VStem: 81 77<0 288 352 634> 465 84<414.064 571.936>
AnchorPoint: "bottom" 201 0 basechar 0
AnchorPoint: "top" 287 743 basechar 0
LayerCount: 2
Fore
SplineSet
81 0 m 1,0,-1
 81 698 l 1,1,-1
 304 698 l 2,2,3
 402 698 402 698 475.5 645 c 128,-1,4
 549 592 549 592 549 493 c 128,-1,5
 549 394 549 394 476.5 341 c 128,-1,6
 404 288 404 288 306 288 c 2,7,-1
 158 288 l 1,8,-1
 158 0 l 1,9,-1
 81 0 l 1,0,-1
158 634 m 1,10,-1
 158 352 l 1,11,-1
 304 352 l 2,12,13
 374 352 374 352 419.5 388.5 c 128,-1,14
 465 425 465 425 465 493 c 128,-1,15
 465 561 465 561 419.5 597.5 c 128,-1,16
 374 634 374 634 304 634 c 2,17,-1
 158 634 l 1,10,-1
EndSplineSet
Validated: 19457
EndChar

StartChar: Q
Encoding: 81 81 50
Width: 686
Flags: W
HStem: -16 70<259.95 426.875> 644 70<259.95 426.05>
VStem: 43 81<222.465 476.159> 562 81<219.623 476.159>
LayerCount: 2
Fore
SplineSet
43 348 m 128,-1,1
 43 495 43 495 133.5 604.5 c 128,-1,2
 224 714 224 714 343 714 c 128,-1,3
 462 714 462 714 552.5 604.5 c 128,-1,4
 643 495 643 495 643 348 c 0,5,6
 643 198 643 198 549 88 c 1,7,-1
 623 14 l 1,8,-1
 578 -30 l 1,9,-1
 503 44 l 1,10,11
 429 -16 429 -16 343 -16 c 0,12,13
 224 -16 224 -16 133.5 92.5 c 128,-1,0
 43 201 43 201 43 348 c 128,-1,1
124 348 m 0,14,15
 124 231 124 231 188 142.5 c 128,-1,16
 252 54 252 54 343 54 c 0,17,18
 404 54 404 54 453 94 c 1,19,-1
 375 171 l 1,20,-1
 420 216 l 1,21,-1
 497 140 l 1,22,23
 562 226 562 226 562 348 c 0,24,25
 562 466 562 466 498 555 c 128,-1,26
 434 644 434 644 343 644 c 128,-1,27
 252 644 252 644 188 555 c 128,-1,28
 124 466 124 466 124 348 c 0,14,15
EndSplineSet
Validated: 19457
EndChar

StartChar: R
Encoding: 82 82 51
Width: 594
Flags: W
HStem: 0 21G<81 158 461.472 558> 288 64<158 307> 634 64<158 398.421>
VStem: 81 77<0 288 352 634> 465 84<413.687 571.936>
AnchorPoint: "bottom" 300 0 basechar 0
AnchorPoint: "top" 306 743 basechar 0
LayerCount: 2
Fore
SplineSet
81 0 m 1,0,-1
 81 698 l 1,1,-1
 304 698 l 2,2,3
 402 698 402 698 475.5 645 c 128,-1,4
 549 592 549 592 549 493 c 0,5,6
 549 415 549 415 503.5 366 c 128,-1,7
 458 317 458 317 386 298 c 1,8,-1
 558 0 l 1,9,-1
 473 0 l 1,10,-1
 307 288 l 1,11,-1
 306 288 l 1,12,-1
 158 288 l 1,13,-1
 158 0 l 1,14,-1
 81 0 l 1,0,-1
158 634 m 1,15,-1
 158 352 l 1,16,-1
 304 352 l 2,17,18
 374 352 374 352 419.5 388.5 c 128,-1,19
 465 425 465 425 465 493 c 128,-1,20
 465 561 465 561 419.5 597.5 c 128,-1,21
 374 634 374 634 304 634 c 2,22,-1
 158 634 l 1,15,-1
EndSplineSet
Validated: 19457
EndChar

StartChar: S
Encoding: 83 83 52
Width: 565
Flags: W
HStem: -16 70<187.364 393.297> 644 70<180.064 365.281>
VStem: 58 78<454.698 601.329> 449 77<103.578 246.639>
AnchorPoint: "ogonek" 269 0 basechar 0
AnchorPoint: "top" 287 743 basechar 0
LayerCount: 2
Fore
SplineSet
285 314 m 0,0,1
 174 344 174 344 116 392 c 128,-1,2
 58 440 58 440 58 524 c 0,3,4
 58 616 58 616 117 665 c 128,-1,5
 176 714 176 714 283 714 c 0,6,7
 414 714 414 714 506 594 c 1,8,-1
 449 546 l 1,9,10
 376 644 376 644 283 644 c 0,11,12
 205 644 205 644 170.5 615 c 128,-1,13
 136 586 136 586 136 524 c 0,14,15
 136 500 136 500 143.5 481.5 c 128,-1,16
 151 463 151 463 160 452 c 128,-1,17
 169 441 169 441 189.5 430.5 c 128,-1,18
 210 420 210 420 222 415.5 c 128,-1,19
 234 411 234 411 262 402.5 c 128,-1,20
 290 394 290 394 301 390 c 0,21,22
 404 355 404 355 435 337 c 0,23,24
 526 285 526 285 526 174 c 0,25,26
 526 82 526 82 457.5 33 c 128,-1,27
 389 -16 389 -16 269 -16 c 0,28,29
 201 -16 201 -16 137.5 23 c 128,-1,30
 74 62 74 62 32 128 c 1,31,-1
 92 171 l 1,32,33
 123 119 123 119 170.5 86.5 c 128,-1,34
 218 54 218 54 269 54 c 0,35,36
 361 54 361 54 405 83 c 128,-1,37
 449 112 449 112 449 174 c 0,38,39
 449 234 449 234 412 262 c 128,-1,40
 375 290 375 290 285 314 c 0,0,1
EndSplineSet
Validated: 19457
EndChar

StartChar: T
Encoding: 84 84 53
Width: 514
Flags: W
HStem: 0 21G<219 295> 635 63<19 219 295 495>
VStem: 219 76<0 635>
AnchorPoint: "bottom" 258 0 basechar 0
AnchorPoint: "top" 256 743 basechar 0
LayerCount: 2
Fore
SplineSet
19 635 m 1,0,-1
 19 698 l 1,1,-1
 495 698 l 1,2,-1
 495 635 l 1,3,-1
 295 635 l 1,4,-1
 295 0 l 1,5,-1
 219 0 l 1,6,-1
 219 635 l 1,7,-1
 19 635 l 1,0,-1
EndSplineSet
Validated: 19457
EndChar

StartChar: U
Encoding: 85 85 54
Width: 650
Flags: W
HStem: -16 70<240.95 410.698> 678 20G<75 157 495 575>
VStem: 75 82<157.084 698> 495 80<157.084 698>
AnchorPoint: "ogonek" 345 0 basechar 0
AnchorPoint: "bottom" 327 0 basechar 0
AnchorPoint: "top" 326 743 basechar 0
LayerCount: 2
Fore
SplineSet
75 290 m 2,0,-1
 75 698 l 1,1,-1
 157 698 l 1,2,-1
 157 290 l 2,3,4
 157 185 157 185 198 119.5 c 128,-1,5
 239 54 239 54 326 54 c 128,-1,6
 413 54 413 54 454 119.5 c 128,-1,7
 495 185 495 185 495 290 c 2,8,-1
 495 698 l 1,9,-1
 575 698 l 1,10,-1
 575 290 l 2,11,12
 575 143 575 143 509.5 63.5 c 128,-1,13
 444 -16 444 -16 326 -16 c 0,14,15
 207 -16 207 -16 141 63.5 c 128,-1,16
 75 143 75 143 75 290 c 2,0,-1
EndSplineSet
Validated: 19457
EndChar

StartChar: V
Encoding: 86 86 55
Width: 586
Flags: W
HStem: 0 21G<252 335> 678 20G<-1 88.2603 498.705 588>
AnchorPoint: "top" 294 743 basechar 0
AnchorPoint: "bottom" 294 0 basechar 0
LayerCount: 2
Fore
SplineSet
252 1 m 1,0,-1
 -1 698 l 1,1,-1
 81 698 l 1,2,-1
 293 114 l 1,3,-1
 506 698 l 1,4,-1
 588 698 l 1,5,-1
 334 1 l 1,6,-1
 335 0 l 1,7,-1
 252 0 l 1,8,-1
 252 1 l 1,0,-1
EndSplineSet
Validated: 19457
EndChar

StartChar: W
Encoding: 87 87 56
Width: 871
Flags: W
HStem: 0 21G<203.67 293.336 577.628 668.33> 678 20G<23 106.372 390.664 480.382 764.655 849>
AnchorPoint: "bottom" 434 0 basechar 0
AnchorPoint: "top" 437 743 basechar 0
LayerCount: 2
Fore
SplineSet
288 0 m 1,0,-1
 209 0 l 1,1,-1
 23 698 l 1,2,-1
 101 698 l 1,3,-1
 249 147 l 1,4,-1
 396 698 l 1,5,-1
 475 698 l 1,6,-1
 623 148 l 1,7,-1
 770 698 l 1,8,-1
 849 698 l 1,9,-1
 663 0 l 1,10,-1
 583 0 l 1,11,-1
 435 551 l 1,12,-1
 288 0 l 1,0,-1
EndSplineSet
Validated: 19457
EndChar

StartChar: X
Encoding: 88 88 57
Width: 507
Flags: W
HStem: 0 21G<22 118.58 390.348 487> 678 20G<30 126.575 382.349 479>
AnchorPoint: "top" 254 743 basechar 0
AnchorPoint: "bottom" 254 0 basechar 0
LayerCount: 2
Fore
SplineSet
297 357 m 1,0,-1
 487 0 l 1,1,-1
 401 0 l 1,2,-1
 254 276 l 1,3,-1
 108 0 l 1,4,-1
 22 0 l 1,5,-1
 211 357 l 1,6,-1
 30 698 l 1,7,-1
 116 698 l 1,8,-1
 254 437 l 1,9,-1
 393 698 l 1,10,-1
 479 698 l 1,11,-1
 297 357 l 1,0,-1
EndSplineSet
Validated: 19457
EndChar

StartChar: Y
Encoding: 89 89 58
Width: 484
Flags: W
HStem: 0 21G<204 280> 678 20G<0 101.031 384.047 485>
VStem: 204 76<0 355>
AnchorPoint: "ogonek" 258 0 basechar 0
AnchorPoint: "bottom" 244 0 basechar 0
AnchorPoint: "top" 243 743 basechar 0
LayerCount: 2
Fore
SplineSet
243 442 m 1,0,-1
 396 698 l 1,1,-1
 485 698 l 1,2,-1
 280 355 l 1,3,-1
 280 0 l 1,4,-1
 204 0 l 1,5,-1
 204 358 l 1,6,-1
 0 698 l 1,7,-1
 89 698 l 1,8,-1
 243 442 l 1,0,-1
EndSplineSet
Validated: 19457
EndChar

StartChar: Z
Encoding: 90 90 59
Width: 515
Flags: W
HStem: 0 63<126 475> 635 63<39 394>
AnchorPoint: "bottom" 264 0 basechar 0
AnchorPoint: "top" 266 743 basechar 0
LayerCount: 2
Fore
SplineSet
39 635 m 1,0,-1
 39 698 l 1,1,-1
 475 698 l 1,2,-1
 475 622 l 1,3,-1
 126 63 l 1,4,-1
 475 63 l 1,5,-1
 475 0 l 1,6,-1
 39 0 l 1,7,-1
 39 65 l 1,8,-1
 394 635 l 1,9,-1
 39 635 l 1,0,-1
EndSplineSet
Validated: 19457
EndChar

StartChar: bracketleft
Encoding: 91 91 60
Width: 265
Flags: W
HStem: -40 40<145 245> 698 40<145 245>
VStem: 69 76<0 698>
LayerCount: 2
Fore
SplineSet
69 738 m 1,0,-1
 245 738 l 1,1,-1
 245 698 l 1,2,-1
 145 698 l 1,3,-1
 145 0 l 1,4,-1
 245 0 l 1,5,-1
 245 -40 l 1,6,-1
 69 -40 l 1,7,-1
 69 738 l 1,0,-1
EndSplineSet
Validated: 19457
EndChar

StartChar: backslash
Encoding: 92 92 61
Width: 386
Flags: W
HStem: 0 21G<280.722 351> 678 20G<34 104.278>
VStem: 34 317
LayerCount: 2
Fore
SplineSet
34 698 m 1,0,-1
 97 698 l 1,1,-1
 351 0 l 1,2,-1
 288 0 l 1,3,-1
 34 698 l 1,0,-1
EndSplineSet
Validated: 19457
EndChar

StartChar: bracketright
Encoding: 93 93 62
Width: 265
Flags: W
HStem: -40 40<20 121> 698 40<20 121>
VStem: 121 76<0 698>
LayerCount: 2
Fore
SplineSet
197 -40 m 1,0,-1
 20 -40 l 1,1,-1
 20 0 l 1,2,-1
 121 0 l 1,3,-1
 121 698 l 1,4,-1
 20 698 l 1,5,-1
 20 738 l 1,6,-1
 197 738 l 1,7,-1
 197 -40 l 1,0,-1
EndSplineSet
Validated: 19457
EndChar

StartChar: asciicircum
Encoding: 94 94 63
Width: 489
Flags: W
HStem: 195 292
LayerCount: 2
Fore
SplineSet
234 487 m 1,0,-1
 422 237 l 1,1,-1
 364 195 l 1,2,-1
 233 370 l 1,3,-1
 102 195 l 1,4,-1
 46 237 l 1,5,-1
 234 487 l 1,0,-1
EndSplineSet
Validated: 19457
EndChar

StartChar: underscore
Encoding: 95 95 64
Width: 468
Flags: W
HStem: -88 60<0 469>
LayerCount: 2
Fore
SplineSet
0 -28 m 1,0,-1
 469 -28 l 1,1,-1
 469 -88 l 1,2,-1
 0 -88 l 1,3,-1
 0 -28 l 1,0,-1
EndSplineSet
Validated: 19457
EndChar

StartChar: grave
Encoding: 96 96 65
Width: 397
Flags: W
HStem: 581 179
VStem: 60 256
LayerCount: 2
Fore
SplineSet
296 581 m 1,0,-1
 60 700 l 1,1,-1
 95 760 l 1,2,-1
 316 615 l 1,3,-1
 296 581 l 1,0,-1
EndSplineSet
Validated: 19457
EndChar

StartChar: a
Encoding: 97 97 66
Width: 574
Flags: W
HStem: -16 63<194.859 349.351> 0 21G<440 510> 432 64<195.258 348.773> 459 20G<440 510>
VStem: 35 69<146.112 333.781> 440 70<0 62 145.787 333.998 416 479>
AnchorPoint: "ogonek" 492 0 basechar 0
AnchorPoint: "bottom" 274 0 basechar 0
AnchorPoint: "top" 282 581 basechar 0
LayerCount: 2
Fore
SplineSet
35 240 m 128,-1,1
 35 343 35 343 108 419.5 c 128,-1,2
 181 496 181 496 272 496 c 0,3,4
 367 496 367 496 440 416 c 1,5,-1
 440 479 l 1,6,-1
 510 479 l 1,7,-1
 510 0 l 1,8,-1
 440 0 l 1,9,-1
 440 62 l 1,10,11
 368 -16 368 -16 274 -16 c 0,12,13
 183 -16 183 -16 109 60.5 c 128,-1,0
 35 137 35 137 35 240 c 128,-1,1
104 240 m 128,-1,15
 104 161 104 161 154.5 104 c 128,-1,16
 205 47 205 47 272 47 c 128,-1,17
 339 47 339 47 389.5 104 c 128,-1,18
 440 161 440 161 440 240 c 128,-1,19
 440 319 440 319 389.5 375.5 c 128,-1,20
 339 432 339 432 272 432 c 128,-1,21
 205 432 205 432 154.5 375.5 c 128,-1,14
 104 319 104 319 104 240 c 128,-1,15
EndSplineSet
Validated: 19457
EndChar

StartChar: b
Encoding: 98 98 67
Width: 574
Flags: W
HStem: -16 63<224.699 378.397> 0 21G<65 134> 432 64<225.227 378.79> 723 20G<65 134>
VStem: 65 69<0 65 145.787 333.998 416 743> 470 70<145.803 333.781>
AnchorPoint: "bottom" 300 0 basechar 0
AnchorPoint: "top" 105 783 basechar 0
LayerCount: 2
Fore
SplineSet
134 65 m 1,0,-1
 134 0 l 1,1,-1
 65 0 l 1,2,-1
 65 743 l 1,3,-1
 134 743 l 1,4,-1
 134 416 l 1,5,6
 207 496 207 496 302 496 c 0,7,8
 393 496 393 496 466.5 419.5 c 128,-1,9
 540 343 540 343 540 240 c 0,10,11
 540 136 540 136 467.5 60 c 128,-1,12
 395 -16 395 -16 304 -16 c 0,13,14
 209 -16 209 -16 134 65 c 1,0,-1
134 240 m 128,-1,16
 134 161 134 161 184.5 104 c 128,-1,17
 235 47 235 47 302 47 c 128,-1,18
 369 47 369 47 419.5 104 c 128,-1,19
 470 161 470 161 470 240 c 128,-1,20
 470 319 470 319 419.5 375.5 c 128,-1,21
 369 432 369 432 302 432 c 128,-1,22
 235 432 235 432 184.5 375.5 c 128,-1,15
 134 319 134 319 134 240 c 128,-1,16
EndSplineSet
Validated: 19457
EndChar

StartChar: c
Encoding: 99 99 68
Width: 488
Flags: W
HStem: -16 63<194.859 364.892> 432 64<195.258 349.373>
VStem: 35 69<146.112 333.781>
AnchorPoint: "bottom" 273 0 basechar 0
AnchorPoint: "top" 274 581 basechar 0
LayerCount: 2
Fore
SplineSet
465 76 m 1,0,1
 428 30 428 30 384 7 c 128,-1,2
 340 -16 340 -16 274 -16 c 0,3,4
 183 -16 183 -16 109 60.5 c 128,-1,5
 35 137 35 137 35 240 c 128,-1,6
 35 343 35 343 108 419.5 c 128,-1,7
 181 496 181 496 272 496 c 0,8,9
 322 496 322 496 370.5 469.5 c 128,-1,10
 419 443 419 443 454 399 c 1,11,-1
 402 359 l 1,12,13
 350 432 350 432 272 432 c 0,14,15
 205 432 205 432 154.5 375.5 c 128,-1,16
 104 319 104 319 104 240 c 128,-1,17
 104 161 104 161 154.5 104 c 128,-1,18
 205 47 205 47 272 47 c 0,19,20
 325 47 325 47 354.5 63 c 128,-1,21
 384 79 384 79 411 114 c 1,22,-1
 465 76 l 1,0,1
EndSplineSet
Validated: 19457
EndChar

StartChar: d
Encoding: 100 100 69
Width: 574
Flags: W
HStem: -16 63<194.859 349.351> 0 21G<440 510> 432 64<195.258 348.773> 723 20G<440 510>
VStem: 35 69<146.112 333.781> 440 70<0 62 145.787 333.998 416 743>
AnchorPoint: "bottom" 280 0 basechar 0
AnchorPoint: "top" 475 783 basechar 0
LayerCount: 2
Fore
SplineSet
35 240 m 128,-1,1
 35 343 35 343 108 419.5 c 128,-1,2
 181 496 181 496 272 496 c 0,3,4
 367 496 367 496 440 416 c 1,5,-1
 440 743 l 1,6,-1
 510 743 l 1,7,-1
 510 0 l 1,8,-1
 440 0 l 1,9,-1
 440 62 l 1,10,11
 368 -16 368 -16 274 -16 c 0,12,13
 183 -16 183 -16 109 60.5 c 128,-1,0
 35 137 35 137 35 240 c 128,-1,1
104 240 m 128,-1,15
 104 161 104 161 154.5 104 c 128,-1,16
 205 47 205 47 272 47 c 128,-1,17
 339 47 339 47 389.5 104 c 128,-1,18
 440 161 440 161 440 240 c 128,-1,19
 440 319 440 319 389.5 375.5 c 128,-1,20
 339 432 339 432 272 432 c 128,-1,21
 205 432 205 432 154.5 375.5 c 128,-1,14
 104 319 104 319 104 240 c 128,-1,15
EndSplineSet
Validated: 19457
EndChar

StartChar: e
Encoding: 101 101 70
Width: 538
Flags: W
HStem: -16 63<194.859 380.992> 240 63<115 430> 432 64<195.879 348.321>
VStem: 35 69<146.436 240>
AnchorPoint: "ogonek" 278 0 basechar 0
AnchorPoint: "bottom" 284 0 basechar 0
AnchorPoint: "top" 272 581 basechar 0
LayerCount: 2
Fore
SplineSet
104 240 m 1,0,1
 104 161 104 161 154.5 104 c 128,-1,2
 205 47 205 47 272 47 c 0,3,4
 345 47 345 47 378.5 67.5 c 128,-1,5
 412 88 412 88 439 134 c 1,6,-1
 495 97 l 1,7,8
 458 40 458 40 409 12 c 128,-1,9
 360 -16 360 -16 274 -16 c 0,10,11
 183 -16 183 -16 109 60.5 c 128,-1,12
 35 137 35 137 35 240 c 128,-1,13
 35 343 35 343 108 419.5 c 128,-1,14
 181 496 181 496 272 496 c 128,-1,15
 363 496 363 496 436.5 419.5 c 128,-1,16
 510 343 510 343 510 240 c 1,17,-1
 104 240 l 1,0,1
115 303 m 1,18,-1
 430 303 l 1,19,20
 412 360 412 360 368 396 c 128,-1,21
 324 432 324 432 272 432 c 128,-1,22
 220 432 220 432 176.5 396 c 128,-1,23
 133 360 133 360 115 303 c 1,18,-1
EndSplineSet
Validated: 19457
EndChar

StartChar: f
Encoding: 102 102 71
Width: 282
Flags: W
HStem: 0 21G<90 160> 416 63<29 90 160 270> 696 64<187.242 270>
VStem: 90 70<0 416 479 668.05>
AnchorPoint: "top" 166 787 basechar 0
AnchorPoint: "bottom" 127 0 basechar 0
LayerCount: 2
Fore
SplineSet
270 696 m 1,0,-1
 242 696 l 2,1,2
 207 696 207 696 183.5 670 c 128,-1,3
 160 644 160 644 160 608 c 2,4,-1
 160 479 l 1,5,-1
 270 479 l 1,6,-1
 270 416 l 1,7,-1
 160 416 l 1,8,-1
 160 0 l 1,9,-1
 90 0 l 1,10,-1
 90 416 l 1,11,-1
 29 416 l 1,12,-1
 29 479 l 1,13,-1
 90 479 l 1,14,-1
 90 608 l 2,15,16
 90 671 90 671 134.5 715.5 c 128,-1,17
 179 760 179 760 242 760 c 2,18,-1
 270 760 l 1,19,-1
 270 696 l 1,0,-1
EndSplineSet
Validated: 19457
EndChar

StartChar: g
Encoding: 103 103 72
Width: 574
Flags: W
HStem: -205 64<141 380.541> -16 63<194.859 349.351> 432 64<195.258 348.773> 459 20G<440 510>
VStem: 35 69<146.112 333.781> 440 70<-79.4557 62 145.787 333.998 416 479>
AnchorPoint: "bottom" 274 0 basechar 0
AnchorPoint: "top" 272 581 basechar 0
LayerCount: 2
Fore
SplineSet
35 240 m 128,-1,1
 35 343 35 343 108 419.5 c 128,-1,2
 181 496 181 496 272 496 c 0,3,4
 367 496 367 496 440 416 c 1,5,-1
 440 479 l 1,6,-1
 510 479 l 1,7,-1
 510 18 l 2,8,9
 510 -94 510 -94 452.5 -149.5 c 128,-1,10
 395 -205 395 -205 299 -205 c 2,11,-1
 141 -205 l 1,12,-1
 141 -141 l 1,13,-1
 299 -141 l 2,14,15
 366 -141 366 -141 403 -100.5 c 128,-1,16
 440 -60 440 -60 440 18 c 2,17,-1
 440 62 l 1,18,19
 368 -16 368 -16 274 -16 c 0,20,21
 183 -16 183 -16 109 60.5 c 128,-1,0
 35 137 35 137 35 240 c 128,-1,1
104 240 m 128,-1,23
 104 161 104 161 154.5 104 c 128,-1,24
 205 47 205 47 272 47 c 128,-1,25
 339 47 339 47 389.5 104 c 128,-1,26
 440 161 440 161 440 240 c 128,-1,27
 440 319 440 319 389.5 375.5 c 128,-1,28
 339 432 339 432 272 432 c 128,-1,29
 205 432 205 432 154.5 375.5 c 128,-1,22
 104 319 104 319 104 240 c 128,-1,23
EndSplineSet
Validated: 19457
EndChar

StartChar: h
Encoding: 104 104 73
Width: 547
Flags: W
HStem: 0 21G<65 134 419 488> 432 64<205.737 359.819> 723 20G<65 134>
VStem: 65 69<0 347.812 435 743> 419 69<0 374.381>
AnchorPoint: "bottom" 278 0 basechar 0
AnchorPoint: "top" 114 783 basechar 0
LayerCount: 2
Fore
SplineSet
488 303 m 2,0,-1
 488 0 l 1,1,-1
 419 0 l 1,2,-1
 419 303 l 2,3,4
 419 357 419 357 379.5 394.5 c 128,-1,5
 340 432 340 432 276 432 c 128,-1,6
 212 432 212 432 173 377 c 128,-1,7
 134 322 134 322 134 240 c 2,8,-1
 134 0 l 1,9,-1
 65 0 l 1,10,-1
 65 743 l 1,11,-1
 134 743 l 1,12,-1
 134 435 l 1,13,14
 193 496 193 496 276 496 c 0,15,16
 368 496 368 496 428 444.5 c 128,-1,17
 488 393 488 393 488 303 c 2,0,-1
EndSplineSet
Validated: 19457
EndChar

StartChar: i
Encoding: 105 105 74
Width: 198
Flags: W
HStem: 0 21G<65 134> 459 20G<65 134> 572 111<60.5017 137.983>
VStem: 44 111<589.017 666.498> 65 69<0 479>
AnchorPoint: "bottom" 104 0 basechar 0
AnchorPoint: "ogonek" 119 0 basechar 0
LayerCount: 2
Fore
SplineSet
44 628 m 128,-1,1
 44 651 44 651 60 667 c 128,-1,2
 76 683 76 683 99 683 c 128,-1,3
 122 683 122 683 138.5 667 c 128,-1,4
 155 651 155 651 155 628 c 128,-1,5
 155 605 155 605 138.5 588.5 c 128,-1,6
 122 572 122 572 99 572 c 128,-1,7
 76 572 76 572 60 588.5 c 128,-1,0
 44 605 44 605 44 628 c 128,-1,1
65 0 m 1,8,-1
 65 479 l 1,9,-1
 134 479 l 1,10,-1
 134 0 l 1,11,-1
 65 0 l 1,8,-1
EndSplineSet
Validated: 19457
EndChar

StartChar: j
Encoding: 106 106 75
Width: 198
Flags: W
HStem: -205 64<-46 37.7579> 459 20G<65 134> 572 111<60.5017 137.983>
VStem: 44 111<589.017 666.498> 65 69<-113.05 479>
LayerCount: 2
Fore
SplineSet
44 628 m 128,-1,1
 44 651 44 651 60 667 c 128,-1,2
 76 683 76 683 99 683 c 128,-1,3
 122 683 122 683 138.5 667 c 128,-1,4
 155 651 155 651 155 628 c 128,-1,5
 155 605 155 605 138.5 588.5 c 128,-1,6
 122 572 122 572 99 572 c 128,-1,7
 76 572 76 572 60 588.5 c 128,-1,0
 44 605 44 605 44 628 c 128,-1,1
-46 -141 m 1,8,-1
 -17 -141 l 2,9,10
 18 -141 18 -141 41.5 -115 c 128,-1,11
 65 -89 65 -89 65 -53 c 2,12,-1
 65 479 l 1,13,-1
 134 479 l 1,14,-1
 134 -53 l 2,15,16
 134 -116 134 -116 90 -160.5 c 128,-1,17
 46 -205 46 -205 -17 -205 c 2,18,-1
 -46 -205 l 1,19,-1
 -46 -141 l 1,8,-1
EndSplineSet
Validated: 19457
EndChar

StartChar: k
Encoding: 107 107 76
Width: 446
Flags: W
HStem: 0 21G<65 134 339.612 438> 459 20G<304 424> 723 20G<65 134>
VStem: 65 69<0 190 289 743>
AnchorPoint: "top" 106 783 basechar 0
AnchorPoint: "bottom" 250 0 basechar 0
LayerCount: 2
Fore
SplineSet
65 0 m 1,0,-1
 65 743 l 1,1,-1
 134 743 l 1,2,-1
 134 289 l 1,3,-1
 324 479 l 1,4,-1
 424 479 l 1,5,-1
 240 295 l 1,6,-1
 438 0 l 1,7,-1
 353 0 l 1,8,-1
 189 245 l 1,9,-1
 134 190 l 1,10,-1
 134 0 l 1,11,-1
 65 0 l 1,0,-1
EndSplineSet
Validated: 19457
EndChar

StartChar: l
Encoding: 108 108 77
Width: 208
Flags: W
HStem: 0 21G<70 139> 723 20G<70 139>
VStem: 70 69<0 743>
AnchorPoint: "bottom" 105 0 basechar 0
AnchorPoint: "top" 105 783 basechar 0
LayerCount: 2
Fore
SplineSet
70 0 m 1,0,-1
 70 743 l 1,1,-1
 139 743 l 1,2,-1
 139 0 l 1,3,-1
 70 0 l 1,0,-1
EndSplineSet
Validated: 19457
EndChar

StartChar: m
Encoding: 109 109 78
Width: 788
Flags: W
HStem: 0 21G<65 134 362 431 659 728> 432 64<190.928 314.11 487.927 610.382> 459 20G<65 134>
VStem: 65 69<0 359.153 443 479> 362 69<0 359.153> 659 69<0 379.921>
CounterMasks: 1 1c
AnchorPoint: "bottom" 395 0 basechar 0
AnchorPoint: "top" 398 581 basechar 0
LayerCount: 2
Fore
SplineSet
728 303 m 2,0,-1
 728 0 l 1,1,-1
 659 0 l 1,2,-1
 659 303 l 2,3,4
 659 357 659 357 627 394.5 c 128,-1,5
 595 432 595 432 544 432 c 128,-1,6
 493 432 493 432 462 377 c 128,-1,7
 431 322 431 322 431 240 c 2,8,-1
 431 0 l 1,9,-1
 362 0 l 1,10,-1
 362 303 l 2,11,12
 362 357 362 357 330 394.5 c 128,-1,13
 298 432 298 432 247 432 c 128,-1,14
 196 432 196 432 165 377 c 128,-1,15
 134 322 134 322 134 240 c 2,16,-1
 134 0 l 1,17,-1
 65 0 l 1,18,-1
 65 479 l 1,19,-1
 134 479 l 1,20,-1
 134 443 l 1,21,22
 184 496 184 496 247 496 c 0,23,24
 295 496 295 496 337 473 c 128,-1,25
 379 450 379 450 404 408 c 1,26,27
 429 450 429 450 466.5 473 c 128,-1,28
 504 496 504 496 544 496 c 0,29,30
 619 496 619 496 673.5 443.5 c 128,-1,31
 728 391 728 391 728 303 c 2,0,-1
EndSplineSet
Validated: 19457
EndChar

StartChar: n
Encoding: 110 110 79
Width: 547
Flags: W
HStem: 0 21G<65 134 419 488> 432 64<205.49 359.819> 459 20G<65 134>
VStem: 65 69<0 347.812 436 479> 419 69<0 374.381>
AnchorPoint: "bottom" 277 0 basechar 0
AnchorPoint: "top" 281 581 basechar 0
LayerCount: 2
Fore
SplineSet
488 303 m 2,0,-1
 488 0 l 1,1,-1
 419 0 l 1,2,-1
 419 303 l 2,3,4
 419 357 419 357 379.5 394.5 c 128,-1,5
 340 432 340 432 276 432 c 128,-1,6
 212 432 212 432 173 377 c 128,-1,7
 134 322 134 322 134 240 c 2,8,-1
 134 0 l 1,9,-1
 65 0 l 1,10,-1
 65 479 l 1,11,-1
 134 479 l 1,12,-1
 134 436 l 1,13,14
 192 496 192 496 276 496 c 0,15,16
 368 496 368 496 428 444.5 c 128,-1,17
 488 393 488 393 488 303 c 2,0,-1
EndSplineSet
Validated: 19457
EndChar

StartChar: o
Encoding: 111 111 80
Width: 544
Flags: W
HStem: -16 63<194.859 348.397> 432 64<195.258 348.79>
VStem: 35 69<146.112 333.781> 440 70<145.803 333.781>
AnchorPoint: "ogonek" 276 0 basechar 0
AnchorPoint: "bottom" 275 0 basechar 0
AnchorPoint: "top" 272 581 basechar 0
LayerCount: 2
Fore
SplineSet
104 240 m 128,-1,1
 104 161 104 161 154.5 104 c 128,-1,2
 205 47 205 47 272 47 c 128,-1,3
 339 47 339 47 389.5 104 c 128,-1,4
 440 161 440 161 440 240 c 128,-1,5
 440 319 440 319 389.5 375.5 c 128,-1,6
 339 432 339 432 272 432 c 128,-1,7
 205 432 205 432 154.5 375.5 c 128,-1,0
 104 319 104 319 104 240 c 128,-1,1
35 240 m 128,-1,9
 35 343 35 343 108 419.5 c 128,-1,10
 181 496 181 496 272 496 c 128,-1,11
 363 496 363 496 436.5 419.5 c 128,-1,12
 510 343 510 343 510 240 c 0,13,14
 510 136 510 136 437.5 60 c 128,-1,15
 365 -16 365 -16 274 -16 c 128,-1,16
 183 -16 183 -16 109 60.5 c 128,-1,8
 35 137 35 137 35 240 c 128,-1,9
EndSplineSet
Validated: 19457
EndChar

StartChar: p
Encoding: 112 112 81
Width: 574
Flags: W
HStem: -204 21G<65 134> -16 63<224.699 378.397> 432 64<225.227 378.79> 459 20G<65 134>
VStem: 65 69<-204 65 145.787 333.998 416 479> 470 70<145.803 333.781>
AnchorPoint: "top" 302 581 basechar 0
AnchorPoint: "bottom" 305 0 basechar 0
LayerCount: 2
Fore
SplineSet
134 65 m 1,0,-1
 134 -204 l 1,1,-1
 65 -204 l 1,2,-1
 65 479 l 1,3,-1
 134 479 l 1,4,-1
 134 416 l 1,5,6
 207 496 207 496 302 496 c 0,7,8
 393 496 393 496 466.5 419.5 c 128,-1,9
 540 343 540 343 540 240 c 0,10,11
 540 136 540 136 467.5 60 c 128,-1,12
 395 -16 395 -16 304 -16 c 0,13,14
 209 -16 209 -16 134 65 c 1,0,-1
134 240 m 128,-1,16
 134 161 134 161 184.5 104 c 128,-1,17
 235 47 235 47 302 47 c 128,-1,18
 369 47 369 47 419.5 104 c 128,-1,19
 470 161 470 161 470 240 c 128,-1,20
 470 319 470 319 419.5 375.5 c 128,-1,21
 369 432 369 432 302 432 c 128,-1,22
 235 432 235 432 184.5 375.5 c 128,-1,15
 134 319 134 319 134 240 c 128,-1,16
EndSplineSet
Validated: 19457
EndChar

StartChar: q
Encoding: 113 113 82
Width: 574
Flags: W
HStem: -205 21G<440 510> -16 63<194.859 349.351> 432 64<195.258 348.773> 459 20G<440 510>
VStem: 35 69<146.112 333.781> 440 70<-205 62 145.787 333.998 416 479>
LayerCount: 2
Fore
SplineSet
35 240 m 128,-1,1
 35 343 35 343 108 419.5 c 128,-1,2
 181 496 181 496 272 496 c 0,3,4
 367 496 367 496 440 416 c 1,5,-1
 440 479 l 1,6,-1
 510 479 l 1,7,-1
 510 -205 l 1,8,-1
 440 -205 l 1,9,-1
 440 62 l 1,10,11
 368 -16 368 -16 274 -16 c 0,12,13
 183 -16 183 -16 109 60.5 c 128,-1,0
 35 137 35 137 35 240 c 128,-1,1
104 240 m 128,-1,15
 104 161 104 161 154.5 104 c 128,-1,16
 205 47 205 47 272 47 c 128,-1,17
 339 47 339 47 389.5 104 c 128,-1,18
 440 161 440 161 440 240 c 128,-1,19
 440 319 440 319 389.5 375.5 c 128,-1,20
 339 432 339 432 272 432 c 128,-1,21
 205 432 205 432 154.5 375.5 c 128,-1,14
 104 319 104 319 104 240 c 128,-1,15
EndSplineSet
Validated: 19457
EndChar

StartChar: r
Encoding: 114 114 83
Width: 445
Flags: W
HStem: 0 21G<65 134> 432 64<196.773 340.577> 459 20G<65 134>
VStem: 65 69<0 354.825 441 479>
AnchorPoint: "bottom" 100 0 basechar 0
AnchorPoint: "top" 251 581 basechar 0
LayerCount: 2
Fore
SplineSet
384 352 m 1,0,1
 352 432 352 432 266 432 c 0,2,3
 203 432 203 432 168.5 378 c 128,-1,4
 134 324 134 324 134 240 c 2,5,-1
 134 0 l 1,6,-1
 65 0 l 1,7,-1
 65 479 l 1,8,-1
 134 479 l 1,9,-1
 134 441 l 1,10,11
 189 496 189 496 266 496 c 0,12,13
 399 496 399 496 447 383 c 1,14,-1
 384 352 l 1,0,1
EndSplineSet
Validated: 19457
EndChar

StartChar: s
Encoding: 115 115 84
Width: 475
Flags: W
HStem: -16 64<143.324 327.196> 432 64<152.545 322.314>
VStem: 45 71<305.325 398.812> 374 69<87.1577 175.356>
AnchorPoint: "bottom" 226 0 basechar 0
AnchorPoint: "top" 246 581 basechar 0
LayerCount: 2
Fore
SplineSet
246 206 m 0,0,1
 243 207 243 207 223.5 210.5 c 128,-1,2
 204 214 204 214 197.5 215.5 c 128,-1,3
 191 217 191 217 171.5 221.5 c 128,-1,4
 152 226 152 226 144 229.5 c 128,-1,5
 136 233 136 233 119.5 240 c 128,-1,6
 103 247 103 247 95 253.5 c 128,-1,7
 87 260 87 260 75.5 269.5 c 128,-1,8
 64 279 64 279 58.5 290 c 128,-1,9
 53 301 53 301 49 315 c 128,-1,10
 45 329 45 329 45 345 c 0,11,12
 45 415 45 415 101.5 455.5 c 128,-1,13
 158 496 158 496 248 496 c 0,14,15
 380 496 380 496 428 383 c 1,16,-1
 366 352 l 1,17,18
 334 432 334 432 248 432 c 0,19,20
 184 432 184 432 150 408.5 c 128,-1,21
 116 385 116 385 116 345 c 0,22,23
 116 336 116 336 118.5 329 c 128,-1,24
 121 322 121 322 126.5 316 c 128,-1,25
 132 310 132 310 138 305.5 c 128,-1,26
 144 301 144 301 153.5 297.5 c 128,-1,27
 163 294 163 294 170.5 291.5 c 128,-1,28
 178 289 178 289 190.5 286.5 c 128,-1,29
 203 284 203 284 210.5 282.5 c 128,-1,30
 218 281 218 281 232 279 c 128,-1,31
 246 277 246 277 252 276 c 0,32,33
 290 270 290 270 318 262 c 128,-1,34
 346 254 346 254 377.5 238.5 c 128,-1,35
 409 223 409 223 426 197 c 128,-1,36
 443 171 443 171 443 135 c 0,37,38
 443 66 443 66 380.5 25 c 128,-1,39
 318 -16 318 -16 226 -16 c 0,40,41
 158 -16 158 -16 106 13.5 c 128,-1,42
 54 43 54 43 31 97 c 1,43,-1
 93 128 l 1,44,45
 108 92 108 92 143 70 c 128,-1,46
 178 48 178 48 226 48 c 0,47,48
 291 48 291 48 332.5 73 c 128,-1,49
 374 98 374 98 374 135 c 0,50,51
 374 146 374 146 370.5 155.5 c 128,-1,52
 367 165 367 165 357.5 171.5 c 128,-1,53
 348 178 348 178 341 182.5 c 128,-1,54
 334 187 334 187 318.5 191 c 128,-1,55
 303 195 303 195 295.5 197 c 128,-1,56
 288 199 288 199 269.5 202 c 128,-1,57
 251 205 251 205 246 206 c 0,0,1
EndSplineSet
Validated: 19457
EndChar

StartChar: t
Encoding: 116 116 85
Width: 282
Flags: W
HStem: 0 21G<90 160> 416 63<29 90 160 270>
VStem: 90 70<0 416 479 638>
AnchorPoint: "top" 125 683 basechar 0
AnchorPoint: "bottom" 126 0 basechar 0
LayerCount: 2
Fore
SplineSet
29 416 m 1,0,-1
 29 479 l 1,1,-1
 90 479 l 1,2,-1
 90 638 l 1,3,-1
 160 638 l 1,4,-1
 160 479 l 1,5,-1
 270 479 l 1,6,-1
 270 416 l 1,7,-1
 160 416 l 1,8,-1
 160 0 l 1,9,-1
 90 0 l 1,10,-1
 90 416 l 1,11,-1
 29 416 l 1,0,-1
EndSplineSet
Validated: 19457
EndChar

StartChar: u
Encoding: 117 117 86
Width: 547
Flags: W
HStem: -17 64<187.181 341.263> 0 21G<413 483> 459 20G<59 128 413 483>
VStem: 59 69<104.619 479> 413 70<0 42 131.188 479>
AnchorPoint: "ogonek" 469 0 basechar 0
AnchorPoint: "bottom" 271 0 basechar 0
AnchorPoint: "top" 270 581 basechar 0
LayerCount: 2
Fore
SplineSet
59 176 m 2,0,-1
 59 479 l 1,1,-1
 128 479 l 1,2,-1
 128 176 l 2,3,4
 128 122 128 122 167.5 84.5 c 128,-1,5
 207 47 207 47 271 47 c 128,-1,6
 335 47 335 47 374 102 c 128,-1,7
 413 157 413 157 413 239 c 2,8,-1
 413 479 l 1,9,-1
 483 479 l 1,10,-1
 483 0 l 1,11,-1
 413 0 l 1,12,-1
 413 42 l 1,13,14
 354 -17 354 -17 271 -17 c 0,15,16
 179 -17 179 -17 119 34.5 c 128,-1,17
 59 86 59 86 59 176 c 2,0,-1
EndSplineSet
Validated: 19457
EndChar

StartChar: v
Encoding: 118 118 87
Width: 466
Flags: W
HStem: 0 21G<186.9 279.142> 459 20G<1 85.0206 381.928 466>
AnchorPoint: "top" 234 581 basechar 0
AnchorPoint: "bottom" 234 0 basechar 0
LayerCount: 2
Fore
SplineSet
195 0 m 1,0,-1
 1 479 l 1,1,-1
 77 479 l 1,2,-1
 233 90 l 1,3,-1
 390 479 l 1,4,-1
 466 479 l 1,5,-1
 271 0 l 1,6,-1
 195 0 l 1,0,-1
EndSplineSet
Validated: 19457
EndChar

StartChar: w
Encoding: 119 119 88
Width: 736
Flags: W
HStem: 0 21G<165.486 256.519 479.481 570.514> 459 20G<16 96.4533 325.547 409.471 639.476 720>
AnchorPoint: "bottom" 369 0 basechar 0
AnchorPoint: "top" 369 581 basechar 0
LayerCount: 2
Fore
SplineSet
172 0 m 1,0,-1
 16 479 l 1,1,-1
 90 479 l 1,2,-1
 211 104 l 1,3,-1
 332 479 l 1,4,-1
 403 479 l 1,5,-1
 524 105 l 1,6,-1
 646 479 l 1,7,-1
 720 479 l 1,8,-1
 564 0 l 1,9,-1
 486 0 l 1,10,-1
 368 362 l 1,11,-1
 250 0 l 1,12,-1
 172 0 l 1,0,-1
EndSplineSet
Validated: 19457
EndChar

StartChar: x
Encoding: 120 120 89
Width: 424
Flags: W
HStem: 0 21G<15 109.568 314.432 410> 459 20G<28 122.439 301.561 397>
AnchorPoint: "top" 211 581 basechar 0
AnchorPoint: "bottom" 212 0 basechar 0
LayerCount: 2
Fore
SplineSet
171 250 m 1,0,-1
 28 479 l 1,1,-1
 110 479 l 1,2,-1
 212 315 l 1,3,-1
 314 479 l 1,4,-1
 397 479 l 1,5,-1
 254 250 l 1,6,-1
 410 0 l 1,7,-1
 327 0 l 1,8,-1
 212 183 l 1,9,-1
 97 0 l 1,10,-1
 15 0 l 1,11,-1
 171 250 l 1,0,-1
EndSplineSet
Validated: 19457
EndChar

StartChar: y
Encoding: 121 121 90
Width: 466
Flags: W
HStem: -205 21G<114 196.129> 459 20G<1 85.0206 381.928 466>
AnchorPoint: "ogonek" 357 0 basechar 0
AnchorPoint: "bottom" 249 0 basechar 0
AnchorPoint: "top" 231 581 basechar 0
LayerCount: 2
Fore
SplineSet
233 90 m 1,0,-1
 390 479 l 1,1,-1
 466 479 l 1,2,-1
 188 -205 l 1,3,-1
 114 -205 l 1,4,-1
 196 -1 l 1,5,-1
 1 479 l 1,6,-1
 77 479 l 1,7,-1
 233 90 l 1,0,-1
EndSplineSet
Validated: 19457
EndChar

StartChar: z
Encoding: 122 122 91
Width: 430
Flags: W
HStem: 0 63<122 392> 416 63<38 308>
AnchorPoint: "bottom" 219 0 basechar 0
AnchorPoint: "top" 225 581 basechar 0
LayerCount: 2
Fore
SplineSet
38 416 m 1,0,-1
 38 479 l 1,1,-1
 392 479 l 1,2,-1
 392 416 l 1,3,-1
 122 63 l 1,4,-1
 392 63 l 1,5,-1
 392 0 l 1,6,-1
 38 0 l 1,7,-1
 38 63 l 1,8,-1
 308 416 l 1,9,-1
 38 416 l 1,0,-1
EndSplineSet
Validated: 19457
EndChar

StartChar: braceleft
Encoding: 123 123 92
Width: 253
Flags: W
HStem: 694 20G<189.5 217.426>
VStem: 77 74<-10.3251 206.696 439.947 640.299> 94 74<48.3194 262.306 365.504 582.681>
LayerCount: 2
Fore
SplineSet
168 207 m 0,0,1
 168 173 168 173 159.5 119 c 128,-1,2
 151 65 151 65 151 47 c 0,3,4
 151 12 151 12 172.5 -9.5 c 128,-1,5
 194 -31 194 -31 218 -36 c 1,6,-1
 218 -83 l 1,7,8
 163 -75 163 -75 120 -43.5 c 128,-1,9
 77 -12 77 -12 77 48 c 0,10,11
 77 82 77 82 85.5 136.5 c 128,-1,12
 94 191 94 191 94 208 c 0,13,14
 94 236 94 236 72 262 c 128,-1,15
 50 288 50 288 28 292 c 1,16,-1
 28 339 l 1,17,18
 51 343 51 343 76 369 c 128,-1,19
 101 395 101 395 101 423 c 0,20,21
 101 440 101 440 89 494.5 c 128,-1,22
 77 549 77 549 77 583 c 0,23,24
 77 643 77 643 119.5 674.5 c 128,-1,25
 162 706 162 706 217 714 c 1,26,-1
 218 667 l 1,27,28
 194 662 194 662 173 640.5 c 128,-1,29
 152 619 152 619 152 584 c 0,30,31
 152 566 152 566 160.5 512 c 128,-1,32
 169 458 169 458 169 424 c 0,33,34
 169 352 169 352 109 315 c 1,35,36
 168 278 168 278 168 207 c 0,0,1
EndSplineSet
Validated: 19457
EndChar

StartChar: bar
Encoding: 124 124 93
Width: 177
Flags: W
VStem: 68 42<-70 768>
LayerCount: 2
Fore
SplineSet
68 -70 m 1,0,-1
 68 768 l 1,1,-1
 110 768 l 1,2,-1
 110 -70 l 1,3,-1
 68 -70 l 1,0,-1
EndSplineSet
Validated: 19457
EndChar

StartChar: braceright
Encoding: 125 125 94
Width: 253
Flags: W
HStem: 694 20G<36 63.5>
VStem: 85 68<75.1094 258.909 378.316 550.299> 102 75<-10.655 191.053 424.304 641.981>
LayerCount: 2
Fore
SplineSet
86 424 m 0,0,1
 86 458 86 458 94.5 512 c 128,-1,2
 103 566 103 566 103 584 c 0,3,4
 103 619 103 619 81.5 640.5 c 128,-1,5
 60 662 60 662 36 667 c 1,6,-1
 36 714 l 1,7,8
 91 706 91 706 134 674.5 c 128,-1,9
 177 643 177 643 177 583 c 0,10,11
 177 549 177 549 168.5 494.5 c 128,-1,12
 160 440 160 440 160 423 c 0,13,14
 160 395 160 395 182 369 c 128,-1,15
 204 343 204 343 226 339 c 1,16,-1
 226 292 l 1,17,18
 203 288 203 288 178 262 c 128,-1,19
 153 236 153 236 153 208 c 0,20,21
 153 191 153 191 165 136.5 c 128,-1,22
 177 82 177 82 177 48 c 0,23,24
 177 -12 177 -12 134.5 -43.5 c 128,-1,25
 92 -75 92 -75 37 -83 c 1,26,-1
 36 -36 l 1,27,28
 60 -31 60 -31 81 -9.5 c 128,-1,29
 102 12 102 12 102 47 c 0,30,31
 102 65 102 65 93.5 119 c 128,-1,32
 85 173 85 173 85 207 c 0,33,34
 85 278 85 278 145 315 c 1,35,36
 86 352 86 352 86 424 c 0,0,1
EndSplineSet
Validated: 19457
EndChar

StartChar: asciitilde
Encoding: 126 126 95
Width: 517
Flags: W
HStem: 261 68<288.895 396.975> 326 68<128.767 237.105>
LayerCount: 2
Fore
SplineSet
342 329 m 0,0,1
 370 329 370 329 396 350.5 c 128,-1,2
 422 372 422 372 426 394 c 1,3,-1
 473 394 l 1,4,5
 468 348 468 348 427 304.5 c 128,-1,6
 386 261 386 261 342 261 c 0,7,8
 308 261 308 261 254.5 293.5 c 128,-1,9
 201 326 201 326 184 326 c 0,10,11
 156 326 156 326 129.5 304.5 c 128,-1,12
 103 283 103 283 99 261 c 1,13,-1
 53 261 l 1,14,15
 58 307 58 307 99 350.5 c 128,-1,16
 140 394 140 394 184 394 c 0,17,18
 218 394 218 394 271.5 361.5 c 128,-1,19
 325 329 325 329 342 329 c 0,0,1
EndSplineSet
Validated: 19457
EndChar

StartChar: exclamdown
Encoding: 161 161 97
Width: 236
Flags: W
HStem: 487 111<78.5327 156.014>
VStem: 61 111<503.502 580.983> 84 70<-108 420>
LayerCount: 2
Fore
SplineSet
172 542 m 128,-1,1
 172 519 172 519 156.5 503 c 128,-1,2
 141 487 141 487 118 487 c 128,-1,3
 95 487 95 487 78 503 c 128,-1,4
 61 519 61 519 61 542 c 128,-1,5
 61 565 61 565 78 581.5 c 128,-1,6
 95 598 95 598 118 598 c 128,-1,7
 141 598 141 598 156.5 581.5 c 128,-1,0
 172 565 172 565 172 542 c 128,-1,1
154 420 m 1,8,-1
 154 -108 l 1,9,-1
 84 -108 l 1,10,-1
 84 420 l 1,11,-1
 154 420 l 1,8,-1
EndSplineSet
Validated: 19457
EndChar

StartChar: cent
Encoding: 162 162 98
Width: 500
Flags: W
HStem: 0 21G<241 283> 85 63<196.417 241 283 364.469> 534 63<196.417 241 283 347> 678 20G<241 283>
VStem: 34 69<247.025 435.435> 241 42<0 85 152 530 594.587 698>
LayerCount: 2
Fore
SplineSet
241 698 m 1,0,-1
 283 698 l 1,1,-1
 283 597 l 1,2,3
 330 594 330 594 375 568 c 128,-1,4
 420 542 420 542 453 500 c 1,5,-1
 401 460 l 1,6,7
 352 528 352 528 283 534 c 1,8,-1
 283 148 l 1,9,10
 331 149 331 149 357.5 165 c 128,-1,11
 384 181 384 181 410 215 c 1,12,-1
 464 177 l 1,13,14
 428 133 428 133 386.5 109.5 c 128,-1,15
 345 86 345 86 283 85 c 1,16,-1
 283 0 l 1,17,-1
 241 0 l 1,18,-1
 241 88 l 1,19,20
 159 102 159 102 96.5 175 c 128,-1,21
 34 248 34 248 34 341 c 0,22,23
 34 435 34 435 96.5 508.5 c 128,-1,24
 159 582 159 582 241 595 c 1,25,-1
 241 698 l 1,0,-1
241 152 m 1,26,-1
 241 530 l 1,27,28
 183 517 183 517 143 463.5 c 128,-1,29
 103 410 103 410 103 341 c 128,-1,30
 103 272 103 272 143 218.5 c 128,-1,31
 183 165 183 165 241 152 c 1,26,-1
EndSplineSet
Validated: 19457
EndChar

StartChar: sterling
Encoding: 163 163 99
Width: 481
Flags: W
HStem: 0 63<131 445> 332 56<61 130 218 300> 651 63<178.742 314.579>
VStem: 70 75<494.241 618.672> 142 76<200.013 332> 350 76<564 617.562>
LayerCount: 2
Fore
SplineSet
426 564 m 1,0,-1
 350 564 l 1,1,2
 350 601 350 601 318.5 626 c 128,-1,3
 287 651 287 651 248 651 c 0,4,5
 208 651 208 651 176.5 627 c 128,-1,6
 145 603 145 603 145 564 c 0,7,8
 145 539 145 539 174 480 c 128,-1,9
 203 421 203 421 211 388 c 1,10,-1
 300 388 l 1,11,-1
 300 332 l 1,12,-1
 218 332 l 1,13,14
 218 267 218 267 196 200 c 128,-1,15
 174 133 174 133 152 98 c 2,16,-1
 131 63 l 1,17,-1
 445 63 l 1,18,-1
 445 0 l 1,19,-1
 54 0 l 1,20,-1
 54 63 l 1,21,22
 58 67 58 67 63.5 75.5 c 128,-1,23
 69 84 69 84 84.5 111.5 c 128,-1,24
 100 139 100 139 111.5 168.5 c 128,-1,25
 123 198 123 198 132.5 242.5 c 128,-1,26
 142 287 142 287 142 332 c 1,27,-1
 61 332 l 1,28,-1
 61 388 l 1,29,-1
 130 388 l 1,30,31
 124 406 124 406 107 443.5 c 128,-1,32
 90 481 90 481 80 510.5 c 128,-1,33
 70 540 70 540 70 564 c 0,34,35
 70 645 70 645 120 679.5 c 128,-1,36
 170 714 170 714 248 714 c 0,37,38
 319 714 319 714 372.5 669.5 c 128,-1,39
 426 625 426 625 426 564 c 1,0,-1
EndSplineSet
Validated: 19457
EndChar

StartChar: currency
Encoding: 164 164 100
Width: 523
Flags: W
HStem: 117 62<192.128 333.262> 425 62<192.907 333.5>
VStem: 78 62<231.343 372.262> 386 61<231.73 372.27>
LayerCount: 2
Fore
SplineSet
140 302 m 128,-1,1
 140 251 140 251 176 215 c 128,-1,2
 212 179 212 179 263 179 c 128,-1,3
 314 179 314 179 350 215 c 128,-1,4
 386 251 386 251 386 302 c 128,-1,5
 386 353 386 353 350 389 c 128,-1,6
 314 425 314 425 263 425 c 128,-1,7
 212 425 212 425 176 389 c 128,-1,0
 140 353 140 353 140 302 c 128,-1,1
372 152 m 1,8,9
 325 117 325 117 263 117 c 0,10,11
 200 117 200 117 152 154 c 1,12,-1
 91 93 l 1,13,-1
 52 132 l 1,14,-1
 113 194 l 1,15,16
 78 241 78 241 78 302 c 0,17,18
 78 364 78 364 113 411 c 1,19,-1
 52 472 l 1,20,-1
 91 511 l 1,21,-1
 153 451 l 1,22,23
 199 487 199 487 263 487 c 0,24,25
 326 487 326 487 372 453 c 1,26,-1
 431 511 l 1,27,-1
 470 472 l 1,28,-1
 412 413 l 1,29,30
 447 366 447 366 447 302 c 128,-1,31
 447 238 447 238 412 191 c 1,32,-1
 470 132 l 1,33,-1
 431 93 l 1,34,-1
 372 152 l 1,8,9
EndSplineSet
Validated: 19457
EndChar

StartChar: yen
Encoding: 165 165 101
Width: 536
Flags: W
HStem: 0 21G<229 305> 176 50<139 229 305 395> 276 50<139 229 305 395> 678 20G<26 126.953 409.969 511>
VStem: 229 76<0 176 226 276 326 355>
LayerCount: 2
Fore
SplineSet
268 442 m 1,0,-1
 422 698 l 1,1,-1
 511 698 l 1,2,-1
 305 355 l 1,3,-1
 305 326 l 1,4,-1
 395 326 l 1,5,-1
 395 276 l 1,6,-1
 305 276 l 1,7,-1
 305 226 l 1,8,-1
 395 226 l 1,9,-1
 395 176 l 1,10,-1
 305 176 l 1,11,-1
 305 0 l 1,12,-1
 229 0 l 1,13,-1
 229 176 l 1,14,-1
 139 176 l 1,15,-1
 139 226 l 1,16,-1
 229 226 l 1,17,-1
 229 276 l 1,18,-1
 139 276 l 1,19,-1
 139 326 l 1,20,-1
 229 326 l 1,21,-1
 229 358 l 1,22,-1
 26 698 l 1,23,-1
 115 698 l 1,24,-1
 268 442 l 1,0,-1
EndSplineSet
Validated: 19457
EndChar

StartChar: brokenbar
Encoding: 166 166 102
Width: 183
Flags: W
VStem: 71 42<-70 300 398 768>
LayerCount: 2
Fore
SplineSet
71 398 m 1,0,-1
 71 768 l 1,1,-1
 113 768 l 1,2,-1
 113 398 l 1,3,-1
 71 398 l 1,0,-1
71 -70 m 1,4,-1
 71 300 l 1,5,-1
 113 300 l 1,6,-1
 113 -70 l 1,7,-1
 71 -70 l 1,4,-1
EndSplineSet
Validated: 19457
EndChar

StartChar: section
Encoding: 167 167 103
Width: 503
Flags: W
HStem: -80 65<184.368 322.497> 649 65<182.452 319.568>
VStem: 36 69<286.962 401.234> 78 69<510.87 614.76> 356 71<17.5999 123.337> 398 71<230.938 347.228>
LayerCount: 2
Fore
SplineSet
397 164 m 1,0,1
 427 131 427 131 427 77 c 0,2,3
 427 7 427 7 376.5 -36.5 c 128,-1,4
 326 -80 326 -80 242 -80 c 0,5,6
 144 -80 144 -80 89 4 c 1,7,-1
 145 45 l 1,8,9
 162 18 162 18 194.5 1.5 c 128,-1,10
 227 -15 227 -15 257 -15 c 0,11,12
 301 -15 301 -15 328.5 12 c 128,-1,13
 356 39 356 39 356 74 c 0,14,15
 356 99 356 99 342 115 c 128,-1,16
 328 131 328 131 312 137.5 c 128,-1,17
 296 144 296 144 265.5 153 c 128,-1,18
 235 162 235 162 220 168 c 0,19,20
 211 172 211 172 183.5 183 c 128,-1,21
 156 194 156 194 145 199 c 128,-1,22
 134 204 134 204 112 215.5 c 128,-1,23
 90 227 90 227 80 238 c 128,-1,24
 70 249 70 249 58 265 c 128,-1,25
 46 281 46 281 41 301 c 128,-1,26
 36 321 36 321 36 345 c 0,27,28
 36 390 36 390 51.5 416.5 c 128,-1,29
 67 443 67 443 108 470 c 1,30,31
 78 503 78 503 78 557 c 0,32,33
 78 627 78 627 128.5 670.5 c 128,-1,34
 179 714 179 714 262 714 c 0,35,36
 361 714 361 714 416 630 c 1,37,-1
 358 589 l 1,38,39
 341 616 341 616 309 632.5 c 128,-1,40
 277 649 277 649 248 649 c 0,41,42
 204 649 204 649 175.5 621.5 c 128,-1,43
 147 594 147 594 147 560 c 0,44,45
 147 535 147 535 161 519 c 128,-1,46
 175 503 175 503 191.5 496.5 c 128,-1,47
 208 490 208 490 238.5 481 c 128,-1,48
 269 472 269 472 284 466 c 0,49,50
 295 462 295 462 316.5 453 c 128,-1,51
 338 444 338 444 350 439 c 128,-1,52
 362 434 362 434 380.5 424.5 c 128,-1,53
 399 415 399 415 409.5 407 c 128,-1,54
 420 399 420 399 433 386.5 c 128,-1,55
 446 374 446 374 452.5 360.5 c 128,-1,56
 459 347 459 347 464 328.5 c 128,-1,57
 469 310 469 310 469 289 c 0,58,59
 469 244 469 244 453.5 217.5 c 128,-1,60
 438 191 438 191 397 164 c 1,0,1
164 430 m 1,61,62
 129 407 129 407 117 389 c 128,-1,63
 105 371 105 371 105 345 c 0,64,65
 105 321 105 321 114.5 303.5 c 128,-1,66
 124 286 124 286 145.5 273.5 c 128,-1,67
 167 261 167 261 182 255 c 128,-1,68
 197 249 197 249 227 239 c 0,69,70
 237 236 237 236 260 230 c 128,-1,71
 283 224 283 224 303 217.5 c 128,-1,72
 323 211 323 211 340 204 c 1,73,74
 375 226 375 226 386.5 243.5 c 128,-1,75
 398 261 398 261 398 289 c 0,76,77
 398 313 398 313 388.5 330.5 c 128,-1,78
 379 348 379 348 357.5 360.5 c 128,-1,79
 336 373 336 373 321 379 c 128,-1,80
 306 385 306 385 276 395 c 0,81,82
 266 398 266 398 243.5 404 c 128,-1,83
 221 410 221 410 201 416 c 128,-1,84
 181 422 181 422 164 430 c 1,61,62
EndSplineSet
Validated: 19457
EndChar

StartChar: dieresis
Encoding: 168 168 104
Width: 452
Flags: W
HStem: 572 111<76.0172 153.983 275.502 353.467>
VStem: 59 112<589.017 666.498> 259 112<589.017 666.498>
LayerCount: 2
Fore
SplineSet
259 628 m 128,-1,1
 259 651 259 651 275 667 c 128,-1,2
 291 683 291 683 314 683 c 128,-1,3
 337 683 337 683 354 667 c 128,-1,4
 371 651 371 651 371 628 c 128,-1,5
 371 605 371 605 354 588.5 c 128,-1,6
 337 572 337 572 314 572 c 128,-1,7
 291 572 291 572 275 588.5 c 128,-1,0
 259 605 259 605 259 628 c 128,-1,1
59 628 m 128,-1,9
 59 651 59 651 75.5 667 c 128,-1,10
 92 683 92 683 115 683 c 128,-1,11
 138 683 138 683 154.5 667 c 128,-1,12
 171 651 171 651 171 628 c 128,-1,13
 171 605 171 605 154.5 588.5 c 128,-1,14
 138 572 138 572 115 572 c 128,-1,15
 92 572 92 572 75.5 588.5 c 128,-1,8
 59 605 59 605 59 628 c 128,-1,9
EndSplineSet
Validated: 19457
EndChar

StartChar: copyright
Encoding: 169 169 105
Width: 719
Flags: W
HStem: -22 49<251.888 468.389> 115 51<304.337 433.637> 413 52<304.74 422.135> 559 48<249.784 466.573>
VStem: 46 47<183.682 400.454> 201 56<216.131 362.773> 626 48<185.498 402.267>
LayerCount: 2
Fore
SplineSet
499 182 m 1,0,1
 448 115 448 115 365 115 c 0,2,3
 301 115 301 115 251 167.5 c 128,-1,4
 201 220 201 220 201 290 c 0,5,6
 201 362 201 362 251.5 413.5 c 128,-1,7
 302 465 302 465 364 465 c 0,8,9
 440 465 440 465 492 395 c 1,10,-1
 449 362 l 1,11,-1
 445 366 l 1,12,13
 411 413 411 413 364 413 c 0,14,15
 321 413 321 413 289 376 c 128,-1,16
 257 339 257 339 257 290 c 0,17,18
 257 239 257 239 289.5 202.5 c 128,-1,19
 322 166 322 166 364 166 c 0,20,21
 401 166 401 166 419 177 c 128,-1,22
 437 188 437 188 455 213 c 1,23,-1
 499 182 l 1,0,1
46 293 m 0,24,25
 46 424 46 424 138 515.5 c 128,-1,26
 230 607 230 607 359 607 c 0,27,28
 490 607 490 607 582 514.5 c 128,-1,29
 674 422 674 422 674 293 c 0,30,31
 674 162 674 162 581 70 c 128,-1,32
 488 -22 488 -22 359 -22 c 0,33,34
 229 -22 229 -22 137.5 71 c 128,-1,35
 46 164 46 164 46 293 c 0,24,25
93 293 m 0,36,37
 93 181 93 181 171 104 c 128,-1,38
 249 27 249 27 359 27 c 0,39,40
 471 27 471 27 548.5 105 c 128,-1,41
 626 183 626 183 626 293 c 0,42,43
 626 405 626 405 547.5 482 c 128,-1,44
 469 559 469 559 359 559 c 0,45,46
 247 559 247 559 170 481 c 128,-1,47
 93 403 93 403 93 293 c 0,36,37
EndSplineSet
Validated: 19457
EndChar

StartChar: ordfeminine
Encoding: 170 170 106
Width: 422
Flags: W
HStem: 292 52<61 356> 396 48<152.528 264.22> 665 48<151.379 264.021> 683 20G<304 356>
VStem: 61 52<485.568 623.243> 304 52<406 436 486.149 623.594 673 703>
LayerCount: 2
Fore
SplineSet
356 292 m 1,0,-1
 61 292 l 1,1,-1
 61 344 l 1,2,-1
 356 344 l 1,3,-1
 356 292 l 1,0,-1
207 665 m 128,-1,5
 168 665 168 665 140.5 631 c 128,-1,6
 113 597 113 597 113 554 c 128,-1,7
 113 511 113 511 141.5 477.5 c 128,-1,8
 170 444 170 444 209 444 c 128,-1,9
 248 444 248 444 276 478.5 c 128,-1,10
 304 513 304 513 304 556 c 128,-1,11
 304 599 304 599 275 632 c 128,-1,4
 246 665 246 665 207 665 c 128,-1,5
61 555 m 128,-1,13
 61 616 61 616 105.5 664.5 c 128,-1,14
 150 713 150 713 207 713 c 0,15,16
 261 713 261 713 304 673 c 1,17,-1
 304 703 l 1,18,-1
 356 703 l 1,19,-1
 356 406 l 1,20,-1
 304 406 l 1,21,-1
 304 436 l 1,22,23
 261 396 261 396 207 396 c 0,24,25
 149 396 149 396 105 445 c 128,-1,12
 61 494 61 494 61 555 c 128,-1,13
EndSplineSet
Validated: 19457
EndChar

StartChar: guillemotleft
Encoding: 171 171 107
Width: 580
Flags: W
LayerCount: 2
Fore
SplineSet
23 244 m 1,0,-1
 271 432 l 1,1,-1
 313 375 l 1,2,-1
 137 244 l 1,3,-1
 313 112 l 1,4,-1
 271 56 l 1,5,-1
 23 244 l 1,0,-1
243 244 m 1,6,-1
 492 432 l 1,7,-1
 534 375 l 1,8,-1
 357 244 l 1,9,-1
 534 112 l 1,10,-1
 492 56 l 1,11,-1
 243 244 l 1,6,-1
EndSplineSet
Validated: 3073
EndChar

StartChar: logicalnot
Encoding: 172 172 108
Width: 394
Flags: W
HStem: 218 56<67 271>
VStem: 271 57<121 218>
LayerCount: 2
Fore
SplineSet
328 274 m 1,0,-1
 328 121 l 1,1,-1
 271 121 l 1,2,-1
 271 218 l 1,3,-1
 67 218 l 1,4,-1
 67 274 l 1,5,-1
 328 274 l 1,0,-1
EndSplineSet
Validated: 19457
EndChar

StartChar: uni00AD
Encoding: 173 173 109
Width: 340
Flags: W
HStem: 218 56<57 284>
VStem: 57 227<218 274>
LayerCount: 2
Fore
SplineSet
57 274 m 1,0,-1
 284 274 l 1,1,-1
 284 218 l 1,2,-1
 57 218 l 1,3,-1
 57 274 l 1,0,-1
EndSplineSet
Validated: 19457
EndChar

StartChar: registered
Encoding: 174 174 110
Width: 719
Flags: W
HStem: -22 49<251.888 468.389> 256 52<298 370> 409 51<298 407.433> 559 48<249.784 466.573>
VStem: 46 47<183.682 400.454> 242 56<120 256 308 409> 426 55<321.49 395.884> 626 48<185.498 402.267>
LayerCount: 2
Fore
SplineSet
242 120 m 1,0,-1
 242 460 l 1,1,-1
 374 460 l 2,2,3
 416 460 416 460 448.5 431.5 c 128,-1,4
 481 403 481 403 481 358 c 0,5,6
 481 296 481 296 428 269 c 1,7,-1
 517 120 l 1,8,-1
 452 120 l 1,9,-1
 370 256 l 1,10,-1
 298 256 l 1,11,-1
 298 120 l 1,12,-1
 242 120 l 1,0,-1
46 293 m 0,13,14
 46 424 46 424 138 515.5 c 128,-1,15
 230 607 230 607 359 607 c 0,16,17
 490 607 490 607 582 514.5 c 128,-1,18
 674 422 674 422 674 293 c 0,19,20
 674 162 674 162 581 70 c 128,-1,21
 488 -22 488 -22 359 -22 c 0,22,23
 229 -22 229 -22 137.5 71 c 128,-1,24
 46 164 46 164 46 293 c 0,13,14
93 293 m 0,25,26
 93 181 93 181 171 104 c 128,-1,27
 249 27 249 27 359 27 c 0,28,29
 471 27 471 27 548.5 105 c 128,-1,30
 626 183 626 183 626 293 c 0,31,32
 626 405 626 405 547.5 482 c 128,-1,33
 469 559 469 559 359 559 c 0,34,35
 247 559 247 559 170 481 c 128,-1,36
 93 403 93 403 93 293 c 0,25,26
298 409 m 1,37,-1
 298 308 l 1,38,-1
 354 308 l 2,39,40
 393 308 393 308 409.5 323 c 128,-1,41
 426 338 426 338 426 358 c 0,42,43
 426 380 426 380 408 394.5 c 128,-1,44
 390 409 390 409 354 409 c 2,45,-1
 298 409 l 1,37,-1
EndSplineSet
Validated: 19457
EndChar

StartChar: macron
Encoding: 175 175 111
Width: 415
Flags: W
HStem: 600 46<60 334>
VStem: 60 274<600 646>
LayerCount: 2
Fore
SplineSet
60 646 m 1,0,-1
 334 646 l 1,1,-1
 334 600 l 1,2,-1
 60 600 l 1,3,-1
 60 646 l 1,0,-1
EndSplineSet
Validated: 19457
EndChar

StartChar: degree
Encoding: 176 176 112
Width: 349
Flags: W
HStem: 439 55<116.86 231.215> 659 55<118.254 229.817>
VStem: 37 55<519.178 632.759> 256 56<519.178 632.759>
LayerCount: 2
Fore
SplineSet
37 575 m 128,-1,1
 37 632 37 632 77 673 c 128,-1,2
 117 714 117 714 174 714 c 128,-1,3
 231 714 231 714 271.5 673 c 128,-1,4
 312 632 312 632 312 575 c 128,-1,5
 312 518 312 518 271.5 478.5 c 128,-1,6
 231 439 231 439 174 439 c 128,-1,7
 117 439 117 439 77 478.5 c 128,-1,0
 37 518 37 518 37 575 c 128,-1,1
92 575 m 0,8,9
 92 541 92 541 115.5 517.5 c 128,-1,10
 139 494 139 494 174 494 c 128,-1,11
 209 494 209 494 232.5 517.5 c 128,-1,12
 256 541 256 541 256 575 c 0,13,14
 256 610 256 610 232 634.5 c 128,-1,15
 208 659 208 659 174 659 c 128,-1,16
 140 659 140 659 116 634.5 c 128,-1,17
 92 610 92 610 92 575 c 0,8,9
EndSplineSet
Validated: 19457
EndChar

StartChar: plusminus
Encoding: 177 177 113
Width: 502
Flags: W
HStem: 23 56<63 439> 285 56<63 223 280 439> 459 20G<223 280>
VStem: 223 57<147 285 341 479>
LayerCount: 2
Fore
SplineSet
63 23 m 1,0,-1
 63 79 l 1,1,-1
 439 79 l 1,2,-1
 439 23 l 1,3,-1
 63 23 l 1,0,-1
223 285 m 1,4,-1
 63 285 l 1,5,-1
 63 341 l 1,6,-1
 223 341 l 1,7,-1
 223 479 l 1,8,-1
 280 479 l 1,9,-1
 280 341 l 1,10,-1
 439 341 l 1,11,-1
 439 285 l 1,12,-1
 280 285 l 1,13,-1
 280 147 l 1,14,-1
 223 147 l 1,15,-1
 223 285 l 1,4,-1
EndSplineSet
Validated: 19457
EndChar

StartChar: uni00B2
Encoding: 178 178 114
Width: 364
Flags: W
HStem: 264 55<114 314> 650 56<118.759 236.588>
VStem: 250 59<527.174 636.202>
LayerCount: 2
Fore
SplineSet
41 626 m 1,0,1
 73 668 73 668 103 687 c 128,-1,2
 133 706 133 706 175 706 c 0,3,4
 237 706 237 706 273 674 c 128,-1,5
 309 642 309 642 309 585 c 0,6,7
 309 540 309 540 285.5 506.5 c 128,-1,8
 262 473 262 473 204 430 c 0,9,10
 133 376 133 376 114 319 c 1,11,-1
 314 319 l 1,12,-1
 314 264 l 1,13,-1
 48 264 l 1,14,-1
 48 297 l 2,15,16
 48 377 48 377 174 477 c 0,17,18
 216 511 216 511 233 533.5 c 128,-1,19
 250 556 250 556 250 585 c 0,20,21
 250 650 250 650 175 650 c 0,22,23
 155 650 155 650 138 640.5 c 128,-1,24
 121 631 121 631 112 621 c 128,-1,25
 103 611 103 611 86 588 c 1,26,-1
 41 626 l 1,0,1
EndSplineSet
Validated: 19457
EndChar

StartChar: uni00B3
Encoding: 179 179 115
Width: 348
Flags: W
HStem: 260 55<92.6672 230.804> 471 55<120 208.841> 651 55<112.717 220.224>
VStem: 237 59<552.096 634.921> 251 59<335.621 442.126>
LayerCount: 2
Fore
SplineSet
49 642 m 1,0,1
 68 671 68 671 102 688.5 c 128,-1,2
 136 706 136 706 167 706 c 0,3,4
 221 706 221 706 258.5 673.5 c 128,-1,5
 296 641 296 641 296 590 c 0,6,7
 296 541 296 541 234 502 c 1,8,9
 310 462 310 462 310 388 c 0,10,11
 310 325 310 325 262 292.5 c 128,-1,12
 214 260 214 260 153 260 c 0,13,14
 117 260 117 260 82.5 278.5 c 128,-1,15
 48 297 48 297 25 326 c 1,16,-1
 69 361 l 1,17,18
 106 315 106 315 153 315 c 0,19,20
 251 315 251 315 251 388 c 0,21,22
 251 471 251 471 120 471 c 1,23,-1
 120 526 l 1,24,25
 166 526 166 526 201.5 544 c 128,-1,26
 237 562 237 562 237 590 c 0,27,28
 237 617 237 617 218.5 634 c 128,-1,29
 200 651 200 651 167 651 c 0,30,31
 125 651 125 651 93 607 c 1,32,-1
 49 642 l 1,0,1
EndSplineSet
Validated: 19457
EndChar

StartChar: acute
Encoding: 180 180 116
Width: 397
Flags: W
HStem: 581 179
VStem: 59 256
LayerCount: 2
Fore
SplineSet
59 615 m 1,0,-1
 281 760 l 1,1,-1
 315 700 l 1,2,-1
 80 581 l 1,3,-1
 59 615 l 1,0,-1
EndSplineSet
Validated: 19457
EndChar

StartChar: paragraph
Encoding: 182 182 118
Width: 537
Flags: W
HStem: 0 21G<251 328 375 452> 289 65<181.601 251> 634 64<328 375>
VStem: 33 84<414.985 571.139> 251 77<0 291.461 354 632> 375 77<0 634>
LayerCount: 2
Fore
SplineSet
328 0 m 1,0,-1
 251 0 l 1,1,-1
 251 289 l 1,2,3
 160 296 160 296 96.5 348.5 c 128,-1,4
 33 401 33 401 33 493 c 0,5,6
 33 592 33 592 107 645 c 128,-1,7
 181 698 181 698 279 698 c 2,8,-1
 452 698 l 1,9,-1
 452 0 l 1,10,-1
 375 0 l 1,11,-1
 375 634 l 1,12,-1
 328 634 l 1,13,-1
 328 0 l 1,0,-1
251 354 m 1,14,-1
 251 632 l 1,15,16
 191 625 191 625 154 589.5 c 128,-1,17
 117 554 117 554 117 493 c 128,-1,18
 117 432 117 432 154 396.5 c 128,-1,19
 191 361 191 361 251 354 c 1,14,-1
EndSplineSet
Validated: 19457
EndChar

StartChar: periodcentered
Encoding: 183 183 119
Width: 225
Flags: W
HStem: 204 111<74.0172 151.498>
VStem: 57 111<221.017 298.498>
LayerCount: 2
Fore
SplineSet
57 260 m 128,-1,1
 57 283 57 283 73.5 299 c 128,-1,2
 90 315 90 315 113 315 c 128,-1,3
 136 315 136 315 152 299 c 128,-1,4
 168 283 168 283 168 260 c 128,-1,5
 168 237 168 237 152 220.5 c 128,-1,6
 136 204 136 204 113 204 c 128,-1,7
 90 204 90 204 73.5 220.5 c 128,-1,0
 57 237 57 237 57 260 c 128,-1,1
EndSplineSet
Validated: 19457
EndChar

StartChar: cedilla
Encoding: 184 184 120
Width: 353
Flags: W
HStem: -205 28<59 164.81> -105 35<160 195.261> -20 20G<131.667 194>
VStem: 203 66<-156.793 -115.125>
LayerCount: 2
Fore
SplineSet
141 0 m 1,0,-1
 194 0 l 1,1,-1
 160 -70 l 1,2,3
 215 -70 215 -70 242 -88 c 128,-1,4
 269 -106 269 -106 269 -128 c 0,5,6
 269 -205 269 -205 59 -205 c 1,7,-1
 59 -177 l 1,8,9
 110 -177 110 -177 156.5 -165.5 c 128,-1,10
 203 -154 203 -154 203 -134 c 0,11,12
 203 -124 203 -124 195.5 -118 c 128,-1,13
 188 -112 188 -112 163.5 -108.5 c 128,-1,14
 139 -105 139 -105 92 -105 c 1,15,-1
 141 0 l 1,0,-1
EndSplineSet
Validated: 19457
EndChar

StartChar: uni00B9
Encoding: 185 185 121
Width: 227
Flags: W
HStem: 678 20G<99.0723 166>
VStem: 108 58<266 572>
LayerCount: 2
Fore
SplineSet
111 698 m 1,0,-1
 166 698 l 1,1,-1
 166 266 l 1,2,-1
 108 266 l 1,3,-1
 108 572 l 1,4,-1
 49 518 l 1,5,-1
 12 532 l 1,6,-1
 111 698 l 1,0,-1
EndSplineSet
Validated: 19457
EndChar

StartChar: ordmasculine
Encoding: 186 186 122
Width: 417
Flags: W
HStem: 292 52<61 356> 396 48<153.091 264.211> 665 48<151.614 264.012>
VStem: 61 52<485.568 623.243> 304 52<486.141 623.312>
LayerCount: 2
Fore
SplineSet
209 396 m 128,-1,1
 150 396 150 396 105.5 445 c 128,-1,2
 61 494 61 494 61 555 c 128,-1,3
 61 616 61 616 105.5 664.5 c 128,-1,4
 150 713 150 713 209 713 c 128,-1,5
 268 713 268 713 312 664.5 c 128,-1,6
 356 616 356 616 356 555 c 0,7,8
 356 493 356 493 312 444.5 c 128,-1,0
 268 396 268 396 209 396 c 128,-1,1
207 665 m 128,-1,10
 168 665 168 665 140.5 631 c 128,-1,11
 113 597 113 597 113 554 c 128,-1,12
 113 511 113 511 141.5 477.5 c 128,-1,13
 170 444 170 444 209 444 c 128,-1,14
 248 444 248 444 276 478.5 c 128,-1,15
 304 513 304 513 304 556 c 128,-1,16
 304 599 304 599 275 632 c 128,-1,9
 246 665 246 665 207 665 c 128,-1,10
356 292 m 1,17,-1
 61 292 l 1,18,-1
 61 344 l 1,19,-1
 356 344 l 1,20,-1
 356 292 l 1,17,-1
EndSplineSet
Validated: 19457
EndChar

StartChar: guillemotright
Encoding: 187 187 123
Width: 581
Flags: W
LayerCount: 2
Fore
SplineSet
339 244 m 1,0,-1
 90 56 l 1,1,-1
 48 113 l 1,2,-1
 223 244 l 1,3,-1
 48 376 l 1,4,-1
 90 432 l 1,5,-1
 339 244 l 1,0,-1
559 244 m 1,6,-1
 310 56 l 1,7,-1
 268 113 l 1,8,-1
 443 244 l 1,9,-1
 268 376 l 1,10,-1
 310 432 l 1,11,-1
 559 244 l 1,6,-1
EndSplineSet
Validated: 3073
EndChar

StartChar: onequarter
Encoding: 188 188 124
Width: 707
Flags: W
HStem: 0 21G<166 236.278 565 626> 108 59<450 565 626 667> 678 20G<116.193 183 412.722 483>
VStem: 125 58<266 572> 565 61<0 108 167 332>
LayerCount: 2
Fore
SplineSet
483 698 m 1,0,-1
 229 0 l 1,1,-1
 166 0 l 1,2,-1
 420 698 l 1,3,-1
 483 698 l 1,0,-1
128 698 m 1,4,-1
 183 698 l 1,5,-1
 183 266 l 1,6,-1
 125 266 l 1,7,-1
 125 572 l 1,8,-1
 67 518 l 1,9,-1
 30 532 l 1,10,-1
 128 698 l 1,4,-1
565 332 m 1,11,-1
 450 167 l 1,12,-1
 565 167 l 1,13,-1
 565 332 l 1,11,-1
568 432 m 1,14,-1
 626 432 l 1,15,-1
 626 167 l 1,16,-1
 667 167 l 1,17,-1
 667 108 l 1,18,-1
 626 108 l 1,19,-1
 626 0 l 1,20,-1
 565 0 l 1,21,-1
 565 108 l 1,22,-1
 380 108 l 1,23,-1
 380 162 l 1,24,-1
 568 432 l 1,14,-1
EndSplineSet
Validated: 19457
EndChar

StartChar: onehalf
Encoding: 189 189 125
Width: 750
Flags: W
HStem: 0 56<505 706> 386 56<509.759 627.588> 678 20G<116.193 183 412.722 483>
VStem: 125 58<266 572> 641 59<263.174 372.202>
LayerCount: 2
Fore
SplineSet
432 362 m 1,0,1
 464 404 464 404 494 423 c 128,-1,2
 524 442 524 442 566 442 c 0,3,4
 628 442 628 442 664 410 c 128,-1,5
 700 378 700 378 700 321 c 0,6,7
 700 276 700 276 676.5 242.5 c 128,-1,8
 653 209 653 209 595 166 c 0,9,10
 523 112 523 112 505 56 c 1,11,-1
 706 56 l 1,12,-1
 706 0 l 1,13,-1
 439 0 l 1,14,-1
 439 33 l 2,15,16
 439 113 439 113 565 213 c 0,17,18
 607 247 607 247 624 269.5 c 128,-1,19
 641 292 641 292 641 321 c 0,20,21
 641 386 641 386 566 386 c 0,22,23
 546 386 546 386 529 376.5 c 128,-1,24
 512 367 512 367 503 357 c 128,-1,25
 494 347 494 347 477 324 c 1,26,-1
 432 362 l 1,0,1
483 698 m 1,27,-1
 229 0 l 1,28,-1
 166 0 l 1,29,-1
 420 698 l 1,30,-1
 483 698 l 1,27,-1
128 698 m 1,31,-1
 183 698 l 1,32,-1
 183 266 l 1,33,-1
 125 266 l 1,34,-1
 125 572 l 1,35,-1
 67 518 l 1,36,-1
 30 532 l 1,37,-1
 128 698 l 1,31,-1
EndSplineSet
Validated: 19457
EndChar

StartChar: threequarters
Encoding: 190 190 126
Width: 791
Flags: W
HStem: 0 21G<254 324.278 653 714> 108 59<538 653 714 755> 260 55<99.6672 237.804> 471 55<127 215.841> 651 55<119.717 227.224> 678 20G<500.722 571>
VStem: 244 59<552.561 634.921> 258 59<335.621 441.42> 653 61<0 108 167 332>
LayerCount: 2
Fore
SplineSet
56 642 m 1,0,1
 75 671 75 671 109 688.5 c 128,-1,2
 143 706 143 706 174 706 c 0,3,4
 228 706 228 706 265.5 673.5 c 128,-1,5
 303 641 303 641 303 590 c 0,6,7
 303 540 303 540 242 502 c 1,8,9
 317 463 317 463 317 388 c 0,10,11
 317 325 317 325 269 292.5 c 128,-1,12
 221 260 221 260 160 260 c 0,13,14
 124 260 124 260 89.5 278.5 c 128,-1,15
 55 297 55 297 32 326 c 1,16,-1
 76 361 l 1,17,18
 113 315 113 315 160 315 c 0,19,20
 258 315 258 315 258 388 c 0,21,22
 258 471 258 471 127 471 c 1,23,-1
 127 526 l 1,24,25
 173 526 173 526 208.5 544 c 128,-1,26
 244 562 244 562 244 590 c 0,27,28
 244 617 244 617 225.5 634 c 128,-1,29
 207 651 207 651 174 651 c 0,30,31
 132 651 132 651 100 607 c 1,32,-1
 56 642 l 1,0,1
571 698 m 1,33,-1
 317 0 l 1,34,-1
 254 0 l 1,35,-1
 508 698 l 1,36,-1
 571 698 l 1,33,-1
653 332 m 1,37,-1
 538 167 l 1,38,-1
 653 167 l 1,39,-1
 653 332 l 1,37,-1
656 432 m 1,40,-1
 714 432 l 1,41,-1
 714 167 l 1,42,-1
 755 167 l 1,43,-1
 755 108 l 1,44,-1
 714 108 l 1,45,-1
 714 0 l 1,46,-1
 653 0 l 1,47,-1
 653 108 l 1,48,-1
 468 108 l 1,49,-1
 468 162 l 1,50,-1
 656 432 l 1,40,-1
EndSplineSet
Validated: 19457
EndChar

StartChar: questiondown
Encoding: 191 191 127
Width: 472
Flags: W
HStem: -108 64<167.038 325.148> 503 111<219.502 296.498>
VStem: 40 71<12.8306 180.75> 203 110<519.502 596.983> 222 71<345.31 436>
LayerCount: 2
Fore
SplineSet
313 558 m 128,-1,1
 313 535 313 535 297 519 c 128,-1,2
 281 503 281 503 258 503 c 128,-1,3
 235 503 235 503 219 519 c 128,-1,4
 203 535 203 535 203 558 c 128,-1,5
 203 581 203 581 219 597.5 c 128,-1,6
 235 614 235 614 258 614 c 128,-1,7
 281 614 281 614 297 597.5 c 128,-1,0
 313 581 313 581 313 558 c 128,-1,1
442 34 m 1,8,9
 419 -30 419 -30 365 -69 c 128,-1,10
 311 -108 311 -108 249 -108 c 0,11,12
 160 -108 160 -108 100 -51 c 128,-1,13
 40 6 40 6 40 90 c 0,14,15
 40 137 40 137 53.5 173 c 128,-1,16
 67 209 67 209 87 229.5 c 128,-1,17
 107 250 107 250 131 272 c 128,-1,18
 155 294 155 294 175 312.5 c 128,-1,19
 195 331 195 331 208.5 363 c 128,-1,20
 222 395 222 395 222 436 c 1,21,-1
 293 436 l 1,22,23
 293 389 293 389 279.5 353 c 128,-1,24
 266 317 266 317 246 296.5 c 128,-1,25
 226 276 226 276 202 254 c 128,-1,26
 178 232 178 232 158 213.5 c 128,-1,27
 138 195 138 195 124.5 163 c 128,-1,28
 111 131 111 131 111 90 c 0,29,30
 111 32 111 32 148 -6 c 128,-1,31
 185 -44 185 -44 249 -44 c 0,32,33
 295 -44 295 -44 329.5 -18.5 c 128,-1,34
 364 7 364 7 379 54 c 1,35,-1
 442 34 l 1,8,9
EndSplineSet
Validated: 19457
EndChar

StartChar: Agrave
Encoding: 192 192 128
Width: 589
Flags: HW
HStem: 0 21<1 90.2449 500.653 590> 196 63<177 414> 678 20<254 337> 743 179
VStem: 118 256
LayerCount: 2
Back
SplineSet
354.304 742.4 m 1
 118.784 862.208 l 1
 153.6 921.6 l 1
 374.784 777.216 l 1
 354.304 742.4 l 1
335.872 696.32 m 1
 589.824 0 l 1
 507.904 0 l 1
 436.224 195.584 l 1
 153.6 195.584 l 1
 82.9443 0 l 1
 1.02441 0 l 1
 253.952 696.32 l 1
 253.952 698.368 l 1
 336.896 698.368 l 1
 335.872 696.32 l 1
294.912 583.68 m 1
 177.152 259.072 l 1
 413.696 259.072 l 1
 294.912 583.68 l 1
EndSplineSet
Fore
Refer: 436 715 S 1 0 0 1 58 162 2
Refer: 34 65 N 1 0 0 1 0 0 3
Validated: 32769
EndChar

StartChar: Aacute
Encoding: 193 193 129
Width: 589
Flags: HW
HStem: 0 21<1 90.2449 500.653 590> 196 63<177 414> 678 20<254 337> 743 179
VStem: 214 256
LayerCount: 2
Back
SplineSet
214.016 777.216 m 1
 435.2 921.6 l 1
 470.016 862.208 l 1
 234.496 742.4 l 1
 214.016 777.216 l 1
335.872 696.32 m 1
 589.824 0 l 1
 507.904 0 l 1
 436.224 195.584 l 1
 153.6 195.584 l 1
 82.9443 0 l 1
 1.02441 0 l 1
 253.952 696.32 l 1
 253.952 698.368 l 1
 336.896 698.368 l 1
 335.872 696.32 l 1
294.912 583.68 m 1
 177.152 259.072 l 1
 413.696 259.072 l 1
 294.912 583.68 l 1
EndSplineSet
Fore
Refer: 435 714 S 1 0 0 1 154 162 2
Refer: 34 65 N 1 0 0 1 0 0 3
Validated: 32769
EndChar

StartChar: Acircumflex
Encoding: 194 194 130
Width: 589
Flags: HW
HStem: 0 21<1 90.2449 500.653 590> 196 63<177 414> 678 20<254 337> 743 161
VStem: 155 278
LayerCount: 2
Back
SplineSet
175.104 742.4 m 1
 155.648 777.216 l 1
 293.888 904.192 l 1
 433.152 777.216 l 1
 413.696 742.4 l 1
 293.888 821.248 l 1
 175.104 742.4 l 1
335.872 696.32 m 1
 589.824 0 l 1
 507.904 0 l 1
 436.224 195.584 l 1
 153.6 195.584 l 1
 82.9443 0 l 1
 1.02441 0 l 1
 253.952 696.32 l 1
 253.952 698.368 l 1
 336.896 698.368 l 1
 335.872 696.32 l 1
294.912 583.68 m 1
 177.152 259.072 l 1
 413.696 259.072 l 1
 294.912 583.68 l 1
EndSplineSet
Fore
Refer: 433 710 S 1 0 0 1 95 162 2
Refer: 34 65 N 1 0 0 1 0 0 3
Validated: 32769
EndChar

StartChar: Atilde
Encoding: 195 195 131
Width: 589
Flags: HW
HStem: 0 21<1 90.2449 500.653 590> 196 63<177 414> 678 20<254 337> 743 68<315.181 402.731> 808 68<186.996 274.819>
VStem: 119 46<743 785.371> 424 47<832.208 876>
LayerCount: 2
Back
SplineSet
355.328 811.008 m 0x16
 395.264 811.008 418.816 848.896 423.936 875.52 c 1
 471.04 875.52 l 1x0e
 463.872 816.128 415.744 742.4 355.328 742.4 c 0x16
 292.864 742.4 274.432 807.936 235.52 807.936 c 0x0e
 195.584 807.936 171.008 769.024 165.888 742.4 c 1
 119.808 742.4 l 1x16
 126.976 801.792 175.104 875.52 235.52 875.52 c 0x0e
 297.984 875.52 316.416 811.008 355.328 811.008 c 0x16
335.872 696.32 m 1xe0
 589.824 0 l 1
 507.904 0 l 1
 436.224 195.584 l 1
 153.6 195.584 l 1
 82.9443 0 l 1
 1.02441 0 l 1
 253.952 696.32 l 1
 253.952 698.368 l 1
 336.896 698.368 l 1
 335.872 696.32 l 1xe0
294.912 583.68 m 1
 177.152 259.072 l 1
 413.696 259.072 l 1
 294.912 583.68 l 1
EndSplineSet
Fore
Refer: 440 732 N 1 0 0 1 59 162 2
Refer: 34 65 N 1 0 0 1 0 0 3
Validated: 32769
EndChar

StartChar: Adieresis
Encoding: 196 196 132
Width: 589
Flags: W
HStem: 0 21<1 90.2449 500.653 590> 196 63<177 414> 678 20<254 337> 734 111<156.017 233.983 355.502 433.467>
VStem: 139 112<751.017 828.498> 339 112<751.017 828.498>
LayerCount: 2
Back
SplineSet
338.944 789.504 m 0
 338.944 820.224 363.52 844.8 394.24 844.8 c 0
 424.96 844.8 450.56 820.224 450.56 789.504 c 0
 450.56 758.784 424.96 734.208 394.24 734.208 c 0
 363.52 734.208 338.944 758.784 338.944 789.504 c 0
139.264 789.504 m 0
 139.264 820.224 163.84 844.8 194.56 844.8 c 0
 225.28 844.8 250.88 820.224 250.88 789.504 c 0
 250.88 758.784 225.28 734.208 194.56 734.208 c 0
 163.84 734.208 139.264 758.784 139.264 789.504 c 0
335.872 696.32 m 1
 589.824 0 l 1
 507.904 0 l 1
 436.224 195.584 l 1
 153.6 195.584 l 1
 82.9443 0 l 1
 1.02441 0 l 1
 253.952 696.32 l 1
 253.952 698.368 l 1
 336.896 698.368 l 1
 335.872 696.32 l 1
294.912 583.68 m 1
 177.152 259.072 l 1
 413.696 259.072 l 1
 294.912 583.68 l 1
EndSplineSet
Fore
Refer: 104 168 S 1 0 0 1 80 162 2
Refer: 34 65 N 1 0 0 1 0 0 3
Validated: 32769
EndChar

StartChar: Aring
Encoding: 197 197 133
Width: 589
Flags: HW
HStem: 0 21<1 90.2449 500.653 590> 196 63<177 414> 678 20<254 337> 735 51<255.858 332.384> 888 51<255.858 332.384>
VStem: 192 52<798.061 875.939> 345 51<798.616 875.384>
LayerCount: 2
Back
SplineSet
243.712 836.608 m 0
 243.712 808.96 266.24 785.408 293.888 785.408 c 0
 321.536 785.408 345.088 808.96 345.088 836.608 c 0
 345.088 864.256 321.536 887.808 293.888 887.808 c 0
 266.24 887.808 243.712 864.256 243.712 836.608 c 0
192.512 836.608 m 0
 192.512 892.928 237.568 939.008 293.888 939.008 c 0
 350.208 939.008 396.288 892.928 396.288 836.608 c 0
 396.288 780.288 350.208 735.232 293.888 735.232 c 0
 237.568 735.232 192.512 780.288 192.512 836.608 c 0
335.872 696.32 m 1
 589.824 0 l 1
 507.904 0 l 1
 436.224 195.584 l 1
 153.6 195.584 l 1
 82.9443 0 l 1
 1.02441 0 l 1
 253.952 696.32 l 1
 253.952 698.368 l 1
 336.896 698.368 l 1
 335.872 696.32 l 1
294.912 583.68 m 1
 177.152 259.072 l 1
 413.696 259.072 l 1
 294.912 583.68 l 1
EndSplineSet
Fore
Refer: 438 730 N 1 0 0 1 133 162 2
Refer: 34 65 N 1 0 0 1 0 0 3
Validated: 32769
EndChar

StartChar: AE
Encoding: 198 198 134
Width: 790
Flags: W
HStem: 0 63<432 751> 196 63<202 356> 348 63<432 678> 634 64<432 748>
VStem: 356 76<63 196 259 348 411 545>
AnchorPoint: "top" 413 743 basechar 0
LayerCount: 2
Fore
SplineSet
167 196 m 1,0,-1
 61 0 l 1,1,-1
 -20 0 l 1,2,-1
 356 696 l 1,3,-1
 356 698 l 1,4,-1
 748 698 l 1,5,-1
 748 634 l 1,6,-1
 432 634 l 1,7,-1
 432 411 l 1,8,-1
 678 411 l 1,9,-1
 678 348 l 1,10,-1
 432 348 l 1,11,-1
 432 63 l 1,12,-1
 751 63 l 1,13,-1
 751 0 l 1,14,-1
 356 0 l 1,15,-1
 356 196 l 1,16,-1
 167 196 l 1,0,-1
202 259 m 1,17,-1
 356 259 l 1,18,-1
 356 545 l 1,19,-1
 202 259 l 1,17,-1
EndSplineSet
Validated: 19457
EndChar

StartChar: Ccedilla
Encoding: 199 199 135
Width: 588
Flags: W
HStem: -205 28<227 328.514> -105 35<327 362.777> 644 70<247.618 401.078>
VStem: 46 78<211.911 484.171> 370 67<-156.793 -115.125>
LayerCount: 2
Fore
SplineSet
302 -15 m 1,0,1
 194 -2 194 -2 120 103 c 128,-1,2
 46 208 46 208 46 348 c 0,3,4
 46 497 46 497 128.5 605.5 c 128,-1,5
 211 714 211 714 328 714 c 0,6,7
 455 714 455 714 548 570 c 1,8,-1
 487 527 l 1,9,10
 416 644 416 644 328 644 c 0,11,12
 239 644 239 644 181.5 556 c 128,-1,13
 124 468 124 468 124 348 c 128,-1,14
 124 228 124 228 181 141 c 128,-1,15
 238 54 238 54 328 54 c 0,16,17
 424 54 424 54 494 183 c 1,18,-1
 560 147 l 1,19,20
 476 2 476 2 354 -14 c 1,21,-1
 327 -70 l 1,22,23
 382 -70 382 -70 409.5 -88 c 128,-1,24
 437 -106 437 -106 437 -128 c 0,25,26
 437 -205 437 -205 227 -205 c 1,27,-1
 227 -177 l 1,28,29
 278 -177 278 -177 324 -165.5 c 128,-1,30
 370 -154 370 -154 370 -134 c 0,31,32
 370 -124 370 -124 363 -118 c 128,-1,33
 356 -112 356 -112 331.5 -108.5 c 128,-1,34
 307 -105 307 -105 260 -105 c 1,35,-1
 302 -15 l 1,0,1
EndSplineSet
Validated: 19457
EndChar

StartChar: Egrave
Encoding: 200 200 136
Width: 515
Flags: W
HStem: 0 63<158 475> 348 63<158 403> 634 64<158 472> 743 179
VStem: 81 77<63 348 411 634> 116 256
LayerCount: 2
Back
SplineSet
352.256 742.4 m 1x14
 116.736 862.208 l 1
 151.552 921.6 l 1
 372.736 777.216 l 1
 352.256 742.4 l 1x14
80.8965 0 m 1xe8
 80.8965 698.368 l 1
 472.064 698.368 l 1
 472.064 633.856 l 1
 157.696 633.856 l 1
 157.696 410.624 l 1
 403.456 410.624 l 1
 403.456 348.16 l 1
 157.696 348.16 l 1
 157.696 63.4883 l 1
 475.136 63.4883 l 1
 475.136 0 l 1
 80.8965 0 l 1xe8
EndSplineSet
Fore
Refer: 436 715 N 1 0 0 1 56 162 2
Refer: 38 69 N 1 0 0 1 0 0 3
Validated: 32769
EndChar

StartChar: Eacute
Encoding: 201 201 137
Width: 515
Flags: HW
HStem: 0 63<158 475> 348 63<158 403> 634 64<158 472> 743 179
VStem: 81 77<63 348 411 634> 212 256
LayerCount: 2
Back
SplineSet
211.968 777.216 m 1
 433.152 921.6 l 1
 467.968 862.208 l 1
 232.448 742.4 l 1
 211.968 777.216 l 1
80.8965 0 m 1
 80.8965 698.368 l 1
 472.064 698.368 l 1
 472.064 633.856 l 1
 157.696 633.856 l 1
 157.696 410.624 l 1
 403.456 410.624 l 1
 403.456 348.16 l 1
 157.696 348.16 l 1
 157.696 63.4883 l 1
 475.136 63.4883 l 1
 475.136 0 l 1
 80.8965 0 l 1
EndSplineSet
Fore
Refer: 435 714 N 1 0 0 1 152 162 2
Refer: 38 69 N 1 0 0 1 0 0 3
Validated: 32769
EndChar

StartChar: Ecircumflex
Encoding: 202 202 138
Width: 515
Flags: HW
HStem: 0 63<158 475> 348 63<158 403> 634 64<158 472> 743 161
VStem: 81 77<63 348 411 634> 153 278
LayerCount: 2
Back
SplineSet
173.056 742.4 m 1x14
 153.6 777.216 l 1
 291.84 904.192 l 1
 431.104 777.216 l 1
 411.648 742.4 l 1
 291.84 821.248 l 1
 173.056 742.4 l 1x14
80.8965 0 m 1xe8
 80.8965 698.368 l 1
 472.064 698.368 l 1
 472.064 633.856 l 1
 157.696 633.856 l 1
 157.696 410.624 l 1
 403.456 410.624 l 1
 403.456 348.16 l 1
 157.696 348.16 l 1
 157.696 63.4883 l 1
 475.136 63.4883 l 1
 475.136 0 l 1
 80.8965 0 l 1xe8
EndSplineSet
Fore
Refer: 433 710 S 1 0 0 1 93 162 2
Refer: 38 69 N 1 0 0 1 0 0 3
Validated: 32769
EndChar

StartChar: Edieresis
Encoding: 203 203 139
Width: 515
Flags: W
HStem: 0 63<158 475> 348 63<158 403> 634 64<158 472> 734 111<154.017 231.983 353.502 431.467>
VStem: 81 77<63 348 411 634> 137 112<751.017 828.498> 337 112<751.017 828.498>
LayerCount: 2
Back
SplineSet
336.896 789.504 m 0x16
 336.896 820.224 361.472 844.8 392.192 844.8 c 0
 422.912 844.8 448.512 820.224 448.512 789.504 c 0
 448.512 758.784 422.912 734.208 392.192 734.208 c 0
 361.472 734.208 336.896 758.784 336.896 789.504 c 0x16
137.216 789.504 m 0
 137.216 820.224 161.792 844.8 192.512 844.8 c 0
 223.232 844.8 248.832 820.224 248.832 789.504 c 0
 248.832 758.784 223.232 734.208 192.512 734.208 c 0
 161.792 734.208 137.216 758.784 137.216 789.504 c 0
80.8965 0 m 1xe8
 80.8965 698.368 l 1
 472.064 698.368 l 1
 472.064 633.856 l 1
 157.696 633.856 l 1
 157.696 410.624 l 1
 403.456 410.624 l 1
 403.456 348.16 l 1
 157.696 348.16 l 1
 157.696 63.4883 l 1
 475.136 63.4883 l 1
 475.136 0 l 1
 80.8965 0 l 1xe8
EndSplineSet
Fore
Refer: 104 168 N 1 0 0 1 78 162 2
Refer: 38 69 N 1 0 0 1 0 0 3
Validated: 32769
EndChar

StartChar: Igrave
Encoding: 204 204 140
Width: 259
Flags: HW
HStem: 0 68<54 91 168 205> 631 67<54 91 168 205> 743 179
VStem: -45 256 54 151<0 68 631 698>
LayerCount: 2
Back
SplineSet
190.464 742.4 m 1x30
 -45.0557 862.208 l 1
 -10.2402 921.6 l 1
 210.944 777.216 l 1
 190.464 742.4 l 1x30
167.936 630.784 m 1xc8
 167.936 67.584 l 1
 204.8 67.584 l 1
 204.8 0 l 1
 54.2725 0 l 1
 54.2725 67.584 l 1
 91.1357 67.584 l 1
 91.1357 630.784 l 1
 54.2725 630.784 l 1
 54.2725 698.368 l 1
 204.8 698.368 l 1
 204.8 630.784 l 1
 167.936 630.784 l 1xc8
EndSplineSet
Fore
Refer: 436 715 N 1 0 0 1 -105 162 2
Refer: 42 73 N 1 0 0 1 0 0 3
Validated: 32769
EndChar

StartChar: Iacute
Encoding: 205 205 141
Width: 259
Flags: HW
HStem: 0 68<54 91 168 205> 631 67<54 91 168 205> 743 179
VStem: 50 256 54 151<0 68 631 698>
LayerCount: 2
Back
SplineSet
50.1758 777.216 m 1x30
 271.36 921.6 l 1
 306.176 862.208 l 1
 70.6562 742.4 l 1
 50.1758 777.216 l 1x30
167.936 630.784 m 1xc8
 167.936 67.584 l 1
 204.8 67.584 l 1
 204.8 0 l 1
 54.2725 0 l 1
 54.2725 67.584 l 1
 91.1357 67.584 l 1
 91.1357 630.784 l 1
 54.2725 630.784 l 1
 54.2725 698.368 l 1
 204.8 698.368 l 1
 204.8 630.784 l 1
 167.936 630.784 l 1xc8
EndSplineSet
Fore
Refer: 435 714 N 1 0 0 1 -10 162 2
Refer: 42 73 N 1 0 0 1 0 0 3
Validated: 32769
EndChar

StartChar: Icircumflex
Encoding: 206 206 142
Width: 259
Flags: HW
HStem: 0 68<54 91 168 205> 631 67<54 91 168 205> 743 161
VStem: -10 278 54 151<0 68 631 698>
LayerCount: 2
Back
SplineSet
10.2402 742.4 m 1x30
 -9.21582 777.216 l 1
 129.024 904.192 l 1
 268.288 777.216 l 1
 248.832 742.4 l 1
 129.024 821.248 l 1
 10.2402 742.4 l 1x30
167.936 630.784 m 1xc8
 167.936 67.584 l 1
 204.8 67.584 l 1
 204.8 0 l 1
 54.2725 0 l 1
 54.2725 67.584 l 1
 91.1357 67.584 l 1
 91.1357 630.784 l 1
 54.2725 630.784 l 1
 54.2725 698.368 l 1
 204.8 698.368 l 1
 204.8 630.784 l 1
 167.936 630.784 l 1xc8
EndSplineSet
Fore
Refer: 433 710 N 1 0 0 1 -70 162 2
Refer: 42 73 N 1 0 0 1 0 0 3
Validated: 32769
EndChar

StartChar: Idieresis
Encoding: 207 207 143
Width: 259
Flags: W
HStem: 0 68<54 91 168 205> 631 67<54 91 168 205> 734 111<-7.98279 69.9828 191.502 269.467>
VStem: -25 112<751.017 828.498> 54 151<0 68 631 698> 175 112<751.017 828.498>
LayerCount: 2
Back
SplineSet
175.104 789.504 m 0x34
 175.104 820.224 199.68 844.8 230.4 844.8 c 0
 261.12 844.8 286.72 820.224 286.72 789.504 c 0
 286.72 758.784 261.12 734.208 230.4 734.208 c 0
 199.68 734.208 175.104 758.784 175.104 789.504 c 0x34
-24.5762 789.504 m 0
 -24.5762 820.224 0 844.8 30.7197 844.8 c 0
 61.4404 844.8 87.04 820.224 87.04 789.504 c 0
 87.04 758.784 61.4404 734.208 30.7197 734.208 c 0
 0 734.208 -24.5762 758.784 -24.5762 789.504 c 0
167.936 630.784 m 1xc8
 167.936 67.584 l 1
 204.8 67.584 l 1
 204.8 0 l 1
 54.2725 0 l 1
 54.2725 67.584 l 1
 91.1357 67.584 l 1
 91.1357 630.784 l 1
 54.2725 630.784 l 1
 54.2725 698.368 l 1
 204.8 698.368 l 1
 204.8 630.784 l 1
 167.936 630.784 l 1xc8
EndSplineSet
Fore
Refer: 104 168 N 1 0 0 1 -84 162 2
Refer: 42 73 N 1 0 0 1 0 0 3
Validated: 32769
EndChar

StartChar: Eth
Encoding: 208 208 144
Width: 626
Flags: W
HStem: 0 70<160 347.508> 316 64<22 83 160 290> 628 70<160 347.508>
VStem: 83 77<70 316 380 628> 500 81<215.543 481.1>
LayerCount: 2
Fore
SplineSet
160 316 m 1,0,-1
 160 70 l 1,1,-1
 213 70 l 2,2,3
 350 70 350 70 425 138.5 c 128,-1,4
 500 207 500 207 500 348 c 0,5,6
 500 490 500 490 425 559 c 128,-1,7
 350 628 350 628 213 628 c 2,8,-1
 160 628 l 1,9,-1
 160 380 l 1,10,-1
 290 380 l 1,11,-1
 290 316 l 1,12,-1
 160 316 l 1,0,-1
83 316 m 1,13,-1
 22 316 l 1,14,-1
 22 380 l 1,15,-1
 83 380 l 1,16,-1
 83 698 l 1,17,-1
 236 698 l 2,18,19
 304 698 304 698 364.5 677 c 128,-1,20
 425 656 425 656 474 615 c 128,-1,21
 523 574 523 574 552 505 c 128,-1,22
 581 436 581 436 581 348 c 128,-1,23
 581 260 581 260 552 191.5 c 128,-1,24
 523 123 523 123 474 82 c 128,-1,25
 425 41 425 41 364.5 20.5 c 128,-1,26
 304 0 304 0 236 0 c 2,27,-1
 83 0 l 1,28,-1
 83 316 l 1,13,-1
EndSplineSet
Validated: 19457
EndChar

StartChar: Ntilde
Encoding: 209 209 145
Width: 644
Flags: HW
HStem: 0 21<81 158 475.456 563> 678 20<81 169.503 487 563> 743 68<348.181 435.731> 808 68<219.996 307.819>
VStem: 81 77<0 570> 152 46<743 785.371> 457 47<832.208 876> 487 76<126 698>
LayerCount: 2
Back
SplineSet
388.096 811.008 m 0x26
 428.032 811.008 451.584 848.896 456.704 875.52 c 1
 503.808 875.52 l 1x16
 496.64 816.128 448.512 742.4 388.096 742.4 c 0x26
 325.632 742.4 307.2 807.936 268.288 807.936 c 0x16
 228.352 807.936 203.776 769.024 198.656 742.4 c 1
 152.576 742.4 l 1x26
 159.744 801.792 207.872 875.52 268.288 875.52 c 0x16
 330.752 875.52 349.184 811.008 388.096 811.008 c 0x26
80.8965 0 m 1xc9
 80.8965 698.368 l 1
 157.696 698.368 l 1
 487.424 125.952 l 1
 487.424 698.368 l 1
 563.2 698.368 l 1
 563.2 0 l 1
 487.424 0 l 1
 157.696 570.368 l 1
 157.696 0 l 1
 80.8965 0 l 1xc9
EndSplineSet
Fore
Refer: 440 732 S 1 0 0 1 92 162 2
Refer: 47 78 N 1 0 0 1 0 0 3
Validated: 32769
EndChar

StartChar: Ograve
Encoding: 210 210 146
Width: 686
Flags: HW
HStem: -16 70<259.95 426.05> 644 70<259.95 426.05> 743 179
VStem: 43 81<222.465 476.159> 168 256 562 81<222.465 476.159>
LayerCount: 2
Back
SplineSet
403.456 742.4 m 1
 167.936 862.208 l 1
 202.752 921.6 l 1
 423.936 777.216 l 1
 403.456 742.4 l 1
123.904 348.16 m 0
 123.904 194.56 220.16 54.2725 343.04 54.2725 c 0
 465.92 54.2725 562.176 194.56 562.176 348.16 c 0
 562.176 501.76 465.92 644.096 343.04 644.096 c 0
 220.16 644.096 123.904 501.76 123.904 348.16 c 0
43.0078 348.16 m 0
 43.0078 544.768 186.368 713.729 343.04 713.729 c 0
 499.712 713.729 643.072 544.768 643.072 348.16 c 0
 643.072 151.552 499.712 -16.3838 343.04 -16.3838 c 0
 186.368 -16.3838 43.0078 151.552 43.0078 348.16 c 0
EndSplineSet
Fore
Refer: 436 715 N 1 0 0 1 108 162 2
Refer: 48 79 N 1 0 0 1 0 0 3
Validated: 32769
EndChar

StartChar: Oacute
Encoding: 211 211 147
Width: 686
Flags: HW
HStem: -16 70<259.95 426.05> 644 70<259.95 426.05> 743 179
VStem: 43 81<222.465 476.159> 263 256 562 81<222.465 476.159>
LayerCount: 2
Back
SplineSet
263.168 777.216 m 1
 484.352 921.6 l 1
 519.168 862.208 l 1
 283.648 742.4 l 1
 263.168 777.216 l 1
123.904 348.16 m 0
 123.904 194.56 220.16 54.2725 343.04 54.2725 c 0
 465.92 54.2725 562.176 194.56 562.176 348.16 c 0
 562.176 501.76 465.92 644.096 343.04 644.096 c 0
 220.16 644.096 123.904 501.76 123.904 348.16 c 0
43.0078 348.16 m 0
 43.0078 544.768 186.368 713.729 343.04 713.729 c 0
 499.712 713.729 643.072 544.768 643.072 348.16 c 0
 643.072 151.552 499.712 -16.3838 343.04 -16.3838 c 0
 186.368 -16.3838 43.0078 151.552 43.0078 348.16 c 0
EndSplineSet
Fore
Refer: 435 714 N 1 0 0 1 203 162 2
Refer: 48 79 N 1 0 0 1 0 0 3
Validated: 32769
EndChar

StartChar: Ocircumflex
Encoding: 212 212 148
Width: 686
Flags: HW
HStem: -16 70<259.95 426.05> 644 70<259.95 426.05> 743 161
VStem: 43 81<222.465 476.159> 204 278 562 81<222.465 476.159>
CounterMasks: 1 1c
LayerCount: 2
Back
SplineSet
224.256 742.4 m 1
 204.8 777.216 l 1
 343.04 904.192 l 1
 482.304 777.216 l 1
 462.848 742.4 l 1
 343.04 821.248 l 1
 224.256 742.4 l 1
123.904 348.16 m 0
 123.904 194.56 220.16 54.2725 343.04 54.2725 c 0
 465.92 54.2725 562.176 194.56 562.176 348.16 c 0
 562.176 501.76 465.92 644.096 343.04 644.096 c 0
 220.16 644.096 123.904 501.76 123.904 348.16 c 0
43.0078 348.16 m 0
 43.0078 544.768 186.368 713.729 343.04 713.729 c 0
 499.712 713.729 643.072 544.768 643.072 348.16 c 0
 643.072 151.552 499.712 -16.3838 343.04 -16.3838 c 0
 186.368 -16.3838 43.0078 151.552 43.0078 348.16 c 0
EndSplineSet
Fore
Refer: 433 710 S 1 0 0 1 144 162 2
Refer: 48 79 N 1 0 0 1 0 0 3
Validated: 32769
EndChar

StartChar: Otilde
Encoding: 213 213 149
Width: 686
Flags: W
HStem: -16 70<259.95 426.05> 644 70<259.95 426.05> 743 68<365.181 452.731> 808 68<236.996 324.819>
VStem: 43 81<222.465 476.159> 169 46<743 785.371> 474 47<832.208 876> 562 81<222.465 476.159>
LayerCount: 2
Back
SplineSet
404.48 811.008 m 0x26
 444.416 811.008 467.968 848.896 473.088 875.52 c 1
 520.192 875.52 l 1x16
 513.024 816.128 464.896 742.4 404.48 742.4 c 0x26
 342.016 742.4 323.584 807.936 284.672 807.936 c 0x16
 244.736 807.936 220.16 769.024 215.04 742.4 c 1
 168.96 742.4 l 1x26
 176.128 801.792 224.256 875.52 284.672 875.52 c 0x16
 347.136 875.52 365.568 811.008 404.48 811.008 c 0x26
123.904 348.16 m 0xc9
 123.904 194.56 220.16 54.2725 343.04 54.2725 c 0
 465.92 54.2725 562.176 194.56 562.176 348.16 c 0
 562.176 501.76 465.92 644.096 343.04 644.096 c 0
 220.16 644.096 123.904 501.76 123.904 348.16 c 0xc9
43.0078 348.16 m 0
 43.0078 544.768 186.368 713.729 343.04 713.729 c 0
 499.712 713.729 643.072 544.768 643.072 348.16 c 0
 643.072 151.552 499.712 -16.3838 343.04 -16.3838 c 0
 186.368 -16.3838 43.0078 151.552 43.0078 348.16 c 0
EndSplineSet
Fore
Refer: 440 732 S 1 0 0 1 109 162 2
Refer: 48 79 N 1 0 0 1 0 0 3
Validated: 32769
EndChar

StartChar: Odieresis
Encoding: 214 214 150
Width: 686
Flags: W
HStem: -16 70<259.95 426.05> 644 70<259.95 426.05> 734 111<205.017 282.983 404.502 482.467>
VStem: 43 81<222.465 476.159> 188 112<751.017 828.498> 388 112<751.017 828.498> 562 81<222.465 476.159>
LayerCount: 2
Back
SplineSet
388.096 789.504 m 0
 388.096 820.224 412.672 844.8 443.392 844.8 c 0
 474.112 844.8 499.712 820.224 499.712 789.504 c 0
 499.712 758.784 474.112 734.208 443.392 734.208 c 0
 412.672 734.208 388.096 758.784 388.096 789.504 c 0
188.416 789.504 m 0
 188.416 820.224 212.992 844.8 243.712 844.8 c 0
 274.432 844.8 300.032 820.224 300.032 789.504 c 0
 300.032 758.784 274.432 734.208 243.712 734.208 c 0
 212.992 734.208 188.416 758.784 188.416 789.504 c 0
123.904 348.16 m 0
 123.904 194.56 220.16 54.2725 343.04 54.2725 c 0
 465.92 54.2725 562.176 194.56 562.176 348.16 c 0
 562.176 501.76 465.92 644.096 343.04 644.096 c 0
 220.16 644.096 123.904 501.76 123.904 348.16 c 0
43.0078 348.16 m 0
 43.0078 544.768 186.368 713.729 343.04 713.729 c 0
 499.712 713.729 643.072 544.768 643.072 348.16 c 0
 643.072 151.552 499.712 -16.3838 343.04 -16.3838 c 0
 186.368 -16.3838 43.0078 151.552 43.0078 348.16 c 0
EndSplineSet
Fore
Refer: 104 168 N 1 0 0 1 129 162 2
Refer: 48 79 N 1 0 0 1 0 0 3
Validated: 32769
EndChar

StartChar: multiply
Encoding: 215 215 151
Width: 440
Flags: W
HStem: 79 334
VStem: 53 334
LayerCount: 2
Fore
SplineSet
180 246 m 1,0,-1
 53 373 l 1,1,-1
 93 413 l 1,2,-1
 220 286 l 1,3,-1
 347 413 l 1,4,-1
 387 373 l 1,5,-1
 260 246 l 1,6,-1
 387 119 l 1,7,-1
 347 79 l 1,8,-1
 220 206 l 1,9,-1
 93 79 l 1,10,-1
 53 119 l 1,11,-1
 180 246 l 1,0,-1
EndSplineSet
Validated: 19457
EndChar

StartChar: Oslash
Encoding: 216 216 152
Width: 688
Flags: W
HStem: -16 70<260.844 427.05> 0 21G<25 104.579> 644 70<260.95 424.816> 678 20G<581.513 663>
VStem: 44 81<219.679 476.159> 563 81<222.465 475.271>
LayerCount: 2
Fore
SplineSet
519 523 m 1,0,-1
 197 132 l 1,1,2
 260 54 260 54 344 54 c 0,3,4
 435 54 435 54 499 142.5 c 128,-1,5
 563 231 563 231 563 348 c 0,6,7
 563 444 563 444 519 523 c 1,0,-1
489 566 m 1,8,9
 424 644 424 644 344 644 c 0,10,11
 253 644 253 644 189 555 c 128,-1,12
 125 466 125 466 125 348 c 0,13,14
 125 250 125 250 168 175 c 1,15,-1
 489 566 l 1,8,9
44 348 m 0,16,17
 44 495 44 495 134.5 604.5 c 128,-1,18
 225 714 225 714 344 714 c 0,19,20
 452 714 452 714 537 624 c 1,21,-1
 598 698 l 1,22,-1
 663 698 l 1,23,-1
 568 585 l 1,24,25
 644 478 644 478 644 348 c 0,26,27
 644 201 644 201 553.5 92.5 c 128,-1,28
 463 -16 463 -16 344 -16 c 0,29,30
 238 -16 238 -16 151 76 c 1,31,-1
 88 0 l 1,32,-1
 25 0 l 1,33,-1
 119 114 l 1,34,35
 44 217 44 217 44 348 c 0,16,17
EndSplineSet
Validated: 19457
EndChar

StartChar: Ugrave
Encoding: 217 217 153
Width: 650
Flags: HW
HStem: -16 70<240.95 410.698> 678 20<75 157 495 575> 743 179
VStem: 75 82<157.084 698> 149 256 495 80<157.084 698>
LayerCount: 2
Back
SplineSet
385.024 742.4 m 1x28
 149.504 862.208 l 1
 184.32 921.6 l 1
 405.504 777.216 l 1
 385.024 742.4 l 1x28
74.752 289.792 m 2xd4
 74.752 698.368 l 1
 156.672 698.368 l 1
 156.672 289.792 l 2
 156.672 161.792 202.752 54.2725 325.632 54.2725 c 0
 448.512 54.2725 494.592 161.792 494.592 289.792 c 2
 494.592 698.368 l 1
 575.488 698.368 l 1
 575.488 289.792 l 2
 575.488 93.1836 482.304 -16.3838 325.632 -16.3838 c 0
 168.96 -16.3838 74.752 93.1836 74.752 289.792 c 2xd4
EndSplineSet
Fore
Refer: 436 715 N 1 0 0 1 89 162 2
Refer: 54 85 N 1 0 0 1 0 0 3
Validated: 32769
EndChar

StartChar: Uacute
Encoding: 218 218 154
Width: 650
Flags: HW
HStem: -16 70<240.95 410.698> 678 20<75 157 495 575> 743 179
VStem: 75 82<157.084 698> 244 256 495 80<157.084 698>
LayerCount: 2
Back
SplineSet
244.736 777.216 m 1x28
 465.92 921.6 l 1
 500.736 862.208 l 1
 265.216 742.4 l 1
 244.736 777.216 l 1x28
74.752 289.792 m 2xd4
 74.752 698.368 l 1
 156.672 698.368 l 1
 156.672 289.792 l 2
 156.672 161.792 202.752 54.2725 325.632 54.2725 c 0
 448.512 54.2725 494.592 161.792 494.592 289.792 c 2
 494.592 698.368 l 1
 575.488 698.368 l 1
 575.488 289.792 l 2
 575.488 93.1836 482.304 -16.3838 325.632 -16.3838 c 0
 168.96 -16.3838 74.752 93.1836 74.752 289.792 c 2xd4
EndSplineSet
Fore
Refer: 435 714 N 1 0 0 1 184 162 2
Refer: 54 85 N 1 0 0 1 0 0 3
Validated: 32769
EndChar

StartChar: Ucircumflex
Encoding: 219 219 155
Width: 650
Flags: HW
HStem: -16 70<240.95 410.698> 678 20<75 157 495 575> 743 161
VStem: 75 82<157.084 698> 186 278 495 80<157.084 698>
LayerCount: 2
Back
SplineSet
205.824 742.4 m 1
 186.368 777.216 l 1
 324.608 904.192 l 1
 463.872 777.216 l 1
 444.416 742.4 l 1
 324.608 821.248 l 1
 205.824 742.4 l 1
74.752 289.792 m 2
 74.752 698.368 l 1
 156.672 698.368 l 1
 156.672 289.792 l 2
 156.672 161.792 202.752 54.2725 325.632 54.2725 c 0
 448.512 54.2725 494.592 161.792 494.592 289.792 c 2
 494.592 698.368 l 1
 575.488 698.368 l 1
 575.488 289.792 l 2
 575.488 93.1836 482.304 -16.3838 325.632 -16.3838 c 0
 168.96 -16.3838 74.752 93.1836 74.752 289.792 c 2
EndSplineSet
Fore
Refer: 433 710 N 1 0 0 1 126 162 2
Refer: 54 85 N 1 0 0 1 0 0 3
Validated: 32769
EndChar

StartChar: Udieresis
Encoding: 220 220 156
Width: 650
Flags: W
HStem: -16 70<240.95 410.698> 678 20<75 157 495 575> 734 111<187.017 264.983 386.502 464.467>
VStem: 75 82<157.084 698> 170 112<751.017 828.498> 370 112<751.017 828.498> 495 80<157.084 698>
LayerCount: 2
Back
SplineSet
369.664 789.504 m 0
 369.664 820.224 394.24 844.8 424.96 844.8 c 0
 455.68 844.8 481.28 820.224 481.28 789.504 c 0
 481.28 758.784 455.68 734.208 424.96 734.208 c 0
 394.24 734.208 369.664 758.784 369.664 789.504 c 0
169.984 789.504 m 0
 169.984 820.224 194.56 844.8 225.28 844.8 c 0
 256 844.8 281.6 820.224 281.6 789.504 c 0
 281.6 758.784 256 734.208 225.28 734.208 c 0
 194.56 734.208 169.984 758.784 169.984 789.504 c 0
74.752 289.792 m 2
 74.752 698.368 l 1
 156.672 698.368 l 1
 156.672 289.792 l 2
 156.672 161.792 202.752 54.2725 325.632 54.2725 c 0
 448.512 54.2725 494.592 161.792 494.592 289.792 c 2
 494.592 698.368 l 1
 575.488 698.368 l 1
 575.488 289.792 l 2
 575.488 93.1836 482.304 -16.3838 325.632 -16.3838 c 0
 168.96 -16.3838 74.752 93.1836 74.752 289.792 c 2
EndSplineSet
Fore
Refer: 104 168 N 1 0 0 1 111 162 2
Refer: 54 85 N 1 0 0 1 0 0 3
Validated: 32769
EndChar

StartChar: Yacute
Encoding: 221 221 157
Width: 484
Flags: HW
HStem: 0 21<204 280> 678 20<0 101.031 384.047 485> 743 179
VStem: 161 256 204 76<0 355>
LayerCount: 2
Back
SplineSet
161.792 777.216 m 1x30
 382.976 921.6 l 1
 417.792 862.208 l 1
 182.272 742.4 l 1
 161.792 777.216 l 1x30
242.688 442.368 m 1xc8
 396.288 698.368 l 1
 485.376 698.368 l 1
 279.552 355.328 l 1
 279.552 0 l 1
 203.776 0 l 1
 203.776 358.4 l 1
 0 698.368 l 1
 89.0879 698.368 l 1
 242.688 442.368 l 1xc8
EndSplineSet
Fore
Refer: 435 714 N 1 0 0 1 101 162 2
Refer: 58 89 N 1 0 0 1 0 0 3
Validated: 32769
EndChar

StartChar: Thorn
Encoding: 222 222 158
Width: 525
Flags: W
HStem: 0 21G<81 158> 175 63<158 375.266> 461 64<158 373.618> 678 20G<81 158>
VStem: 81 77<0 175 238 461 525 698> 423 84<285.217 414.3>
LayerCount: 2
Fore
SplineSet
81 0 m 1,0,-1
 81 698 l 1,1,-1
 158 698 l 1,2,-1
 158 525 l 1,3,-1
 293 525 l 2,4,5
 383 525 383 525 445 476 c 128,-1,6
 507 427 507 427 507 350 c 128,-1,7
 507 273 507 273 446 224 c 128,-1,8
 385 175 385 175 295 175 c 2,9,-1
 158 175 l 1,10,-1
 158 0 l 1,11,-1
 81 0 l 1,0,-1
158 461 m 1,12,-1
 158 238 l 1,13,-1
 293 238 l 2,14,15
 355 238 355 238 389 271.5 c 128,-1,16
 423 305 423 305 423 350 c 0,17,18
 423 394 423 394 389 427.5 c 128,-1,19
 355 461 355 461 293 461 c 2,20,-1
 158 461 l 1,12,-1
EndSplineSet
Validated: 19457
EndChar

StartChar: germandbls
Encoding: 223 223 159
Width: 530
Flags: W
HStem: -16 64<274.641 403.085> 0 21G<65 134> 695 64<176.785 336.157>
VStem: 65 69<0 648.964> 208 71<383.568 447.058> 367 70<552.334 666.091> 437 70<84.7609 247.309>
LayerCount: 2
Fore
SplineSet
279 413 m 0,0,1
 279 394 279 394 301 383.5 c 128,-1,2
 323 373 323 373 366 364 c 0,3,4
 427 351 427 351 467 294 c 128,-1,5
 507 237 507 237 507 161 c 0,6,7
 507 84 507 84 465.5 34 c 128,-1,8
 424 -16 424 -16 340 -16 c 0,9,10
 276 -16 276 -16 238 11.5 c 128,-1,11
 200 39 200 39 176 97 c 1,12,-1
 239 128 l 1,13,14
 256 86 256 86 275.5 67 c 128,-1,15
 295 48 295 48 340 48 c 0,16,17
 390 48 390 48 413.5 82.5 c 128,-1,18
 437 117 437 117 437 161 c 0,19,20
 437 206 437 206 416.5 244.5 c 128,-1,21
 396 283 396 283 359 294 c 0,22,23
 313 307 313 307 294.5 313.5 c 128,-1,24
 276 320 276 320 251 333.5 c 128,-1,25
 226 347 226 347 217 366 c 128,-1,26
 208 385 208 385 208 413 c 0,27,28
 208 446 208 446 224.5 468.5 c 128,-1,29
 241 491 241 491 264.5 503 c 128,-1,30
 288 515 288 515 311 527 c 128,-1,31
 334 539 334 539 350.5 559 c 128,-1,32
 367 579 367 579 367 608 c 0,33,34
 367 695 367 695 244 695 c 0,35,36
 194 695 194 695 164 662.5 c 128,-1,37
 134 630 134 630 134 564 c 2,38,-1
 134 0 l 1,39,-1
 65 0 l 1,40,-1
 65 546 l 2,41,42
 65 759 65 759 244 759 c 0,43,44
 349 759 349 759 393 715.5 c 128,-1,45
 437 672 437 672 437 590 c 0,46,47
 437 552 437 552 412.5 523.5 c 128,-1,48
 388 495 388 495 358 481 c 128,-1,49
 328 467 328 467 303.5 449 c 128,-1,50
 279 431 279 431 279 413 c 0,0,1
EndSplineSet
Validated: 19457
EndChar

StartChar: agrave
Encoding: 224 224 160
Width: 574
Flags: HW
HStem: -16 63<194.859 349.351> 0 21<440 510> 432 64<195.258 348.773> 459 20<440 510> 581 179
VStem: 35 69<146.112 333.781> 106 256 440 70<0 62 145.787 333.998 416 479>
LayerCount: 2
Back
SplineSet
342.016 580.608 m 1x0a
 106.496 700.416 l 1
 141.312 759.808 l 1
 362.496 615.424 l 1
 342.016 580.608 l 1x0a
34.8164 239.616 m 0x85
 34.8164 380.928 154.624 495.616 272.384 495.616 c 0xa5
 333.824 495.616 395.264 464.896 440.32 415.744 c 1
 440.32 479.232 l 1
 509.952 479.232 l 1
 509.952 0 l 1
 440.32 0 l 1x55
 440.32 62.4639 l 1
 395.264 13.3115 334.848 -16.3838 274.432 -16.3838 c 0
 156.672 -16.3838 34.8164 98.3037 34.8164 239.616 c 0x85
104.448 239.616 m 0
 104.448 133.12 184.32 47.1035 272.384 47.1035 c 0
 360.448 47.1035 440.32 133.12 440.32 239.616 c 0
 440.32 346.112 360.448 432.128 272.384 432.128 c 0
 184.32 432.128 104.448 346.112 104.448 239.616 c 0
EndSplineSet
Fore
Refer: 436 715 N 1 0 0 1 46 0 2
Refer: 66 97 N 1 0 0 1 0 0 3
Validated: 32769
EndChar

StartChar: aacute
Encoding: 225 225 161
Width: 574
Flags: HW
HStem: -16 63<194.859 349.351> 0 21<440 510> 432 64<195.258 348.773> 459 20<440 510> 581 179
VStem: 35 69<146.112 333.781> 201 256 440 70<0 62 145.787 333.998 416 479>
LayerCount: 2
Back
SplineSet
201.728 615.424 m 1x0a
 422.912 759.808 l 1
 457.729 700.416 l 1
 222.208 580.608 l 1
 201.728 615.424 l 1x0a
34.8164 239.616 m 0x85
 34.8164 380.928 154.624 495.616 272.384 495.616 c 0xa5
 333.824 495.616 395.264 464.896 440.32 415.744 c 1
 440.32 479.232 l 1
 509.952 479.232 l 1
 509.952 0 l 1
 440.32 0 l 1x55
 440.32 62.4639 l 1
 395.264 13.3115 334.848 -16.3838 274.432 -16.3838 c 0
 156.672 -16.3838 34.8164 98.3037 34.8164 239.616 c 0x85
104.448 239.616 m 0
 104.448 133.12 184.32 47.1035 272.384 47.1035 c 0
 360.448 47.1035 440.32 133.12 440.32 239.616 c 0
 440.32 346.112 360.448 432.128 272.384 432.128 c 0
 184.32 432.128 104.448 346.112 104.448 239.616 c 0
EndSplineSet
Fore
Refer: 435 714 N 1 0 0 1 141 0 2
Refer: 66 97 N 1 0 0 1 0 0 3
Validated: 32769
EndChar

StartChar: acircumflex
Encoding: 226 226 162
Width: 574
Flags: HW
HStem: -16 63<194.859 349.351> 0 21<440 510> 432 64<195.258 348.773> 459 20<440 510> 581 161
VStem: 35 69<146.112 333.781> 143 278 440 70<0 62 145.787 333.998 416 479>
LayerCount: 2
Back
SplineSet
162.816 580.608 m 1x0a
 143.36 615.424 l 1
 281.6 742.4 l 1
 420.864 615.424 l 1
 401.408 580.608 l 1
 281.6 659.456 l 1
 162.816 580.608 l 1x0a
34.8164 239.616 m 0x85
 34.8164 380.928 154.624 495.616 272.384 495.616 c 0xa5
 333.824 495.616 395.264 464.896 440.32 415.744 c 1
 440.32 479.232 l 1
 509.952 479.232 l 1
 509.952 0 l 1
 440.32 0 l 1x55
 440.32 62.4639 l 1
 395.264 13.3115 334.848 -16.3838 274.432 -16.3838 c 0
 156.672 -16.3838 34.8164 98.3037 34.8164 239.616 c 0x85
104.448 239.616 m 0
 104.448 133.12 184.32 47.1035 272.384 47.1035 c 0
 360.448 47.1035 440.32 133.12 440.32 239.616 c 0
 440.32 346.112 360.448 432.128 272.384 432.128 c 0
 184.32 432.128 104.448 346.112 104.448 239.616 c 0
EndSplineSet
Fore
Refer: 443 770 N 1 0 0 1 601 0 2
Refer: 66 97 N 1 0 0 1 0 0 3
Validated: 32769
EndChar

StartChar: atilde
Encoding: 227 227 163
Width: 574
Flags: HW
HStem: -16 63<194.859 349.351> 0 21<440 510> 432 64<195.258 348.773> 459 20<440 510> 581 68<303.181 390.731> 646 68<175.269 262.819>
VStem: 35 69<146.112 333.781> 107 47<581 624.792> 412 47<670.208 714> 440 70<0 62 145.787 333.998 416 479>
LayerCount: 2
Back
SplineSet
343.04 649.216 m 0x0980
 382.976 649.216 406.528 687.104 411.648 713.729 c 1
 458.752 713.729 l 1x0580
 451.584 654.336 403.456 580.608 343.04 580.608 c 0x0980
 280.576 580.608 262.144 646.145 223.232 646.145 c 0x0580
 183.296 646.145 158.72 607.232 153.6 580.608 c 1
 107.52 580.608 l 1x0980
 114.688 640 162.816 713.729 223.232 713.729 c 0x0580
 285.696 713.729 304.128 649.216 343.04 649.216 c 0x0980
34.8164 239.616 m 0x8240
 34.8164 380.928 154.624 495.616 272.384 495.616 c 0xa240
 333.824 495.616 395.264 464.896 440.32 415.744 c 1
 440.32 479.232 l 1
 509.952 479.232 l 1
 509.952 0 l 1
 440.32 0 l 1x5240
 440.32 62.4639 l 1
 395.264 13.3115 334.848 -16.3838 274.432 -16.3838 c 0
 156.672 -16.3838 34.8164 98.3037 34.8164 239.616 c 0x8240
104.448 239.616 m 0
 104.448 133.12 184.32 47.1035 272.384 47.1035 c 0
 360.448 47.1035 440.32 133.12 440.32 239.616 c 0
 440.32 346.112 360.448 432.128 272.384 432.128 c 0
 184.32 432.128 104.448 346.112 104.448 239.616 c 0
EndSplineSet
Fore
Refer: 444 771 N 1 0 0 1 601 0 2
Refer: 66 97 N 1 0 0 1 0 0 3
Validated: 32769
EndChar

StartChar: adieresis
Encoding: 228 228 164
Width: 574
Flags: W
HStem: -16 63<194.859 349.351> 0 21<440 510> 432 64<195.258 348.773> 459 20<440 510> 572 111<144.017 221.983 343.502 421.467>
VStem: 35 69<146.112 333.781> 127 112<589.017 666.498> 327 112<589.017 666.498> 440 70<0 62 145.787 333.998 416 479>
LayerCount: 2
Back
SplineSet
326.656 627.712 m 0x0b
 326.656 658.432 351.232 683.008 381.952 683.008 c 0
 412.672 683.008 438.272 658.432 438.272 627.712 c 0
 438.272 596.992 412.672 572.416 381.952 572.416 c 0
 351.232 572.416 326.656 596.992 326.656 627.712 c 0x0b
126.976 627.712 m 0
 126.976 658.432 151.552 683.008 182.272 683.008 c 0
 212.992 683.008 238.592 658.432 238.592 627.712 c 0
 238.592 596.992 212.992 572.416 182.272 572.416 c 0
 151.552 572.416 126.976 596.992 126.976 627.712 c 0
34.8164 239.616 m 0x8480
 34.8164 380.928 154.624 495.616 272.384 495.616 c 0xa480
 333.824 495.616 395.264 464.896 440.32 415.744 c 1
 440.32 479.232 l 1
 509.952 479.232 l 1
 509.952 0 l 1
 440.32 0 l 1x5480
 440.32 62.4639 l 1
 395.264 13.3115 334.848 -16.3838 274.432 -16.3838 c 0
 156.672 -16.3838 34.8164 98.3037 34.8164 239.616 c 0x8480
104.448 239.616 m 0
 104.448 133.12 184.32 47.1035 272.384 47.1035 c 0
 360.448 47.1035 440.32 133.12 440.32 239.616 c 0
 440.32 346.112 360.448 432.128 272.384 432.128 c 0
 184.32 432.128 104.448 346.112 104.448 239.616 c 0
EndSplineSet
Fore
Refer: 104 168 N 1 0 0 1 68 0 2
Refer: 66 97 N 1 0 0 1 0 0 3
Validated: 32769
EndChar

StartChar: aring
Encoding: 229 229 165
Width: 574
Flags: HW
HStem: -16 63<194.859 349.351> 0 21<440 510> 432 64<195.258 348.773> 459 20<440 510> 573 51<243.616 320.384> 726 51<243.616 320.384>
VStem: 35 69<146.112 333.781> 180 51<636.616 713.384> 333 51<636.616 713.384> 440 70<0 62 145.787 333.998 416 479>
LayerCount: 2
Back
SplineSet
231.424 674.816 m 0x0d80
 231.424 647.168 253.952 623.616 281.6 623.616 c 0
 309.248 623.616 332.8 647.168 332.8 674.816 c 0
 332.8 702.464 309.248 726.016 281.6 726.016 c 0
 253.952 726.016 231.424 702.464 231.424 674.816 c 0x0d80
180.224 674.816 m 0
 180.224 731.136 225.28 777.216 281.6 777.216 c 0
 337.92 777.216 384 731.136 384 674.816 c 0
 384 618.496 337.92 573.44 281.6 573.44 c 0
 225.28 573.44 180.224 618.496 180.224 674.816 c 0
34.8164 239.616 m 0x8240
 34.8164 380.928 154.624 495.616 272.384 495.616 c 0xa240
 333.824 495.616 395.264 464.896 440.32 415.744 c 1
 440.32 479.232 l 1
 509.952 479.232 l 1
 509.952 0 l 1
 440.32 0 l 1x5240
 440.32 62.4639 l 1
 395.264 13.3115 334.848 -16.3838 274.432 -16.3838 c 0
 156.672 -16.3838 34.8164 98.3037 34.8164 239.616 c 0x8240
104.448 239.616 m 0
 104.448 133.12 184.32 47.1035 272.384 47.1035 c 0
 360.448 47.1035 440.32 133.12 440.32 239.616 c 0
 440.32 346.112 360.448 432.128 272.384 432.128 c 0
 184.32 432.128 104.448 346.112 104.448 239.616 c 0
EndSplineSet
Fore
Refer: 449 778 N 1 0 0 1 601 0 2
Refer: 66 97 N 1 0 0 1 0 0 3
Validated: 32769
EndChar

StartChar: ae
Encoding: 230 230 166
Width: 887
Flags: W
HStem: -16 63<135.004 342.526 545.766 730.807> 237 60<165.779 380.988 464 779> 431 64<155.056 315.785 545.338 698.121>
VStem: 28 76<76.8499 186.878>
AnchorPoint: "top" 419 581 basechar 0
LayerCount: 2
Fore
SplineSet
114 365 m 1,0,-1
 59 398 l 1,1,2
 85 431 85 431 103.5 448.5 c 128,-1,3
 122 466 122 466 158.5 480.5 c 128,-1,4
 195 495 195 495 243 495 c 0,5,6
 370 495 370 495 423 375 c 1,7,8
 457 429 457 429 511 462 c 128,-1,9
 565 495 565 495 622 495 c 0,10,11
 713 495 713 495 786 419.5 c 128,-1,12
 859 344 859 344 859 240 c 1,13,-1
 454 240 l 1,14,15
 454 161 454 161 504.5 104 c 128,-1,16
 555 47 555 47 622 47 c 0,17,18
 673 47 673 47 706 58.5 c 128,-1,19
 739 70 739 70 754.5 86.5 c 128,-1,20
 770 103 770 103 788 133 c 1,21,-1
 844 97 l 1,22,23
 807 40 807 40 758.5 12 c 128,-1,24
 710 -16 710 -16 624 -16 c 0,25,26
 531 -16 531 -16 460 57 c 1,27,28
 372 -16 372 -16 213 -16 c 0,29,30
 133 -16 133 -16 80.5 24 c 128,-1,31
 28 64 28 64 28 131 c 0,32,33
 28 202 28 202 93.5 249.5 c 128,-1,34
 159 297 159 297 301 297 c 0,35,36
 341 297 341 297 382 285 c 1,37,38
 376 341 376 341 340 386 c 128,-1,39
 304 431 304 431 243 431 c 0,40,41
 207 431 207 431 182.5 422 c 128,-1,42
 158 413 158 413 145.5 401 c 128,-1,43
 133 389 133 389 114 365 c 1,0,-1
464 303 m 1,44,-1
 779 303 l 1,45,46
 761 360 761 360 717.5 395.5 c 128,-1,47
 674 431 674 431 622 431 c 128,-1,48
 570 431 570 431 526 395.5 c 128,-1,49
 482 360 482 360 464 303 c 1,44,-1
418 113 m 1,50,51
 386 171 386 171 383 224 c 1,52,53
 327 237 327 237 302 237 c 0,54,55
 205 237 205 237 154.5 209 c 128,-1,56
 104 181 104 181 104 130 c 0,57,58
 104 98 104 98 124.5 78 c 128,-1,59
 145 58 145 58 168 52.5 c 128,-1,60
 191 47 191 47 216 47 c 0,61,62
 337 47 337 47 418 113 c 1,50,51
EndSplineSet
Validated: 19457
EndChar

StartChar: ccedilla
Encoding: 231 231 167
Width: 490
Flags: W
HStem: -205 28<177 282.81> -105 35<278 313.261> 432 64<196.258 350.373>
VStem: 36 69<146.252 333.781> 321 66<-156.793 -115.125>
LayerCount: 2
Fore
SplineSet
252 -15 m 1,0,1
 167 -5 167 -5 101.5 69.5 c 128,-1,2
 36 144 36 144 36 240 c 0,3,4
 36 343 36 343 109 419.5 c 128,-1,5
 182 496 182 496 273 496 c 0,6,7
 323 496 323 496 371.5 469.5 c 128,-1,8
 420 443 420 443 455 399 c 1,9,-1
 403 359 l 1,10,11
 351 432 351 432 273 432 c 0,12,13
 206 432 206 432 155.5 375.5 c 128,-1,14
 105 319 105 319 105 240 c 128,-1,15
 105 161 105 161 155.5 104 c 128,-1,16
 206 47 206 47 273 47 c 0,17,18
 326 47 326 47 355.5 63 c 128,-1,19
 385 79 385 79 412 114 c 1,20,-1
 466 76 l 1,21,22
 399 -8 399 -8 304 -15 c 1,23,-1
 278 -70 l 1,24,25
 333 -70 333 -70 360 -88 c 128,-1,26
 387 -106 387 -106 387 -128 c 0,27,28
 387 -205 387 -205 177 -205 c 1,29,-1
 177 -177 l 1,30,31
 228 -177 228 -177 274.5 -165.5 c 128,-1,32
 321 -154 321 -154 321 -134 c 0,33,34
 321 -124 321 -124 313.5 -118 c 128,-1,35
 306 -112 306 -112 281.5 -108.5 c 128,-1,36
 257 -105 257 -105 210 -105 c 1,37,-1
 252 -15 l 1,0,1
EndSplineSet
Validated: 19457
EndChar

StartChar: egrave
Encoding: 232 232 168
Width: 538
Flags: W
HStem: -16 63<194.859 380.992> 240 63<115 430> 432 64<195.879 348.321> 581 179
VStem: 35 69<146.436 240> 96 256
LayerCount: 2
Back
SplineSet
331.776 580.608 m 1x14
 96.2559 700.416 l 1
 131.072 759.808 l 1
 352.256 615.424 l 1
 331.776 580.608 l 1x14
104.448 239.616 m 1xe8
 104.448 133.12 184.32 47.1035 272.384 47.1035 c 0
 378.88 47.1035 408.576 81.9199 439.296 134.144 c 1
 494.592 97.2803 l 1
 449.536 28.6719 397.312 -16.3838 274.432 -16.3838 c 0
 156.672 -16.3838 34.8164 98.3037 34.8164 239.616 c 0
 34.8164 380.928 154.624 495.616 272.384 495.616 c 0
 390.144 495.616 509.952 380.928 509.952 239.616 c 1
 104.448 239.616 l 1xe8
114.688 303.104 m 1
 430.08 303.104 l 1
 406.528 377.856 342.016 432.128 272.384 432.128 c 0
 202.752 432.128 138.24 377.856 114.688 303.104 c 1
EndSplineSet
Fore
Refer: 441 768 N 1 0 0 1 591 0 2
Refer: 70 101 N 1 0 0 1 0 0 3
Validated: 32769
EndChar

StartChar: eacute
Encoding: 233 233 169
Width: 538
Flags: HW
HStem: -16 63<194.859 380.992> 240 63<115 430> 432 64<195.879 348.321> 581 179
VStem: 35 69<146.436 240> 192 256
LayerCount: 2
Back
SplineSet
191.488 615.424 m 1
 412.672 759.808 l 1
 447.488 700.416 l 1
 211.968 580.608 l 1
 191.488 615.424 l 1
104.448 239.616 m 1
 104.448 133.12 184.32 47.1035 272.384 47.1035 c 0
 378.88 47.1035 408.576 81.9199 439.296 134.144 c 1
 494.592 97.2803 l 1
 449.536 28.6719 397.312 -16.3838 274.432 -16.3838 c 0
 156.672 -16.3838 34.8164 98.3037 34.8164 239.616 c 0
 34.8164 380.928 154.624 495.616 272.384 495.616 c 0
 390.144 495.616 509.952 380.928 509.952 239.616 c 1
 104.448 239.616 l 1
114.688 303.104 m 1
 430.08 303.104 l 1
 406.528 377.856 342.016 432.128 272.384 432.128 c 0
 202.752 432.128 138.24 377.856 114.688 303.104 c 1
EndSplineSet
Fore
Refer: 442 769 N 1 0 0 1 591 0 2
Refer: 70 101 N 1 0 0 1 0 0 3
Validated: 32769
EndChar

StartChar: ecircumflex
Encoding: 234 234 170
Width: 538
Flags: HW
HStem: -16 63<194.859 380.992> 240 63<115 430> 432 64<195.879 348.321> 581 161
VStem: 35 69<146.436 240> 133 278
LayerCount: 2
Back
SplineSet
152.576 580.608 m 1
 133.12 615.424 l 1
 271.36 742.4 l 1
 410.624 615.424 l 1
 391.168 580.608 l 1
 271.36 659.456 l 1
 152.576 580.608 l 1
104.448 239.616 m 1
 104.448 133.12 184.32 47.1035 272.384 47.1035 c 0
 378.88 47.1035 408.576 81.9199 439.296 134.144 c 1
 494.592 97.2803 l 1
 449.536 28.6719 397.312 -16.3838 274.432 -16.3838 c 0
 156.672 -16.3838 34.8164 98.3037 34.8164 239.616 c 0
 34.8164 380.928 154.624 495.616 272.384 495.616 c 0
 390.144 495.616 509.952 380.928 509.952 239.616 c 1
 104.448 239.616 l 1
114.688 303.104 m 1
 430.08 303.104 l 1
 406.528 377.856 342.016 432.128 272.384 432.128 c 0
 202.752 432.128 138.24 377.856 114.688 303.104 c 1
EndSplineSet
Fore
Refer: 443 770 S 1 0 0 1 591 0 2
Refer: 70 101 N 1 0 0 1 0 0 3
Validated: 32769
EndChar

StartChar: edieresis
Encoding: 235 235 171
Width: 538
Flags: W
HStem: -16 63<194.859 380.992> 240 63<115 430> 432 64<195.879 348.321> 572 111<133.502 211.467 333.502 410.983>
VStem: 35 69<146.436 240> 117 112<589.017 666.498> 317 111<589.017 666.498>
LayerCount: 2
Back
SplineSet
316.416 627.712 m 0
 316.416 658.432 340.992 683.008 371.712 683.008 c 0
 402.432 683.008 428.032 658.432 428.032 627.712 c 0
 428.032 596.992 402.432 572.416 371.712 572.416 c 0
 340.992 572.416 316.416 596.992 316.416 627.712 c 0
116.736 627.712 m 0
 116.736 658.432 141.312 683.008 172.032 683.008 c 0
 202.752 683.008 228.352 658.432 228.352 627.712 c 0
 228.352 596.992 202.752 572.416 172.032 572.416 c 0
 141.312 572.416 116.736 596.992 116.736 627.712 c 0
104.448 239.616 m 1
 104.448 133.12 184.32 47.1035 272.384 47.1035 c 0
 378.88 47.1035 408.576 81.9199 439.296 134.144 c 1
 494.592 97.2803 l 1
 449.536 28.6719 397.312 -16.3838 274.432 -16.3838 c 0
 156.672 -16.3838 34.8164 98.3037 34.8164 239.616 c 0
 34.8164 380.928 154.624 495.616 272.384 495.616 c 0
 390.144 495.616 509.952 380.928 509.952 239.616 c 1
 104.448 239.616 l 1
114.688 303.104 m 1
 430.08 303.104 l 1
 406.528 377.856 342.016 432.128 272.384 432.128 c 0
 202.752 432.128 138.24 377.856 114.688 303.104 c 1
EndSplineSet
Fore
Refer: 448 776 N 1 0 0 1 591 0 2
Refer: 70 101 N 1 0 0 1 0 0 3
Validated: 32769
EndChar

StartChar: igrave
Encoding: 236 236 172
Width: 198
Flags: HW
HStem: 0 21<65 134> 459 20<65 134> 581 179
VStem: -77 256 65 69<0 479>
LayerCount: 2
Back
SplineSet
158.72 580.608 m 1x30
 -76.7998 700.416 l 1
 -41.9844 759.808 l 1
 179.2 615.424 l 1
 158.72 580.608 l 1x30
64.5117 0 m 1xc8
 64.5117 479.232 l 1
 134.144 479.232 l 1
 134.144 0 l 1
 64.5117 0 l 1xc8
EndSplineSet
Fore
Refer: 441 768 N 1 0 0 1 418 0 2
Refer: 241 305 N 1 0 0 1 0 0 3
Validated: 32769
EndChar

StartChar: iacute
Encoding: 237 237 173
Width: 198
Flags: HW
HStem: 0 21<65 134> 459 20<65 134> 581 179
VStem: 19 256 65 69<0 479>
LayerCount: 2
Back
SplineSet
18.4316 615.424 m 1x30
 239.616 759.808 l 1
 274.432 700.416 l 1
 38.9121 580.608 l 1
 18.4316 615.424 l 1x30
64.5117 0 m 1xc8
 64.5117 479.232 l 1
 134.144 479.232 l 1
 134.144 0 l 1
 64.5117 0 l 1xc8
EndSplineSet
Fore
Refer: 442 769 N 1 0 0 1 418 0 2
Refer: 241 305 N 1 0 0 1 0 0 3
Validated: 32769
EndChar

StartChar: icircumflex
Encoding: 238 238 174
Width: 198
Flags: HW
HStem: 0 21<65 134> 459 20<65 134> 581 161
VStem: -40 278 65 69<0 479>
LayerCount: 2
Back
SplineSet
-20.4805 580.608 m 1x30
 -39.9355 615.424 l 1
 98.3037 742.4 l 1
 237.568 615.424 l 1
 218.112 580.608 l 1
 98.3037 659.456 l 1
 -20.4805 580.608 l 1x30
64.5117 0 m 1xc8
 64.5117 479.232 l 1
 134.144 479.232 l 1
 134.144 0 l 1
 64.5117 0 l 1xc8
EndSplineSet
Fore
Refer: 443 770 N 1 0 0 1 418 0 2
Refer: 241 305 N 1 0 0 1 0 0 3
Validated: 32769
EndChar

StartChar: idieresis
Encoding: 239 239 175
Width: 198
Flags: W
HStem: 0 21<65 134> 459 20<65 134> 572 111<-39.4983 38.4673 160.502 237.983>
VStem: -56 112<589.017 666.498> 65 69<0 479> 144 111<589.017 666.498>
LayerCount: 2
Back
SplineSet
143.36 627.712 m 0
 143.36 658.432 167.936 683.008 198.656 683.008 c 0
 229.376 683.008 254.976 658.432 254.976 627.712 c 0
 254.976 596.992 229.376 572.416 198.656 572.416 c 0
 167.936 572.416 143.36 596.992 143.36 627.712 c 0
-56.3203 627.712 m 0
 -56.3203 658.432 -31.7441 683.008 -1.02441 683.008 c 0
 29.6963 683.008 55.2959 658.432 55.2959 627.712 c 0
 55.2959 596.992 29.6963 572.416 -1.02441 572.416 c 0
 -31.7441 572.416 -56.3203 596.992 -56.3203 627.712 c 0
64.5117 0 m 1
 64.5117 479.232 l 1
 134.144 479.232 l 1
 134.144 0 l 1
 64.5117 0 l 1
EndSplineSet
Fore
Refer: 448 776 N 1 0 0 1 418 0 2
Refer: 241 305 N 1 0 0 1 0 0 3
Validated: 32769
EndChar

StartChar: eth
Encoding: 240 240 176
Width: 557
Flags: W
HStem: -16 63<196.396 348.065> 431 65<195.492 348.255> 733 20G<192.912 233.517 315.923 357.286>
VStem: 35 68<146.445 333.34> 440 70<146.136 331.772>
LayerCount: 2
Fore
SplineSet
35 240 m 128,-1,1
 35 343 35 343 108 419.5 c 128,-1,2
 181 496 181 496 272 496 c 0,3,4
 345 496 345 496 412 442 c 1,5,6
 380 518 380 518 284 603 c 1,7,-1
 230 531 l 1,8,-1
 183 566 l 1,9,-1
 241 640 l 1,10,11
 198 673 198 673 165 696 c 1,12,-1
 208 753 l 1,13,-1
 282 695 l 1,14,-1
 331 760 l 1,15,-1
 377 725 l 1,16,-1
 326 658 l 1,17,18
 416 578 416 578 463 482 c 128,-1,19
 510 386 510 386 510 240 c 0,20,21
 510 136 510 136 437.5 60 c 128,-1,22
 365 -16 365 -16 274 -16 c 128,-1,23
 183 -16 183 -16 109 60.5 c 128,-1,0
 35 137 35 137 35 240 c 128,-1,1
103 240 m 128,-1,25
 103 162 103 162 154.5 104.5 c 128,-1,26
 206 47 206 47 272 47 c 128,-1,27
 338 47 338 47 389 104.5 c 128,-1,28
 440 162 440 162 440 240 c 128,-1,29
 440 318 440 318 389 374.5 c 128,-1,30
 338 431 338 431 272 431 c 128,-1,31
 206 431 206 431 154.5 374.5 c 128,-1,24
 103 318 103 318 103 240 c 128,-1,25
EndSplineSet
Validated: 19457
EndChar

StartChar: ntilde
Encoding: 241 241 177
Width: 547
Flags: HW
HStem: 0 21<65 134 419 488> 432 64<205.49 359.819> 459 20<65 134> 581 68<302.181 389.731> 646 68<174.269 261.819>
VStem: 65 69<0 347.812 436 479> 106 47<581 624.792> 411 47<670.208 714> 419 69<0 374.381>
LayerCount: 2
Back
SplineSet
342.016 649.216 m 0x13
 381.952 649.216 405.504 687.104 410.624 713.729 c 1
 457.729 713.729 l 1x0b
 450.56 654.336 402.432 580.608 342.016 580.608 c 0x13
 279.552 580.608 261.12 646.145 222.208 646.145 c 0x0b
 182.272 646.145 157.696 607.232 152.576 580.608 c 1
 106.496 580.608 l 1x13
 113.664 640 161.792 713.729 222.208 713.729 c 0x0b
 284.672 713.729 303.104 649.216 342.016 649.216 c 0x13
488.448 303.104 m 2xc480
 488.448 0 l 1
 418.816 0 l 1
 418.816 303.104 l 2
 418.816 372.736 364.544 432.128 276.48 432.128 c 0xc480
 188.416 432.128 134.144 346.112 134.144 239.616 c 2
 134.144 0 l 1
 64.5117 0 l 1
 64.5117 479.232 l 1
 134.144 479.232 l 1xa480
 134.144 436.224 l 1
 172.032 475.136 221.184 495.616 276.48 495.616 c 0
 394.24 495.616 488.448 425.984 488.448 303.104 c 2xc480
EndSplineSet
Fore
Refer: 444 771 N 1 0 0 1 600 0 2
Refer: 79 110 N 1 0 0 1 0 0 3
Validated: 32769
EndChar

StartChar: divide
Encoding: 247 247 183
Width: 457
Flags: W
HStem: 22 111<186.502 264.467> 218 56<54 402> 342 111<186.502 264.467>
VStem: 170 112<39.0172 116.498 359.017 436.498>
LayerCount: 2
Fore
SplineSet
170 78 m 128,-1,1
 170 101 170 101 186 117 c 128,-1,2
 202 133 202 133 225 133 c 128,-1,3
 248 133 248 133 265 117 c 128,-1,4
 282 101 282 101 282 78 c 128,-1,5
 282 55 282 55 265 38.5 c 128,-1,6
 248 22 248 22 225 22 c 128,-1,7
 202 22 202 22 186 38.5 c 128,-1,0
 170 55 170 55 170 78 c 128,-1,1
170 398 m 128,-1,9
 170 421 170 421 186 437 c 128,-1,10
 202 453 202 453 225 453 c 128,-1,11
 248 453 248 453 265 437 c 128,-1,12
 282 421 282 421 282 398 c 128,-1,13
 282 375 282 375 265 358.5 c 128,-1,14
 248 342 248 342 225 342 c 128,-1,15
 202 342 202 342 186 358.5 c 128,-1,8
 170 375 170 375 170 398 c 128,-1,9
54 274 m 1,16,-1
 402 274 l 1,17,-1
 402 218 l 1,18,-1
 54 218 l 1,19,-1
 54 274 l 1,16,-1
EndSplineSet
Validated: 19457
EndChar

StartChar: oslash
Encoding: 248 248 184
Width: 545
Flags: W
HStem: -16 63<196.688 349.397> 0 21G<18 100.696> 432 64<196.258 349.386> 459 20G<446.333 529>
VStem: 36 69<148.311 333.781> 441 70<145.803 331.991>
LayerCount: 2
Fore
SplineSet
36 240 m 0,0,1
 36 343 36 343 109 419.5 c 128,-1,2
 182 496 182 496 273 496 c 0,3,4
 355 496 355 496 423 434 c 1,5,-1
 465 479 l 1,6,-1
 529 479 l 1,7,-1
 455 400 l 1,8,9
 511 328 511 328 511 240 c 0,10,11
 511 136 511 136 438.5 60 c 128,-1,12
 366 -16 366 -16 275 -16 c 0,13,14
 193 -16 193 -16 125 46 c 1,15,-1
 82 0 l 1,16,-1
 18 0 l 1,17,-1
 93 80 l 1,18,19
 36 152 36 152 36 240 c 0,0,1
379 387 m 1,20,21
 331 432 331 432 273 432 c 0,22,23
 206 432 206 432 155.5 375.5 c 128,-1,24
 105 319 105 319 105 240 c 0,25,26
 105 181 105 181 138 128 c 1,27,-1
 379 387 l 1,20,21
409 350 m 1,28,-1
 168 92 l 1,29,30
 215 47 215 47 273 47 c 0,31,32
 340 47 340 47 390.5 104 c 128,-1,33
 441 161 441 161 441 240 c 0,34,35
 441 300 441 300 409 350 c 1,28,-1
EndSplineSet
Validated: 19457
EndChar

StartChar: ugrave
Encoding: 249 249 185
Width: 547
Flags: HW
HStem: -17 64<187.181 341.263> 0 21<413 483> 459 20<59 128 413 483> 581 179
VStem: 59 69<104.619 479> 94 256 413 70<0 42 131.188 479>
LayerCount: 2
Back
SplineSet
329.729 580.608 m 1x14
 94.208 700.416 l 1
 129.024 759.808 l 1
 350.208 615.424 l 1
 329.729 580.608 l 1x14
59.3916 176.128 m 2xaa
 59.3916 479.232 l 1
 128 479.232 l 1
 128 176.128 l 2
 128 106.496 183.296 47.1035 271.36 47.1035 c 0xaa
 359.424 47.1035 412.672 132.096 412.672 238.592 c 2
 412.672 479.232 l 1
 483.328 479.232 l 1
 483.328 0 l 1
 412.672 0 l 1x6a
 412.672 41.9844 l 1
 374.784 4.0957 325.632 -17.4082 271.36 -17.4082 c 0
 153.6 -17.4082 59.3916 53.248 59.3916 176.128 c 2xaa
EndSplineSet
Fore
Refer: 441 768 S 1 0 0 1 589 0 2
Refer: 86 117 N 1 0 0 1 0 0 3
Validated: 32769
EndChar

StartChar: uacute
Encoding: 250 250 186
Width: 547
Flags: HW
HStem: -17 64<187.181 341.263> 0 21<413 483> 459 20<59 128 413 483> 581 179
VStem: 59 69<104.619 479> 190 256 413 70<0 42 131.188 479>
LayerCount: 2
Back
SplineSet
189.44 615.424 m 1x14
 410.624 759.808 l 1
 445.44 700.416 l 1
 209.92 580.608 l 1
 189.44 615.424 l 1x14
59.3916 176.128 m 2xaa
 59.3916 479.232 l 1
 128 479.232 l 1
 128 176.128 l 2
 128 106.496 183.296 47.1035 271.36 47.1035 c 0xaa
 359.424 47.1035 412.672 132.096 412.672 238.592 c 2
 412.672 479.232 l 1
 483.328 479.232 l 1
 483.328 0 l 1
 412.672 0 l 1x6a
 412.672 41.9844 l 1
 374.784 4.0957 325.632 -17.4082 271.36 -17.4082 c 0
 153.6 -17.4082 59.3916 53.248 59.3916 176.128 c 2xaa
EndSplineSet
Fore
Refer: 442 769 S 1 0 0 1 589 0 2
Refer: 86 117 N 1 0 0 1 0 0 3
Validated: 32769
EndChar

StartChar: ucircumflex
Encoding: 251 251 187
Width: 547
Flags: HW
HStem: -17 64<187.181 341.263> 0 21<413 483> 459 20<59 128 413 483> 581 161
VStem: 59 69<104.619 479> 131 278 413 70<0 42 131.188 479>
LayerCount: 2
Back
SplineSet
150.528 580.608 m 1x14
 131.072 615.424 l 1
 269.312 742.4 l 1
 408.576 615.424 l 1
 389.12 580.608 l 1
 269.312 659.456 l 1
 150.528 580.608 l 1x14
59.3916 176.128 m 2xaa
 59.3916 479.232 l 1
 128 479.232 l 1
 128 176.128 l 2
 128 106.496 183.296 47.1035 271.36 47.1035 c 0xaa
 359.424 47.1035 412.672 132.096 412.672 238.592 c 2
 412.672 479.232 l 1
 483.328 479.232 l 1
 483.328 0 l 1
 412.672 0 l 1x6a
 412.672 41.9844 l 1
 374.784 4.0957 325.632 -17.4082 271.36 -17.4082 c 0
 153.6 -17.4082 59.3916 53.248 59.3916 176.128 c 2xaa
EndSplineSet
Fore
Refer: 443 770 S 1 0 0 1 589 0 2
Refer: 86 117 N 1 0 0 1 0 0 3
Validated: 32769
EndChar

StartChar: udieresis
Encoding: 252 252 188
Width: 547
Flags: HW
HStem: -17 64<187.181 341.263> 0 21<413 483> 459 20<59 128 413 483> 572 111<131.502 209.467 331.502 408.983>
VStem: 59 69<104.619 479> 115 112<589.017 666.498> 315 111<589.017 666.498> 413 70<0 42 131.188 479>
LayerCount: 2
Back
SplineSet
314.368 627.712 m 0x16
 314.368 658.432 338.944 683.008 369.664 683.008 c 0
 400.384 683.008 425.984 658.432 425.984 627.712 c 0
 425.984 596.992 400.384 572.416 369.664 572.416 c 0
 338.944 572.416 314.368 596.992 314.368 627.712 c 0x16
114.688 627.712 m 0
 114.688 658.432 139.264 683.008 169.984 683.008 c 0
 200.704 683.008 226.304 658.432 226.304 627.712 c 0
 226.304 596.992 200.704 572.416 169.984 572.416 c 0
 139.264 572.416 114.688 596.992 114.688 627.712 c 0
59.3916 176.128 m 2xa9
 59.3916 479.232 l 1
 128 479.232 l 1
 128 176.128 l 2
 128 106.496 183.296 47.1035 271.36 47.1035 c 0xa9
 359.424 47.1035 412.672 132.096 412.672 238.592 c 2
 412.672 479.232 l 1
 483.328 479.232 l 1
 483.328 0 l 1
 412.672 0 l 1x69
 412.672 41.9844 l 1
 374.784 4.0957 325.632 -17.4082 271.36 -17.4082 c 0
 153.6 -17.4082 59.3916 53.248 59.3916 176.128 c 2xa9
EndSplineSet
Fore
Refer: 448 776 N 1 0 0 1 589 0 2
Refer: 86 117 N 1 0 0 1 0 0 3
Validated: 32769
EndChar

StartChar: yacute
Encoding: 253 253 189
Width: 466
Flags: HW
HStem: -205 21<114 196.129> 459 20<1 85.0206 381.928 466> 581 179
VStem: 152 256
LayerCount: 2
Back
SplineSet
151.552 615.424 m 1
 372.736 759.808 l 1
 407.552 700.416 l 1
 172.032 580.608 l 1
 151.552 615.424 l 1
233.472 90.1123 m 1
 390.144 479.232 l 1
 465.92 479.232 l 1
 188.416 -204.8 l 1
 113.664 -204.8 l 1
 195.584 -1.02441 l 1
 1.02441 479.232 l 1
 76.7998 479.232 l 1
 233.472 90.1123 l 1
EndSplineSet
Fore
Refer: 442 769 S 1 0 0 1 551 0 2
Refer: 90 121 N 1 0 0 1 0 0 3
Validated: 32769
EndChar

StartChar: thorn
Encoding: 254 254 190
Width: 513
Flags: W
HStem: -205 21G<65 134> 431 65<244.216 389.673>
VStem: 65 69<-205 -32.5308 49 341.367 420 638> 410 75<264.243 410.565>
LayerCount: 2
Fore
SplineSet
134 -205 m 1,0,-1
 65 -205 l 1,1,-1
 65 638 l 1,2,-1
 134 638 l 1,3,-1
 134 420 l 1,4,5
 217 496 217 496 344 496 c 0,6,7
 413 496 413 496 449 457 c 128,-1,8
 485 418 485 418 485 354 c 0,9,10
 485 289 485 289 454 227 c 128,-1,11
 423 165 423 165 382.5 123.5 c 128,-1,12
 342 82 342 82 287 44 c 128,-1,13
 232 6 232 6 198.5 -11.5 c 128,-1,14
 165 -29 165 -29 134 -42 c 1,15,-1
 134 -205 l 1,0,-1
134 318 m 1,16,-1
 134 49 l 1,17,18
 159 60 159 60 186.5 74.5 c 128,-1,19
 214 89 214 89 256.5 119.5 c 128,-1,20
 299 150 299 150 331 182.5 c 128,-1,21
 363 215 363 215 386.5 261.5 c 128,-1,22
 410 308 410 308 410 357 c 0,23,24
 410 391 410 391 388 411 c 128,-1,25
 366 431 366 431 344 431 c 0,26,27
 222 431 222 431 134 318 c 1,16,-1
EndSplineSet
Validated: 19457
EndChar

StartChar: ydieresis
Encoding: 255 255 191
Width: 466
Flags: W
HStem: -205 21<114 196.129> 459 20<1 85.0206 381.928 466> 572 111<93.5017 171.467 293.502 370.983>
VStem: 77 112<589.017 666.498> 277 111<589.017 666.498>
LayerCount: 2
Back
SplineSet
276.48 627.712 m 0
 276.48 658.432 301.056 683.008 331.776 683.008 c 0
 362.496 683.008 388.096 658.432 388.096 627.712 c 0
 388.096 596.992 362.496 572.416 331.776 572.416 c 0
 301.056 572.416 276.48 596.992 276.48 627.712 c 0
76.7998 627.712 m 0
 76.7998 658.432 101.376 683.008 132.096 683.008 c 0
 162.816 683.008 188.416 658.432 188.416 627.712 c 0
 188.416 596.992 162.816 572.416 132.096 572.416 c 0
 101.376 572.416 76.7998 596.992 76.7998 627.712 c 0
233.472 90.1123 m 1
 390.144 479.232 l 1
 465.92 479.232 l 1
 188.416 -204.8 l 1
 113.664 -204.8 l 1
 195.584 -1.02441 l 1
 1.02441 479.232 l 1
 76.7998 479.232 l 1
 233.472 90.1123 l 1
EndSplineSet
Fore
Refer: 448 776 N 1 0 0 1 551 0 2
Refer: 90 121 N 1 0 0 1 0 0 3
Validated: 32769
EndChar

StartChar: Amacron
Encoding: 256 256 192
Width: 589
Flags: W
HStem: 0 21<1 90.2449 500.653 590> 196 63<177 414> 678 20<254 337> 762 46<157 431>
VStem: 157 274<762 808>
LayerCount: 2
Back
SplineSet
149.504 807.936 m 1
 422.912 807.936 l 1
 422.912 761.856 l 1
 149.504 761.856 l 1
 149.504 807.936 l 1
335.872 696.32 m 1
 589.824 0 l 1
 507.904 0 l 1
 436.224 195.584 l 1
 153.6 195.584 l 1
 82.9443 0 l 1
 1.02441 0 l 1
 253.952 696.32 l 1
 253.952 698.368 l 1
 336.896 698.368 l 1
 335.872 696.32 l 1
294.912 583.68 m 1
 177.152 259.072 l 1
 413.696 259.072 l 1
 294.912 583.68 l 1
EndSplineSet
Fore
Refer: 445 772 S 1 0 0 1 621 162 2
Refer: 34 65 N 1 0 0 1 0 0 3
Validated: 32769
EndChar

StartChar: amacron
Encoding: 257 257 193
Width: 574
Flags: HW
HStem: -16 63<194.859 349.351> 0 21<440 510> 432 64<195.258 348.773> 459 20<440 510> 600 46<144 418>
VStem: 35 69<146.112 333.781> 144 274<600 646> 440 70<0 62 145.787 333.998 416 479>
LayerCount: 2
Back
SplineSet
137.216 646.145 m 1x0a
 410.624 646.145 l 1
 410.624 600.064 l 1
 137.216 600.064 l 1
 137.216 646.145 l 1x0a
34.8164 239.616 m 0x85
 34.8164 380.928 154.624 495.616 272.384 495.616 c 0xa5
 333.824 495.616 395.264 464.896 440.32 415.744 c 1
 440.32 479.232 l 1
 509.952 479.232 l 1
 509.952 0 l 1
 440.32 0 l 1x55
 440.32 62.4639 l 1
 395.264 13.3115 334.848 -16.3838 274.432 -16.3838 c 0
 156.672 -16.3838 34.8164 98.3037 34.8164 239.616 c 0x85
104.448 239.616 m 0
 104.448 133.12 184.32 47.1035 272.384 47.1035 c 0
 360.448 47.1035 440.32 133.12 440.32 239.616 c 0
 440.32 346.112 360.448 432.128 272.384 432.128 c 0
 184.32 432.128 104.448 346.112 104.448 239.616 c 0
EndSplineSet
Fore
Refer: 445 772 S 1 0 0 1 608 0 2
Refer: 66 97 N 1 0 0 1 0 0 3
Validated: 32769
EndChar

StartChar: Abreve
Encoding: 258 258 194
Width: 589
Flags: W
HStem: 0 21<1 90.2449 500.653 590> 196 63<177 414> 678 20<254 337> 735 63<233.574 354.424> 857 20<155 201 387 433>
VStem: 155 278
LayerCount: 2
Back
SplineSet
391.168 876.544 m 1
 433.152 876.544 l 1
 433.152 876.544 402.432 735.232 293.888 735.232 c 0
 185.344 735.232 155.648 876.544 155.648 876.544 c 1
 197.632 876.544 l 1
 209.92 850.944 230.4 797.696 293.888 797.696 c 0
 357.376 797.696 378.88 850.944 391.168 876.544 c 1
335.872 696.32 m 1
 589.824 0 l 1
 507.904 0 l 1
 436.224 195.584 l 1
 153.6 195.584 l 1
 82.9443 0 l 1
 1.02441 0 l 1
 253.952 696.32 l 1
 253.952 698.368 l 1
 336.896 698.368 l 1
 335.872 696.32 l 1
294.912 583.68 m 1
 177.152 259.072 l 1
 413.696 259.072 l 1
 294.912 583.68 l 1
EndSplineSet
Fore
Refer: 446 774 S 1 0 0 1 613 162 2
Refer: 34 65 N 1 0 0 1 0 0 3
Validated: 32769
EndChar

StartChar: abreve
Encoding: 259 259 195
Width: 574
Flags: HW
HStem: -16 63<194.859 349.351> 0 21<440 510> 432 64<195.258 348.773> 459 20<440 510> 573 63<221.574 342.424> 695 20<143 189 375 421>
VStem: 35 69<146.112 333.781> 143 278 440 70<0 62 145.787 333.998 416 479>
LayerCount: 2
Back
SplineSet
378.88 714.752 m 1x0d
 420.864 714.752 l 1
 420.864 714.752 390.144 573.44 281.6 573.44 c 0
 173.056 573.44 143.36 714.752 143.36 714.752 c 1
 185.344 714.752 l 1
 197.632 689.152 218.112 635.904 281.6 635.904 c 0
 345.088 635.904 366.592 689.152 378.88 714.752 c 1x0d
34.8164 239.616 m 0x8280
 34.8164 380.928 154.624 495.616 272.384 495.616 c 0xa280
 333.824 495.616 395.264 464.896 440.32 415.744 c 1
 440.32 479.232 l 1
 509.952 479.232 l 1
 509.952 0 l 1
 440.32 0 l 1x5280
 440.32 62.4639 l 1
 395.264 13.3115 334.848 -16.3838 274.432 -16.3838 c 0
 156.672 -16.3838 34.8164 98.3037 34.8164 239.616 c 0x8280
104.448 239.616 m 0
 104.448 133.12 184.32 47.1035 272.384 47.1035 c 0
 360.448 47.1035 440.32 133.12 440.32 239.616 c 0
 440.32 346.112 360.448 432.128 272.384 432.128 c 0
 184.32 432.128 104.448 346.112 104.448 239.616 c 0
EndSplineSet
Fore
Refer: 446 774 N 1 0 0 1 601 0 2
Refer: 66 97 N 1 0 0 1 0 0 3
Validated: 32769
EndChar

StartChar: Aogonek
Encoding: 260 260 196
Width: 588
Flags: W
HStem: -190 36<484.26 619.581> 0 21G<1 90.2449> 196 63<177 414> 678 20G<254 337>
VStem: 390 67<-133.103 -27.3372>
LayerCount: 2
Fore
SplineSet
524 0 m 1,0,1
 484 -13 484 -13 470.5 -28 c 128,-1,2
 457 -43 457 -43 457 -84 c 0,3,4
 457 -154 457 -154 562 -154 c 0,5,6
 584 -154 584 -154 617 -147 c 1,7,-1
 625 -174 l 1,8,9
 567 -190 567 -190 519 -190 c 0,10,11
 390 -190 390 -190 390 -93 c 0,12,13
 390 -2 390 -2 501 22 c 1,14,-1
 436 196 l 1,15,-1
 154 196 l 1,16,-1
 83 0 l 1,17,-1
 1 0 l 1,18,-1
 254 697 l 1,19,-1
 254 698 l 1,20,-1
 337 698 l 1,21,-1
 336 697 l 1,22,-1
 590 0 l 1,23,-1
 524 0 l 1,0,1
296 584 m 1,24,-1
 177 259 l 1,25,-1
 414 259 l 1,26,-1
 296 584 l 1,24,-1
EndSplineSet
Validated: 19457
EndChar

StartChar: aogonek
Encoding: 261 261 197
Width: 574
Flags: W
HStem: -190 36<469.385 605.127> -16 63<194.859 349.351> 432 64<195.258 348.773> 459 20G<440 510>
VStem: 35 69<146.112 333.781> 375 67<-133.103 -29.0498> 440 70<-7.89062 62 145.787 333.998 416 479>
LayerCount: 2
Fore
SplineSet
442 -84 m 0,0,1
 442 -154 442 -154 548 -154 c 0,2,3
 575 -154 575 -154 603 -147 c 1,4,-1
 610 -174 l 1,5,6
 550 -190 550 -190 504 -190 c 0,7,8
 375 -190 375 -190 375 -93 c 0,9,10
 375 -26 375 -26 440 5 c 1,11,-1
 440 62 l 1,12,13
 368 -16 368 -16 274 -16 c 0,14,15
 183 -16 183 -16 109 60.5 c 128,-1,16
 35 137 35 137 35 240 c 128,-1,17
 35 343 35 343 108 419.5 c 128,-1,18
 181 496 181 496 272 496 c 0,19,20
 367 496 367 496 440 416 c 1,21,-1
 440 479 l 1,22,-1
 510 479 l 1,23,-1
 510 0 l 1,24,25
 468 -13 468 -13 455 -30 c 128,-1,26
 442 -47 442 -47 442 -84 c 0,0,1
104 240 m 128,-1,28
 104 161 104 161 154.5 104 c 128,-1,29
 205 47 205 47 272 47 c 128,-1,30
 339 47 339 47 389.5 104 c 128,-1,31
 440 161 440 161 440 240 c 128,-1,32
 440 319 440 319 389.5 375.5 c 128,-1,33
 339 432 339 432 272 432 c 128,-1,34
 205 432 205 432 154.5 375.5 c 128,-1,27
 104 319 104 319 104 240 c 128,-1,28
EndSplineSet
Validated: 19457
EndChar

StartChar: Cacute
Encoding: 262 262 198
Width: 586
Flags: HW
HStem: -16 70<244.676 400.927> 644 70<246.618 400.078> 743 179
VStem: 45 78<212.142 484.171> 248 256
LayerCount: 2
Back
SplineSet
247.808 777.216 m 1
 468.992 921.6 l 1
 503.808 862.208 l 1
 268.288 742.4 l 1
 247.808 777.216 l 1
559.104 147.456 m 1
 502.784 50.1758 424.96 -16.3838 326.656 -16.3838 c 0
 169.984 -16.3838 45.0557 151.552 45.0557 348.16 c 0
 45.0557 544.768 169.984 713.729 326.656 713.729 c 0
 417.792 713.729 490.496 657.408 546.816 570.368 c 1
 486.4 527.36 l 1
 446.464 592.896 396.288 644.096 326.656 644.096 c 0
 203.776 644.096 122.88 501.76 122.88 348.16 c 0
 122.88 194.56 203.776 54.2725 326.656 54.2725 c 0
 401.408 54.2725 453.632 111.616 492.544 183.296 c 1
 559.104 147.456 l 1
EndSplineSet
Fore
Refer: 442 769 S 1 0 0 1 647 162 2
Refer: 36 67 N 1 0 0 1 0 0 3
Validated: 32769
EndChar

StartChar: cacute
Encoding: 263 263 199
Width: 488
Flags: HW
HStem: -16 63<194.859 364.892> 432 64<195.258 349.373> 581 179
VStem: 35 69<146.112 333.781> 194 256
LayerCount: 2
Back
SplineSet
193.536 615.424 m 1
 414.72 759.808 l 1
 449.536 700.416 l 1
 214.016 580.608 l 1
 193.536 615.424 l 1
464.896 75.7764 m 1
 419.84 19.4561 368.64 -16.3838 274.432 -16.3838 c 0
 156.672 -16.3838 34.8164 98.3037 34.8164 239.616 c 0
 34.8164 380.928 154.624 495.616 272.384 495.616 c 0
 339.968 495.616 407.552 457.729 453.632 399.36 c 1
 402.432 359.424 l 1
 370.688 404.48 323.584 432.128 272.384 432.128 c 0
 184.32 432.128 104.448 346.112 104.448 239.616 c 0
 104.448 133.12 184.32 47.1035 272.384 47.1035 c 0
 349.184 47.1035 378.88 72.7041 410.624 113.664 c 1
 464.896 75.7764 l 1
EndSplineSet
Fore
Refer: 442 769 S 1 0 0 1 593 0 2
Refer: 68 99 N 1 0 0 1 0 0 3
Validated: 32769
EndChar

StartChar: Ccircumflex
Encoding: 264 264 200
Width: 586
Flags: HW
HStem: -16 70<244.676 400.927> 644 70<246.618 400.078> 743 161
VStem: 45 78<212.142 484.171> 189 278
LayerCount: 2
Back
SplineSet
208.896 742.4 m 1
 189.44 777.216 l 1
 327.68 904.192 l 1
 466.944 777.216 l 1
 447.488 742.4 l 1
 327.68 821.248 l 1
 208.896 742.4 l 1
559.104 147.456 m 1
 502.784 50.1758 424.96 -16.3838 326.656 -16.3838 c 0
 169.984 -16.3838 45.0557 151.552 45.0557 348.16 c 0
 45.0557 544.768 169.984 713.729 326.656 713.729 c 0
 417.792 713.729 490.496 657.408 546.816 570.368 c 1
 486.4 527.36 l 1
 446.464 592.896 396.288 644.096 326.656 644.096 c 0
 203.776 644.096 122.88 501.76 122.88 348.16 c 0
 122.88 194.56 203.776 54.2725 326.656 54.2725 c 0
 401.408 54.2725 453.632 111.616 492.544 183.296 c 1
 559.104 147.456 l 1
EndSplineSet
Fore
Refer: 443 770 S 1 0 0 1 647 162 2
Refer: 36 67 N 1 0 0 1 0 0 3
Validated: 32769
EndChar

StartChar: ccircumflex
Encoding: 265 265 201
Width: 488
Flags: HW
HStem: -16 63<194.859 364.892> 432 64<195.258 349.373> 581 161
VStem: 35 69<146.112 333.781> 135 278
LayerCount: 2
Back
SplineSet
154.624 580.608 m 1
 135.168 615.424 l 1
 273.408 742.4 l 1
 412.672 615.424 l 1
 393.216 580.608 l 1
 273.408 659.456 l 1
 154.624 580.608 l 1
464.896 75.7764 m 1
 419.84 19.4561 368.64 -16.3838 274.432 -16.3838 c 0
 156.672 -16.3838 34.8164 98.3037 34.8164 239.616 c 0
 34.8164 380.928 154.624 495.616 272.384 495.616 c 0
 339.968 495.616 407.552 457.729 453.632 399.36 c 1
 402.432 359.424 l 1
 370.688 404.48 323.584 432.128 272.384 432.128 c 0
 184.32 432.128 104.448 346.112 104.448 239.616 c 0
 104.448 133.12 184.32 47.1035 272.384 47.1035 c 0
 349.184 47.1035 378.88 72.7041 410.624 113.664 c 1
 464.896 75.7764 l 1
EndSplineSet
Fore
Refer: 443 770 S 1 0 0 1 593 0 2
Refer: 68 99 N 1 0 0 1 0 0 3
Validated: 32769
EndChar

StartChar: Cdotaccent
Encoding: 266 266 202
Width: 586
Flags: HW
HStem: -16 70<244.676 400.927> 644 70<246.618 400.078> 734 111<289.502 366.983>
VStem: 45 78<212.142 484.171> 273 111<751.017 828.498>
LayerCount: 2
Back
SplineSet
273.408 789.504 m 0
 273.408 820.224 296.96 844.8 327.68 844.8 c 0
 358.4 844.8 384 820.224 384 789.504 c 0
 384 758.784 358.4 734.208 327.68 734.208 c 0
 296.96 734.208 273.408 758.784 273.408 789.504 c 0
559.104 147.456 m 1
 502.784 50.1758 424.96 -16.3838 326.656 -16.3838 c 0
 169.984 -16.3838 45.0557 151.552 45.0557 348.16 c 0
 45.0557 544.768 169.984 713.729 326.656 713.729 c 0
 417.792 713.729 490.496 657.408 546.816 570.368 c 1
 486.4 527.36 l 1
 446.464 592.896 396.288 644.096 326.656 644.096 c 0
 203.776 644.096 122.88 501.76 122.88 348.16 c 0
 122.88 194.56 203.776 54.2725 326.656 54.2725 c 0
 401.408 54.2725 453.632 111.616 492.544 183.296 c 1
 559.104 147.456 l 1
EndSplineSet
Fore
Refer: 447 775 S 1 0 0 1 647 162 2
Refer: 36 67 N 1 0 0 1 0 0 3
Validated: 32769
EndChar

StartChar: cdotaccent
Encoding: 267 267 203
Width: 488
Flags: HW
HStem: -16 63<194.859 364.892> 432 64<195.258 349.373> 572 111<235.502 312.983>
VStem: 35 69<146.112 333.781> 219 111<589.017 666.498>
LayerCount: 2
Back
SplineSet
219.136 627.712 m 0
 219.136 658.432 242.688 683.008 273.408 683.008 c 0
 304.128 683.008 329.729 658.432 329.729 627.712 c 0
 329.729 596.992 304.128 572.416 273.408 572.416 c 0
 242.688 572.416 219.136 596.992 219.136 627.712 c 0
464.896 75.7764 m 1
 419.84 19.4561 368.64 -16.3838 274.432 -16.3838 c 0
 156.672 -16.3838 34.8164 98.3037 34.8164 239.616 c 0
 34.8164 380.928 154.624 495.616 272.384 495.616 c 0
 339.968 495.616 407.552 457.729 453.632 399.36 c 1
 402.432 359.424 l 1
 370.688 404.48 323.584 432.128 272.384 432.128 c 0
 184.32 432.128 104.448 346.112 104.448 239.616 c 0
 104.448 133.12 184.32 47.1035 272.384 47.1035 c 0
 349.184 47.1035 378.88 72.7041 410.624 113.664 c 1
 464.896 75.7764 l 1
EndSplineSet
Fore
Refer: 447 775 S 1 0 0 1 593 0 2
Refer: 68 99 N 1 0 0 1 0 0 3
Validated: 32769
EndChar

StartChar: Ccaron
Encoding: 268 268 204
Width: 586
Flags: HW
HStem: -16 70<244.676 400.927> 644 70<246.618 400.078> 743 161
VStem: 45 78<212.142 484.171> 189 278
LayerCount: 2
Back
SplineSet
447.488 904.192 m 1
 466.944 869.376 l 1
 327.68 742.4 l 1
 189.44 869.376 l 1
 208.896 904.192 l 1
 327.68 825.344 l 1
 447.488 904.192 l 1
559.104 147.456 m 1
 502.784 50.1758 424.96 -16.3838 326.656 -16.3838 c 0
 169.984 -16.3838 45.0557 151.552 45.0557 348.16 c 0
 45.0557 544.768 169.984 713.729 326.656 713.729 c 0
 417.792 713.729 490.496 657.408 546.816 570.368 c 1
 486.4 527.36 l 1
 446.464 592.896 396.288 644.096 326.656 644.096 c 0
 203.776 644.096 122.88 501.76 122.88 348.16 c 0
 122.88 194.56 203.776 54.2725 326.656 54.2725 c 0
 401.408 54.2725 453.632 111.616 492.544 183.296 c 1
 559.104 147.456 l 1
EndSplineSet
Fore
Refer: 451 780 S 1 0 0 1 647 162 2
Refer: 36 67 N 1 0 0 1 0 0 3
Validated: 32769
EndChar

StartChar: ccaron
Encoding: 269 269 205
Width: 488
Flags: HW
HStem: -16 63<194.859 364.892> 432 64<195.258 349.373> 581 161
VStem: 35 69<146.112 333.781> 135 278
LayerCount: 2
Back
SplineSet
393.216 742.4 m 1
 412.672 707.584 l 1
 273.408 580.608 l 1
 135.168 707.584 l 1
 154.624 742.4 l 1
 273.408 663.552 l 1
 393.216 742.4 l 1
464.896 75.7764 m 1
 419.84 19.4561 368.64 -16.3838 274.432 -16.3838 c 0
 156.672 -16.3838 34.8164 98.3037 34.8164 239.616 c 0
 34.8164 380.928 154.624 495.616 272.384 495.616 c 0
 339.968 495.616 407.552 457.729 453.632 399.36 c 1
 402.432 359.424 l 1
 370.688 404.48 323.584 432.128 272.384 432.128 c 0
 184.32 432.128 104.448 346.112 104.448 239.616 c 0
 104.448 133.12 184.32 47.1035 272.384 47.1035 c 0
 349.184 47.1035 378.88 72.7041 410.624 113.664 c 1
 464.896 75.7764 l 1
EndSplineSet
Fore
Refer: 451 780 N 1 0 0 1 593 0 2
Refer: 68 99 N 1 0 0 1 0 0 3
Validated: 32769
EndChar

StartChar: Dcaron
Encoding: 270 270 206
Width: 624
Flags: HW
HStem: 0 70<158 345.508> 628 70<158 345.508> 743 161
VStem: 81 77<70 628> 140 278 498 81<215.543 481.1>
LayerCount: 2
Back
SplineSet
398.336 904.192 m 1x28
 417.792 869.376 l 1
 278.528 742.4 l 1
 140.288 869.376 l 1
 159.744 904.192 l 1
 278.528 825.344 l 1
 398.336 904.192 l 1x28
80.8965 0 m 1xd4
 80.8965 698.368 l 1
 233.472 698.368 l 2
 409.6 698.368 578.56 591.872 578.56 348.16 c 0
 578.56 104.448 409.6 0 233.472 0 c 2
 80.8965 0 l 1xd4
157.696 627.712 m 1
 157.696 69.6318 l 1
 210.944 69.6318 l 2
 388.096 69.6318 497.664 154.624 497.664 348.16 c 0
 497.664 541.696 388.096 627.712 210.944 627.712 c 2
 157.696 627.712 l 1
EndSplineSet
Fore
Refer: 451 780 N 1 0 0 1 598 162 2
Refer: 37 68 N 1 0 0 1 0 0 3
Validated: 32769
EndChar

StartChar: dcaron
Encoding: 271 271 207
Width: 574
Flags: W
HStem: -16 63<194.859 349.351> 0 21<440 510> 432 64<195.258 348.773> 524 227 723 20<440 510>
VStem: 35 69<146.112 333.781> 440 70<0 62 145.787 333.998 416 743> 553 111<657.017 734.498>
LayerCount: 2
Back
SplineSet
552.96 696.32 m 0x11
 552.96 727.04 577.536 751.616 608.256 751.616 c 0
 638.976 751.616 663.552 727.04 663.552 696.32 c 0
 663.552 571.392 571.392 524.288 571.392 524.288 c 1
 553.984 534.528 l 1
 553.984 534.528 592.896 573.44 608.256 640 c 1
 577.536 640 552.96 665.6 552.96 696.32 c 0x11
34.8164 239.616 m 0xae
 34.8164 380.928 154.624 495.616 272.384 495.616 c 0
 333.824 495.616 395.264 464.896 440.32 415.744 c 1
 440.32 743.424 l 1
 509.952 743.424 l 1
 509.952 0 l 1
 440.32 0 l 1x6e
 440.32 62.4639 l 1
 395.264 13.3115 334.848 -16.3838 274.432 -16.3838 c 0
 156.672 -16.3838 34.8164 98.3037 34.8164 239.616 c 0xae
104.448 239.616 m 0
 104.448 133.12 184.32 47.1035 272.384 47.1035 c 0xae
 360.448 47.1035 440.32 133.12 440.32 239.616 c 0
 440.32 346.112 360.448 432.128 272.384 432.128 c 0
 184.32 432.128 104.448 346.112 104.448 239.616 c 0
EndSplineSet
Fore
Refer: 13 44 N 1 0 0 1 504 648 2
Refer: 69 100 N 1 0 0 1 0 0 2
Validated: 32769
EndChar

StartChar: dcroat
Encoding: 273 273 209
Width: 574
Flags: W
HStem: -16 63<194.859 349.351> 0 21G<440 510> 432 64<195.258 348.773> 581 64<296 440 510 564> 723 20G<440 510>
VStem: 35 69<146.112 333.781> 440 70<0 62 145.787 333.998 416 581 645 743>
LayerCount: 2
Fore
SplineSet
104 240 m 128,-1,1
 104 161 104 161 154.5 104 c 128,-1,2
 205 47 205 47 272 47 c 128,-1,3
 339 47 339 47 389.5 104 c 128,-1,4
 440 161 440 161 440 240 c 128,-1,5
 440 319 440 319 389.5 375.5 c 128,-1,6
 339 432 339 432 272 432 c 128,-1,7
 205 432 205 432 154.5 375.5 c 128,-1,0
 104 319 104 319 104 240 c 128,-1,1
35 240 m 128,-1,9
 35 343 35 343 108 419.5 c 128,-1,10
 181 496 181 496 272 496 c 0,11,12
 367 496 367 496 440 416 c 1,13,-1
 440 581 l 1,14,-1
 296 581 l 1,15,-1
 296 645 l 1,16,-1
 440 645 l 1,17,-1
 440 743 l 1,18,-1
 510 743 l 1,19,-1
 510 645 l 1,20,-1
 564 645 l 1,21,-1
 564 581 l 1,22,-1
 510 581 l 1,23,-1
 510 0 l 1,24,-1
 440 0 l 1,25,-1
 440 62 l 1,26,27
 368 -16 368 -16 274 -16 c 0,28,29
 183 -16 183 -16 109 60.5 c 128,-1,8
 35 137 35 137 35 240 c 128,-1,9
EndSplineSet
Validated: 19457
EndChar

StartChar: Emacron
Encoding: 274 274 210
Width: 515
Flags: W
HStem: 0 63<158 475> 348 63<158 403> 634 64<158 472> 762 46<147 421>
VStem: 81 77<63 348 411 634> 147 274<762 808>
LayerCount: 2
Back
SplineSet
147.456 807.936 m 1x14
 420.864 807.936 l 1
 420.864 761.856 l 1
 147.456 761.856 l 1
 147.456 807.936 l 1x14
80.8965 0 m 1xe8
 80.8965 698.368 l 1
 472.064 698.368 l 1
 472.064 633.856 l 1
 157.696 633.856 l 1
 157.696 410.624 l 1
 403.456 410.624 l 1
 403.456 348.16 l 1
 157.696 348.16 l 1
 157.696 63.4883 l 1
 475.136 63.4883 l 1
 475.136 0 l 1
 80.8965 0 l 1xe8
EndSplineSet
Fore
Refer: 445 772 S 1 0 0 1 611 162 2
Refer: 38 69 N 1 0 0 1 0 0 3
Validated: 32769
EndChar

StartChar: emacron
Encoding: 275 275 211
Width: 538
Flags: W
HStem: -16 63<194.859 380.992> 240 63<115 430> 432 64<195.879 348.321> 600 46<134 408>
VStem: 35 69<146.436 240> 134 274<600 646>
LayerCount: 2
Back
SplineSet
126.976 646.145 m 1
 400.384 646.145 l 1
 400.384 600.064 l 1
 126.976 600.064 l 1
 126.976 646.145 l 1
104.448 239.616 m 1
 104.448 133.12 184.32 47.1035 272.384 47.1035 c 0
 378.88 47.1035 408.576 81.9199 439.296 134.144 c 1
 494.592 97.2803 l 1
 449.536 28.6719 397.312 -16.3838 274.432 -16.3838 c 0
 156.672 -16.3838 34.8164 98.3037 34.8164 239.616 c 0
 34.8164 380.928 154.624 495.616 272.384 495.616 c 0
 390.144 495.616 509.952 380.928 509.952 239.616 c 1
 104.448 239.616 l 1
114.688 303.104 m 1
 430.08 303.104 l 1
 406.528 377.856 342.016 432.128 272.384 432.128 c 0
 202.752 432.128 138.24 377.856 114.688 303.104 c 1
EndSplineSet
Fore
Refer: 445 772 S 1 0 0 1 598 0 2
Refer: 70 101 N 1 0 0 1 0 0 3
Validated: 32769
EndChar

StartChar: Ebreve
Encoding: 276 276 212
Width: 515
Flags: HW
HStem: 0 63<158 475> 348 63<158 403> 634 64<158 472> 735 63<231.574 352.424> 857 20<153 199 385 431>
VStem: 81 77<63 348 411 634> 153 278
LayerCount: 2
Back
SplineSet
389.12 876.544 m 1x1a
 431.104 876.544 l 1
 431.104 876.544 400.384 735.232 291.84 735.232 c 0
 183.296 735.232 153.6 876.544 153.6 876.544 c 1
 195.584 876.544 l 1
 207.872 850.944 228.352 797.696 291.84 797.696 c 0
 355.328 797.696 376.832 850.944 389.12 876.544 c 1x1a
80.8965 0 m 1xe4
 80.8965 698.368 l 1
 472.064 698.368 l 1
 472.064 633.856 l 1
 157.696 633.856 l 1
 157.696 410.624 l 1
 403.456 410.624 l 1
 403.456 348.16 l 1
 157.696 348.16 l 1
 157.696 63.4883 l 1
 475.136 63.4883 l 1
 475.136 0 l 1
 80.8965 0 l 1xe4
EndSplineSet
Fore
Refer: 446 774 S 1 0 0 1 611 162 2
Refer: 38 69 N 1 0 0 1 0 0 3
Validated: 32769
EndChar

StartChar: ebreve
Encoding: 277 277 213
Width: 538
Flags: HW
HStem: -16 63<194.859 380.992> 240 63<115 430> 432 64<195.879 348.321> 573 63<211.574 332.424> 695 20<133 179 365 411>
VStem: 35 69<146.436 240> 133 278
LayerCount: 2
Back
SplineSet
368.64 714.752 m 1
 410.624 714.752 l 1
 410.624 714.752 379.904 573.44 271.36 573.44 c 0
 162.816 573.44 133.12 714.752 133.12 714.752 c 1
 175.104 714.752 l 1
 187.392 689.152 207.872 635.904 271.36 635.904 c 0
 334.848 635.904 356.352 689.152 368.64 714.752 c 1
104.448 239.616 m 1
 104.448 133.12 184.32 47.1035 272.384 47.1035 c 0
 378.88 47.1035 408.576 81.9199 439.296 134.144 c 1
 494.592 97.2803 l 1
 449.536 28.6719 397.312 -16.3838 274.432 -16.3838 c 0
 156.672 -16.3838 34.8164 98.3037 34.8164 239.616 c 0
 34.8164 380.928 154.624 495.616 272.384 495.616 c 0
 390.144 495.616 509.952 380.928 509.952 239.616 c 1
 104.448 239.616 l 1
114.688 303.104 m 1
 430.08 303.104 l 1
 406.528 377.856 342.016 432.128 272.384 432.128 c 0
 202.752 432.128 138.24 377.856 114.688 303.104 c 1
EndSplineSet
Fore
Refer: 446 774 N 1 0 0 1 591 0 2
Refer: 70 101 N 1 0 0 1 0 0 3
Validated: 32769
EndChar

StartChar: Edotaccent
Encoding: 278 278 214
Width: 515
Flags: HW
HStem: 0 63<158 475> 348 63<158 403> 634 64<158 472> 734 111<253.502 330.983>
VStem: 81 77<63 348 411 634> 237 111<751.017 828.498>
LayerCount: 2
Back
SplineSet
237.568 789.504 m 0
 237.568 820.224 261.12 844.8 291.84 844.8 c 0
 322.56 844.8 348.16 820.224 348.16 789.504 c 0
 348.16 758.784 322.56 734.208 291.84 734.208 c 0
 261.12 734.208 237.568 758.784 237.568 789.504 c 0
80.8965 0 m 1
 80.8965 698.368 l 1
 472.064 698.368 l 1
 472.064 633.856 l 1
 157.696 633.856 l 1
 157.696 410.624 l 1
 403.456 410.624 l 1
 403.456 348.16 l 1
 157.696 348.16 l 1
 157.696 63.4883 l 1
 475.136 63.4883 l 1
 475.136 0 l 1
 80.8965 0 l 1
EndSplineSet
Fore
Refer: 447 775 S 1 0 0 1 611 162 2
Refer: 38 69 N 1 0 0 1 0 0 3
Validated: 32769
EndChar

StartChar: edotaccent
Encoding: 279 279 215
Width: 538
Flags: HW
HStem: -16 63<194.859 380.992> 240 63<115 430> 432 64<195.879 348.321> 572 111<233.502 310.983>
VStem: 35 69<146.436 240> 217 111<589.017 666.498>
LayerCount: 2
Back
SplineSet
217.088 627.712 m 0
 217.088 658.432 240.64 683.008 271.36 683.008 c 0
 302.08 683.008 327.68 658.432 327.68 627.712 c 0
 327.68 596.992 302.08 572.416 271.36 572.416 c 0
 240.64 572.416 217.088 596.992 217.088 627.712 c 0
104.448 239.616 m 1
 104.448 133.12 184.32 47.1035 272.384 47.1035 c 0
 378.88 47.1035 408.576 81.9199 439.296 134.144 c 1
 494.592 97.2803 l 1
 449.536 28.6719 397.312 -16.3838 274.432 -16.3838 c 0
 156.672 -16.3838 34.8164 98.3037 34.8164 239.616 c 0
 34.8164 380.928 154.624 495.616 272.384 495.616 c 0
 390.144 495.616 509.952 380.928 509.952 239.616 c 1
 104.448 239.616 l 1
114.688 303.104 m 1
 430.08 303.104 l 1
 406.528 377.856 342.016 432.128 272.384 432.128 c 0
 202.752 432.128 138.24 377.856 114.688 303.104 c 1
EndSplineSet
Fore
Refer: 447 775 N 1 0 0 1 591 0 2
Refer: 70 101 N 1 0 0 1 0 0 3
Validated: 32769
EndChar

StartChar: Eogonek
Encoding: 280 280 216
Width: 515
Flags: W
HStem: -190 36<372.385 508.127> 0 63<158 333 365.687 475> 348 63<158 403> 634 64<158 472>
VStem: 81 77<63 348 411 634> 278 67<-133.103 -29.0728>
LayerCount: 2
Fore
SplineSet
345 -84 m 0,0,1
 345 -154 345 -154 451 -154 c 0,2,3
 478 -154 478 -154 506 -147 c 1,4,-1
 513 -174 l 1,5,6
 453 -190 453 -190 407 -190 c 0,7,8
 278 -190 278 -190 278 -93 c 0,9,10
 278 -31 278 -31 333 0 c 1,11,-1
 81 0 l 1,12,-1
 81 698 l 1,13,-1
 472 698 l 1,14,-1
 472 634 l 1,15,-1
 158 634 l 1,16,-1
 158 411 l 1,17,-1
 403 411 l 1,18,-1
 403 348 l 1,19,-1
 158 348 l 1,20,-1
 158 63 l 1,21,-1
 475 63 l 1,22,-1
 475 0 l 1,23,-1
 413 0 l 1,24,25
 371 -13 371 -13 358 -30 c 128,-1,26
 345 -47 345 -47 345 -84 c 0,0,1
EndSplineSet
Validated: 19457
EndChar

StartChar: eogonek
Encoding: 281 281 217
Width: 540
Flags: W
HStem: -190 36<317.76 454.127> 240 63<116 431> 432 64<196.879 349.321>
VStem: 36 69<145.787 240> 223 68<-133.103 -26.3253>
LayerCount: 2
Fore
SplineSet
291 -84 m 0,0,1
 291 -154 291 -154 396 -154 c 0,2,3
 424 -154 424 -154 452 -147 c 1,4,-1
 459 -174 l 1,5,6
 399 -190 399 -190 352 -190 c 0,7,8
 223 -190 223 -190 223 -93 c 0,9,10
 223 -43 223 -43 257 -15 c 1,11,12
 170 -6 170 -6 103 68 c 128,-1,13
 36 142 36 142 36 240 c 0,14,15
 36 343 36 343 109 419.5 c 128,-1,16
 182 496 182 496 273 496 c 128,-1,17
 364 496 364 496 437.5 419.5 c 128,-1,18
 511 343 511 343 511 240 c 1,19,-1
 105 240 l 1,20,21
 105 161 105 161 155.5 104 c 128,-1,22
 206 47 206 47 273 47 c 0,23,24
 346 47 346 47 379.5 67.5 c 128,-1,25
 413 88 413 88 440 134 c 1,26,-1
 496 97 l 1,27,28
 463 48 463 48 424.5 21 c 128,-1,29
 386 -6 386 -6 324 -13 c 1,30,31
 304 -24 304 -24 297.5 -39.5 c 128,-1,32
 291 -55 291 -55 291 -84 c 0,0,1
116 303 m 1,33,-1
 431 303 l 1,34,35
 413 360 413 360 369 396 c 128,-1,36
 325 432 325 432 273 432 c 128,-1,37
 221 432 221 432 177.5 396 c 128,-1,38
 134 360 134 360 116 303 c 1,33,-1
EndSplineSet
Validated: 19457
EndChar

StartChar: Ecaron
Encoding: 282 282 218
Width: 515
Flags: HW
HStem: 0 63<158 475> 348 63<158 403> 634 64<158 472> 743 161
VStem: 81 77<63 348 411 634> 153 278
LayerCount: 2
Back
SplineSet
411.648 904.192 m 1x14
 431.104 869.376 l 1
 291.84 742.4 l 1
 153.6 869.376 l 1
 173.056 904.192 l 1
 291.84 825.344 l 1
 411.648 904.192 l 1x14
80.8965 0 m 1xe8
 80.8965 698.368 l 1
 472.064 698.368 l 1
 472.064 633.856 l 1
 157.696 633.856 l 1
 157.696 410.624 l 1
 403.456 410.624 l 1
 403.456 348.16 l 1
 157.696 348.16 l 1
 157.696 63.4883 l 1
 475.136 63.4883 l 1
 475.136 0 l 1
 80.8965 0 l 1xe8
EndSplineSet
Fore
Refer: 451 780 N 1 0 0 1 611 162 2
Refer: 38 69 N 1 0 0 1 0 0 3
Validated: 32769
EndChar

StartChar: ecaron
Encoding: 283 283 219
Width: 538
Flags: HW
HStem: -16 63<194.859 380.992> 240 63<115 430> 432 64<195.879 348.321> 581 161
VStem: 35 69<146.436 240> 133 278
LayerCount: 2
Back
SplineSet
391.168 742.4 m 1
 410.624 707.584 l 1
 271.36 580.608 l 1
 133.12 707.584 l 1
 152.576 742.4 l 1
 271.36 663.552 l 1
 391.168 742.4 l 1
104.448 239.616 m 1
 104.448 133.12 184.32 47.1035 272.384 47.1035 c 0
 378.88 47.1035 408.576 81.9199 439.296 134.144 c 1
 494.592 97.2803 l 1
 449.536 28.6719 397.312 -16.3838 274.432 -16.3838 c 0
 156.672 -16.3838 34.8164 98.3037 34.8164 239.616 c 0
 34.8164 380.928 154.624 495.616 272.384 495.616 c 0
 390.144 495.616 509.952 380.928 509.952 239.616 c 1
 104.448 239.616 l 1
114.688 303.104 m 1
 430.08 303.104 l 1
 406.528 377.856 342.016 432.128 272.384 432.128 c 0
 202.752 432.128 138.24 377.856 114.688 303.104 c 1
EndSplineSet
Fore
Refer: 451 780 N 1 0 0 1 591 0 2
Refer: 70 101 N 1 0 0 1 0 0 3
Validated: 32769
EndChar

StartChar: Gcircumflex
Encoding: 284 284 220
Width: 621
Flags: HW
HStem: -16 70<233.615 419.922> 298 63<337 502> 644 70<247.482 414.936> 743 161
VStem: 45 78<203.746 485.12> 192 278 502 76<144.597 298>
LayerCount: 2
Back
SplineSet
211.968 742.4 m 1
 192.512 777.216 l 1
 330.752 904.192 l 1
 470.016 777.216 l 1
 450.56 742.4 l 1
 330.752 821.248 l 1
 211.968 742.4 l 1
336.896 297.984 m 1
 336.896 361.472 l 1
 577.536 361.472 l 1
 577.536 297.984 l 2
 577.536 69.6318 477.184 -16.3838 312.32 -16.3838 c 0
 155.648 -16.3838 45.0557 151.552 45.0557 348.16 c 0
 45.0557 544.768 161.792 713.729 331.776 713.729 c 0
 445.44 713.729 500.736 657.408 557.056 570.368 c 1
 495.616 527.36 l 1
 455.68 592.896 414.72 644.096 331.776 644.096 c 0
 200.704 644.096 122.88 501.76 122.88 348.16 c 0
 122.88 194.56 189.44 54.2725 312.32 54.2725 c 0
 420.864 54.2725 501.76 83.9678 501.76 297.984 c 1
 336.896 297.984 l 1
EndSplineSet
Fore
Refer: 443 770 S 1 0 0 1 650 162 2
Refer: 40 71 N 1 0 0 1 0 0 3
Validated: 32769
EndChar

StartChar: gcircumflex
Encoding: 285 285 221
Width: 574
Flags: HW
HStem: -205 64<141 380.541> -16 63<194.859 349.351> 432 64<195.258 348.773> 459 20<440 510> 581 161
VStem: 35 69<146.112 333.781> 133 278 440 70<-79.4557 62 145.787 333.998 416 479>
LayerCount: 2
Back
SplineSet
152.576 580.608 m 1x0a
 133.12 615.424 l 1
 271.36 742.4 l 1
 410.624 615.424 l 1
 391.168 580.608 l 1
 271.36 659.456 l 1
 152.576 580.608 l 1x0a
34.8164 239.616 m 0xd5
 34.8164 380.928 154.624 495.616 272.384 495.616 c 0xe5
 333.824 495.616 395.264 464.896 440.32 415.744 c 1
 440.32 479.232 l 1
 509.952 479.232 l 1
 509.952 18.4316 l 2
 509.952 -137.216 419.84 -204.8 299.008 -204.8 c 2
 141.312 -204.8 l 1
 141.312 -141.312 l 1
 299.008 -141.312 l 2
 387.072 -141.312 440.32 -88.0645 440.32 18.4316 c 2
 440.32 62.4639 l 1
 395.264 13.3115 334.848 -16.3838 274.432 -16.3838 c 0
 156.672 -16.3838 34.8164 98.3037 34.8164 239.616 c 0xd5
104.448 239.616 m 0
 104.448 133.12 184.32 47.1035 272.384 47.1035 c 0
 360.448 47.1035 440.32 133.12 440.32 239.616 c 0
 440.32 346.112 360.448 432.128 272.384 432.128 c 0
 184.32 432.128 104.448 346.112 104.448 239.616 c 0
EndSplineSet
Fore
Refer: 443 770 S 1 0 0 1 591 0 2
Refer: 72 103 N 1 0 0 1 0 0 3
Validated: 32769
EndChar

StartChar: Gbreve
Encoding: 286 286 222
Width: 621
Flags: HW
HStem: -16 70<233.615 419.922> 298 63<337 502> 644 70<247.482 414.936> 735 63<270.574 391.424> 857 20<192 238 424 470>
VStem: 45 78<203.746 485.12> 192 278 502 76<144.597 298>
LayerCount: 2
Back
SplineSet
428.032 876.544 m 1
 470.016 876.544 l 1
 470.016 876.544 439.296 735.232 330.752 735.232 c 0
 222.208 735.232 192.512 876.544 192.512 876.544 c 1
 234.496 876.544 l 1
 246.784 850.944 267.264 797.696 330.752 797.696 c 0
 394.24 797.696 415.744 850.944 428.032 876.544 c 1
336.896 297.984 m 1
 336.896 361.472 l 1
 577.536 361.472 l 1
 577.536 297.984 l 2
 577.536 69.6318 477.184 -16.3838 312.32 -16.3838 c 0
 155.648 -16.3838 45.0557 151.552 45.0557 348.16 c 0
 45.0557 544.768 161.792 713.729 331.776 713.729 c 0
 445.44 713.729 500.736 657.408 557.056 570.368 c 1
 495.616 527.36 l 1
 455.68 592.896 414.72 644.096 331.776 644.096 c 0
 200.704 644.096 122.88 501.76 122.88 348.16 c 0
 122.88 194.56 189.44 54.2725 312.32 54.2725 c 0
 420.864 54.2725 501.76 83.9678 501.76 297.984 c 1
 336.896 297.984 l 1
EndSplineSet
Fore
Refer: 446 774 S 1 0 0 1 650 162 2
Refer: 40 71 N 1 0 0 1 0 0 3
Validated: 32769
EndChar

StartChar: gbreve
Encoding: 287 287 223
Width: 574
Flags: HW
HStem: -205 64<141 380.541> -16 63<194.859 349.351> 432 64<195.258 348.773> 459 20<440 510> 573 63<211.574 332.424> 695 20<133 179 365 411>
VStem: 35 69<146.112 333.781> 133 278 440 70<-79.4557 62 145.787 333.998 416 479>
LayerCount: 2
Back
SplineSet
368.64 714.752 m 1x0d
 410.624 714.752 l 1
 410.624 714.752 379.904 573.44 271.36 573.44 c 0
 162.816 573.44 133.12 714.752 133.12 714.752 c 1
 175.104 714.752 l 1
 187.392 689.152 207.872 635.904 271.36 635.904 c 0
 334.848 635.904 356.352 689.152 368.64 714.752 c 1x0d
34.8164 239.616 m 0xd280
 34.8164 380.928 154.624 495.616 272.384 495.616 c 0xe280
 333.824 495.616 395.264 464.896 440.32 415.744 c 1
 440.32 479.232 l 1
 509.952 479.232 l 1
 509.952 18.4316 l 2
 509.952 -137.216 419.84 -204.8 299.008 -204.8 c 2
 141.312 -204.8 l 1
 141.312 -141.312 l 1
 299.008 -141.312 l 2
 387.072 -141.312 440.32 -88.0645 440.32 18.4316 c 2
 440.32 62.4639 l 1
 395.264 13.3115 334.848 -16.3838 274.432 -16.3838 c 0
 156.672 -16.3838 34.8164 98.3037 34.8164 239.616 c 0xd280
104.448 239.616 m 0
 104.448 133.12 184.32 47.1035 272.384 47.1035 c 0
 360.448 47.1035 440.32 133.12 440.32 239.616 c 0
 440.32 346.112 360.448 432.128 272.384 432.128 c 0
 184.32 432.128 104.448 346.112 104.448 239.616 c 0
EndSplineSet
Fore
Refer: 446 774 S 1 0 0 1 591 0 2
Refer: 72 103 N 1 0 0 1 0 0 3
Validated: 32769
EndChar

StartChar: Gdotaccent
Encoding: 288 288 224
Width: 621
Flags: HW
HStem: -16 70<233.615 419.922> 298 63<337 502> 644 70<247.482 414.936> 734 111<292.502 369.983>
VStem: 45 78<203.746 485.12> 276 111<751.017 828.498> 502 76<144.597 298>
LayerCount: 2
Back
SplineSet
276.48 789.504 m 0
 276.48 820.224 300.032 844.8 330.752 844.8 c 0
 361.472 844.8 387.072 820.224 387.072 789.504 c 0
 387.072 758.784 361.472 734.208 330.752 734.208 c 0
 300.032 734.208 276.48 758.784 276.48 789.504 c 0
336.896 297.984 m 1
 336.896 361.472 l 1
 577.536 361.472 l 1
 577.536 297.984 l 2
 577.536 69.6318 477.184 -16.3838 312.32 -16.3838 c 0
 155.648 -16.3838 45.0557 151.552 45.0557 348.16 c 0
 45.0557 544.768 161.792 713.729 331.776 713.729 c 0
 445.44 713.729 500.736 657.408 557.056 570.368 c 1
 495.616 527.36 l 1
 455.68 592.896 414.72 644.096 331.776 644.096 c 0
 200.704 644.096 122.88 501.76 122.88 348.16 c 0
 122.88 194.56 189.44 54.2725 312.32 54.2725 c 0
 420.864 54.2725 501.76 83.9678 501.76 297.984 c 1
 336.896 297.984 l 1
EndSplineSet
Fore
Refer: 447 775 S 1 0 0 1 650 162 2
Refer: 40 71 N 1 0 0 1 0 0 3
Validated: 32769
EndChar

StartChar: gdotaccent
Encoding: 289 289 225
Width: 574
Flags: HW
HStem: -205 64<141 380.541> -16 63<194.859 349.351> 432 64<195.258 348.773> 459 20<440 510> 572 111<233.502 310.983>
VStem: 35 69<146.112 333.781> 217 111<589.017 666.498> 440 70<-79.4557 62 145.787 333.998 416 479>
LayerCount: 2
Back
SplineSet
217.088 627.712 m 0x0a
 217.088 658.432 240.64 683.008 271.36 683.008 c 0
 302.08 683.008 327.68 658.432 327.68 627.712 c 0
 327.68 596.992 302.08 572.416 271.36 572.416 c 0
 240.64 572.416 217.088 596.992 217.088 627.712 c 0x0a
34.8164 239.616 m 0xd5
 34.8164 380.928 154.624 495.616 272.384 495.616 c 0xe5
 333.824 495.616 395.264 464.896 440.32 415.744 c 1
 440.32 479.232 l 1
 509.952 479.232 l 1
 509.952 18.4316 l 2
 509.952 -137.216 419.84 -204.8 299.008 -204.8 c 2
 141.312 -204.8 l 1
 141.312 -141.312 l 1
 299.008 -141.312 l 2
 387.072 -141.312 440.32 -88.0645 440.32 18.4316 c 2
 440.32 62.4639 l 1
 395.264 13.3115 334.848 -16.3838 274.432 -16.3838 c 0
 156.672 -16.3838 34.8164 98.3037 34.8164 239.616 c 0xd5
104.448 239.616 m 0
 104.448 133.12 184.32 47.1035 272.384 47.1035 c 0
 360.448 47.1035 440.32 133.12 440.32 239.616 c 0
 440.32 346.112 360.448 432.128 272.384 432.128 c 0
 184.32 432.128 104.448 346.112 104.448 239.616 c 0
EndSplineSet
Fore
Refer: 447 775 N 1 0 0 1 591 0 2
Refer: 72 103 N 1 0 0 1 0 0 3
Validated: 32769
EndChar

StartChar: Gcommaaccent
Encoding: 290 290 226
Width: 621
Flags: HW
HStem: -267 227 -16 70<233.615 419.922> 298 63<337 502> 644 70<247.482 414.936>
VStem: 45 78<203.746 485.12> 259 111<-133.983 -56.5017> 502 76<144.597 298>
LayerCount: 2
Back
SplineSet
259.072 -94.208 m 0
 259.072 -63.4883 283.648 -38.9121 314.368 -38.9121 c 0
 345.088 -38.9121 369.664 -63.4883 369.664 -94.208 c 0
 369.664 -219.136 277.504 -266.24 277.504 -266.24 c 1
 260.096 -256 l 1
 260.096 -256 299.008 -217.088 314.368 -150.528 c 1
 283.648 -150.528 259.072 -124.928 259.072 -94.208 c 0
337.92 297.984 m 1
 337.92 361.472 l 1
 578.56 361.472 l 1
 578.56 297.984 l 2
 578.56 69.6318 478.208 -16.3838 313.344 -16.3838 c 0
 156.672 -16.3838 46.0801 151.552 46.0801 348.16 c 0
 46.0801 544.768 162.816 713.729 332.8 713.729 c 0
 446.464 713.729 501.76 657.408 558.08 570.368 c 1
 496.64 527.36 l 1
 456.704 592.896 415.744 644.096 332.8 644.096 c 0
 201.728 644.096 123.904 501.76 123.904 348.16 c 0
 123.904 194.56 190.464 54.2725 313.344 54.2725 c 0
 421.888 54.2725 502.784 83.9678 502.784 297.984 c 1
 337.92 297.984 l 1
EndSplineSet
Fore
Refer: 458 806 N 1 0 0 1 634 0 2
Refer: 40 71 N 1 0 0 1 0 0 3
Validated: 32769
EndChar

StartChar: gcommaaccent
Encoding: 291 291 227
Width: 574
Flags: HW
HStem: -205 64<141 380.541> -16 63<194.859 349.351> 432 64<195.258 348.773> 459 20<440 510> 573 227
VStem: 35 69<146.112 333.781> 216 111<589.502 666.983> 440 70<-79.4557 62 145.787 333.998 416 479>
LayerCount: 2
Back
SplineSet
326.656 627.712 m 0x0a
 326.656 596.992 302.08 573.44 271.36 573.44 c 0
 240.64 573.44 216.064 596.992 216.064 627.712 c 0
 216.064 752.64 309.248 799.744 309.248 799.744 c 1
 325.632 789.504 l 1
 325.632 789.504 286.72 750.592 271.36 684.032 c 1
 302.08 684.032 326.656 658.432 326.656 627.712 c 0x0a
34.8164 239.616 m 0xd5
 34.8164 380.928 154.624 495.616 272.384 495.616 c 0xe5
 333.824 495.616 395.264 464.896 440.32 415.744 c 1
 440.32 479.232 l 1
 509.952 479.232 l 1
 509.952 18.4316 l 2
 509.952 -137.216 419.84 -204.8 299.008 -204.8 c 2
 141.312 -204.8 l 1
 141.312 -141.312 l 1
 299.008 -141.312 l 2
 387.072 -141.312 440.32 -88.0645 440.32 18.4316 c 2
 440.32 62.4639 l 1
 395.264 13.3115 334.848 -16.3838 274.432 -16.3838 c 0
 156.672 -16.3838 34.8164 98.3037 34.8164 239.616 c 0xd5
104.448 239.616 m 0
 104.448 133.12 184.32 47.1035 272.384 47.1035 c 0
 360.448 47.1035 440.32 133.12 440.32 239.616 c 0
 440.32 346.112 360.448 432.128 272.384 432.128 c 0
 184.32 432.128 104.448 346.112 104.448 239.616 c 0
EndSplineSet
Fore
Refer: 454 786 N 1 0 0 1 591 0 2
Refer: 72 103 N 1 0 0 1 0 0 3
Validated: 32769
EndChar

StartChar: Hcircumflex
Encoding: 292 292 228
Width: 622
Flags: HW
HStem: 0 21<81 158 465 542> 333 63<158 465> 678 20<81 158 465 542> 743 161
VStem: 81 77<0 333 396 698> 176 278 465 77<0 333 396 698>
LayerCount: 2
Back
SplineSet
195.584 742.4 m 1
 176.128 777.216 l 1
 314.368 904.192 l 1
 453.632 777.216 l 1
 434.176 742.4 l 1
 314.368 821.248 l 1
 195.584 742.4 l 1
80.8965 0 m 1
 80.8965 698.368 l 1
 157.696 698.368 l 1
 157.696 396.288 l 1
 464.896 396.288 l 1
 464.896 698.368 l 1
 541.696 698.368 l 1
 541.696 0 l 1
 464.896 0 l 1
 464.896 332.8 l 1
 157.696 332.8 l 1
 157.696 0 l 1
 80.8965 0 l 1
EndSplineSet
Fore
Refer: 443 770 S 1 0 0 1 634 162 2
Refer: 41 72 N 1 0 0 1 0 0 3
Validated: 32769
EndChar

StartChar: hcircumflex
Encoding: 293 293 229
Width: 547
Flags: HW
HStem: 0 21<65 134 419 488> 432 64<205.737 359.819> 723 20<65 134> 783 161
VStem: -25 278 65 69<0 347.812 435 743> 419 69<0 374.381>
LayerCount: 2
Back
SplineSet
-5.12012 782.336 m 1x18
 -24.5762 817.152 l 1
 113.664 944.128 l 1
 252.928 817.152 l 1
 233.472 782.336 l 1
 113.664 861.184 l 1
 -5.12012 782.336 l 1x18
488.448 303.104 m 2xe6
 488.448 0 l 1
 418.816 0 l 1
 418.816 303.104 l 2
 418.816 372.736 364.544 432.128 276.48 432.128 c 0
 188.416 432.128 134.144 346.112 134.144 239.616 c 2
 134.144 0 l 1
 64.5117 0 l 1
 64.5117 743.424 l 1
 134.144 743.424 l 1
 134.144 435.2 l 1
 172.032 474.112 221.184 495.616 276.48 495.616 c 0
 394.24 495.616 488.448 425.984 488.448 303.104 c 2xe6
EndSplineSet
Fore
Refer: 443 770 N 1 0 0 1 433 202 2
Refer: 73 104 N 1 0 0 1 0 0 3
Validated: 32769
EndChar

StartChar: Hbar
Encoding: 294 294 230
Width: 622
Flags: W
HStem: 0 21G<81 158 465 542> 333 63<158 465> 542 39<37 81 158 465 542 588> 678 20G<81 158 465 542>
VStem: 81 77<0 333 396 542 581 698> 465 77<0 333 396 542 581 698>
LayerCount: 2
Fore
SplineSet
542 542 m 1,0,-1
 542 0 l 1,1,-1
 465 0 l 1,2,-1
 465 333 l 1,3,-1
 158 333 l 1,4,-1
 158 0 l 1,5,-1
 81 0 l 1,6,-1
 81 542 l 1,7,-1
 37 542 l 1,8,-1
 37 581 l 1,9,-1
 81 581 l 1,10,-1
 81 698 l 1,11,-1
 158 698 l 1,12,-1
 158 581 l 1,13,-1
 465 581 l 1,14,-1
 465 698 l 1,15,-1
 542 698 l 1,16,-1
 542 581 l 1,17,-1
 588 581 l 1,18,-1
 588 542 l 1,19,-1
 542 542 l 1,0,-1
465 542 m 1,20,-1
 158 542 l 1,21,-1
 158 396 l 1,22,-1
 465 396 l 1,23,-1
 465 542 l 1,20,-1
EndSplineSet
Validated: 19457
EndChar

StartChar: hbar
Encoding: 295 295 231
Width: 547
Flags: W
HStem: 0 21G<65 134 419 488> 432 64<205.737 359.819> 581 64<19 65 134 287> 723 20G<65 134>
VStem: 65 69<0 347.812 435 581 645 743> 419 69<0 374.381>
LayerCount: 2
Fore
SplineSet
488 303 m 2,0,-1
 488 0 l 1,1,-1
 419 0 l 1,2,-1
 419 303 l 2,3,4
 419 357 419 357 379.5 394.5 c 128,-1,5
 340 432 340 432 276 432 c 128,-1,6
 212 432 212 432 173 377 c 128,-1,7
 134 322 134 322 134 240 c 2,8,-1
 134 0 l 1,9,-1
 65 0 l 1,10,-1
 65 581 l 1,11,-1
 19 581 l 1,12,-1
 19 645 l 1,13,-1
 65 645 l 1,14,-1
 65 743 l 1,15,-1
 134 743 l 1,16,-1
 134 645 l 1,17,-1
 287 645 l 1,18,-1
 287 581 l 1,19,-1
 134 581 l 1,20,-1
 134 435 l 1,21,22
 193 496 193 496 276 496 c 0,23,24
 368 496 368 496 428 444.5 c 128,-1,25
 488 393 488 393 488 303 c 2,0,-1
EndSplineSet
Validated: 19457
EndChar

StartChar: Itilde
Encoding: 296 296 232
Width: 259
Flags: HW
HStem: 0 68<54 91 168 205> 631 67<54 91 168 205> 743 68<152.181 239.731> 808 68<24.2692 111.819>
VStem: -44 47<743 786.792> 54 151<0 68 631 698> 261 47<832.208 876>
LayerCount: 2
Back
SplineSet
191.488 811.008 m 0x2a
 231.424 811.008 254.976 848.896 260.096 875.52 c 1
 307.2 875.52 l 1x1a
 300.032 816.128 251.904 742.4 191.488 742.4 c 0x2a
 129.024 742.4 110.592 807.936 71.6797 807.936 c 0x1a
 31.7441 807.936 7.16797 769.024 2.04785 742.4 c 1
 -44.0322 742.4 l 1x2a
 -36.8643 801.792 11.2637 875.52 71.6797 875.52 c 0x1a
 134.144 875.52 152.576 811.008 191.488 811.008 c 0x2a
167.936 630.784 m 1xc4
 167.936 67.584 l 1
 204.8 67.584 l 1
 204.8 0 l 1
 54.2725 0 l 1
 54.2725 67.584 l 1
 91.1357 67.584 l 1
 91.1357 630.784 l 1
 54.2725 630.784 l 1
 54.2725 698.368 l 1
 204.8 698.368 l 1
 204.8 630.784 l 1
 167.936 630.784 l 1xc4
EndSplineSet
Fore
Refer: 444 771 S 1 0 0 1 450 162 2
Refer: 42 73 N 1 0 0 1 0 0 3
Validated: 32769
EndChar

StartChar: itilde
Encoding: 297 297 233
Width: 198
Flags: HW
HStem: 0 21<65 134> 459 20<65 134> 581 68<120.181 207.731> 646 68<-7.73083 79.8186>
VStem: -76 47<581 624.792> 65 69<0 479> 229 47<670.208 714>
LayerCount: 2
Back
SplineSet
159.744 649.216 m 0x2a
 199.68 649.216 223.232 687.104 228.352 713.729 c 1
 275.456 713.729 l 1x1a
 268.288 654.336 220.16 580.608 159.744 580.608 c 0x2a
 97.2803 580.608 78.8477 646.145 39.9355 646.145 c 0x1a
 0 646.145 -24.5762 607.232 -29.6963 580.608 c 1
 -75.7764 580.608 l 1x2a
 -68.6084 640 -20.4805 713.729 39.9355 713.729 c 0x1a
 102.4 713.729 120.832 649.216 159.744 649.216 c 0x2a
64.5117 0 m 1xc4
 64.5117 479.232 l 1
 134.144 479.232 l 1
 134.144 0 l 1
 64.5117 0 l 1xc4
EndSplineSet
Fore
Refer: 444 771 N 1 0 0 1 418 0 2
Refer: 241 305 N 1 0 0 1 0 0 3
Validated: 32769
EndChar

StartChar: Imacron
Encoding: 298 298 234
Width: 259
Flags: HW
HStem: 0 68<54 91 168 205> 631 67<54 91 168 205> 762 46<-7 267>
VStem: -7 274<762 808> 54 151<0 68 631 698>
LayerCount: 2
Back
SplineSet
-14.3359 807.936 m 1x30
 259.072 807.936 l 1
 259.072 761.856 l 1
 -14.3359 761.856 l 1
 -14.3359 807.936 l 1x30
167.936 630.784 m 1xc8
 167.936 67.584 l 1
 204.8 67.584 l 1
 204.8 0 l 1
 54.2725 0 l 1
 54.2725 67.584 l 1
 91.1357 67.584 l 1
 91.1357 630.784 l 1
 54.2725 630.784 l 1
 54.2725 698.368 l 1
 204.8 698.368 l 1
 204.8 630.784 l 1
 167.936 630.784 l 1xc8
EndSplineSet
Fore
Refer: 445 772 S 1 0 0 1 457 162 2
Refer: 42 73 N 1 0 0 1 0 0 3
Validated: 32769
EndChar

StartChar: imacron
Encoding: 299 299 235
Width: 198
Flags: HW
HStem: 0 21<65 134> 459 20<65 134> 600 46<-39 235>
VStem: -39 274<600 646> 65 69<0 479>
LayerCount: 2
Back
SplineSet
-46.0801 646.145 m 1x30
 227.328 646.145 l 1
 227.328 600.064 l 1
 -46.0801 600.064 l 1
 -46.0801 646.145 l 1x30
64.5117 0 m 1xc8
 64.5117 479.232 l 1
 134.144 479.232 l 1
 134.144 0 l 1
 64.5117 0 l 1xc8
EndSplineSet
Fore
Refer: 445 772 S 1 0 0 1 425 0 2
Refer: 241 305 N 1 0 0 1 0 0 3
Validated: 32769
EndChar

StartChar: Ibreve
Encoding: 300 300 236
Width: 259
Flags: HW
HStem: 0 68<54 91 168 205> 631 67<54 91 168 205> 735 63<70.5742 191.424> 857 20<-8 38 224 270>
VStem: -8 278 54 151<0 68 631 698>
LayerCount: 2
Back
SplineSet
227.328 876.544 m 1x38
 269.312 876.544 l 1
 269.312 876.544 238.592 735.232 130.048 735.232 c 0
 21.5039 735.232 -8.19238 876.544 -8.19238 876.544 c 1
 33.792 876.544 l 1
 46.0801 850.944 66.5596 797.696 130.048 797.696 c 0
 193.536 797.696 215.04 850.944 227.328 876.544 c 1x38
167.936 630.784 m 1xc4
 167.936 67.584 l 1
 204.8 67.584 l 1
 204.8 0 l 1
 54.2725 0 l 1
 54.2725 67.584 l 1
 91.1357 67.584 l 1
 91.1357 630.784 l 1
 54.2725 630.784 l 1
 54.2725 698.368 l 1
 204.8 698.368 l 1
 204.8 630.784 l 1
 167.936 630.784 l 1xc4
EndSplineSet
Fore
Refer: 446 774 S 1 0 0 1 450 162 2
Refer: 42 73 N 1 0 0 1 0 0 3
Validated: 32769
EndChar

StartChar: ibreve
Encoding: 301 301 237
Width: 198
Flags: HW
HStem: 0 21<65 134> 459 20<65 134> 573 63<38.5742 159.424> 695 20<-40 6 192 238>
VStem: -40 278 65 69<0 479>
LayerCount: 2
Back
SplineSet
195.584 714.752 m 1x38
 237.568 714.752 l 1
 237.568 714.752 206.848 573.44 98.3037 573.44 c 0
 -10.2402 573.44 -39.9355 714.752 -39.9355 714.752 c 1
 2.04785 714.752 l 1
 14.3359 689.152 34.8164 635.904 98.3037 635.904 c 0
 161.792 635.904 183.296 689.152 195.584 714.752 c 1x38
64.5117 0 m 1xc4
 64.5117 479.232 l 1
 134.144 479.232 l 1
 134.144 0 l 1
 64.5117 0 l 1xc4
EndSplineSet
Fore
Refer: 446 774 N 1 0 0 1 418 0 2
Refer: 241 305 N 1 0 0 1 0 0 3
Validated: 32769
EndChar

StartChar: Iogonek
Encoding: 302 302 238
Width: 259
Flags: W
HStem: -190 36<164.385 300.127> 0 68<54 91 168.56 205> 631 67<54 91 168 205>
VStem: 54 151<0 68 631 698> 70 67<-133.103 -29.0728>
LayerCount: 2
Fore
SplineSet
137 -84 m 0,0,1
 137 -154 137 -154 243 -154 c 0,2,3
 270 -154 270 -154 298 -147 c 1,4,-1
 305 -174 l 1,5,6
 245 -190 245 -190 199 -190 c 0,7,8
 70 -190 70 -190 70 -93 c 0,9,10
 70 -31 70 -31 126 0 c 1,11,-1
 54 0 l 1,12,-1
 54 68 l 1,13,-1
 91 68 l 1,14,-1
 91 631 l 1,15,-1
 54 631 l 1,16,-1
 54 698 l 1,17,-1
 205 698 l 1,18,-1
 205 631 l 1,19,-1
 168 631 l 1,20,-1
 168 68 l 1,21,-1
 205 68 l 1,22,-1
 205 0 l 1,23,24
 163 -13 163 -13 150 -30 c 128,-1,25
 137 -47 137 -47 137 -84 c 0,0,1
EndSplineSet
Validated: 19457
EndChar

StartChar: iogonek
Encoding: 303 303 239
Width: 198
Flags: W
HStem: -190 36<93.7599 229.127> 459 20G<65 134> 572 111<60.5017 137.983>
VStem: -1 68<-133.103 -29.0498> 44 111<589.017 666.498> 65 69<-7.62891 479>
LayerCount: 2
Fore
SplineSet
67 -84 m 0,0,1
 67 -154 67 -154 172 -154 c 0,2,3
 199 -154 199 -154 227 -147 c 1,4,-1
 234 -174 l 1,5,6
 174 -190 174 -190 128 -190 c 0,7,8
 -1 -190 -1 -190 -1 -93 c 0,9,10
 -1 -26 -1 -26 65 5 c 1,11,-1
 65 479 l 1,12,-1
 134 479 l 1,13,-1
 134 0 l 1,14,15
 92 -13 92 -13 79.5 -30 c 128,-1,16
 67 -47 67 -47 67 -84 c 0,0,1
44 628 m 128,-1,18
 44 651 44 651 60 667 c 128,-1,19
 76 683 76 683 99 683 c 128,-1,20
 122 683 122 683 138.5 667 c 128,-1,21
 155 651 155 651 155 628 c 128,-1,22
 155 605 155 605 138.5 588.5 c 128,-1,23
 122 572 122 572 99 572 c 128,-1,24
 76 572 76 572 60 588.5 c 128,-1,17
 44 605 44 605 44 628 c 128,-1,18
EndSplineSet
Validated: 19457
EndChar

StartChar: Idotaccent
Encoding: 304 304 240
Width: 259
Flags: HW
HStem: 0 68<54 91 168 205> 631 67<54 91 168 205> 734 111<92.5017 169.983>
VStem: 54 151<0 68 631 698> 76 111<751.017 828.498>
LayerCount: 2
Back
SplineSet
75.7764 789.504 m 0x28
 75.7764 820.224 99.3281 844.8 130.048 844.8 c 0
 160.768 844.8 186.368 820.224 186.368 789.504 c 0
 186.368 758.784 160.768 734.208 130.048 734.208 c 0
 99.3281 734.208 75.7764 758.784 75.7764 789.504 c 0x28
167.936 630.784 m 1xd0
 167.936 67.584 l 1
 204.8 67.584 l 1
 204.8 0 l 1
 54.2725 0 l 1
 54.2725 67.584 l 1
 91.1357 67.584 l 1
 91.1357 630.784 l 1
 54.2725 630.784 l 1
 54.2725 698.368 l 1
 204.8 698.368 l 1
 204.8 630.784 l 1
 167.936 630.784 l 1xd0
EndSplineSet
Fore
Refer: 447 775 N 1 0 0 1 450 162 2
Refer: 42 73 N 1 0 0 1 0 0 3
Validated: 32769
EndChar

StartChar: dotlessi
Encoding: 305 305 241
Width: 198
Flags: W
HStem: 0 21G<65 134> 459 20G<65 134>
VStem: 65 69<0 479>
AnchorPoint: "top" 99 581 basechar 0
LayerCount: 2
Fore
SplineSet
65 0 m 1,0,-1
 65 479 l 1,1,-1
 134 479 l 1,2,-1
 134 0 l 1,3,-1
 65 0 l 1,0,-1
EndSplineSet
Validated: 19457
EndChar

StartChar: Jcircumflex
Encoding: 308 308 242
Width: 501
Flags: HW
HStem: -16 71<135.043 292.184> 678 20<349 426> 743 161
VStem: 251 278 349 77<112.275 698>
LayerCount: 2
Back
SplineSet
270.336 742.4 m 1x30
 250.88 777.216 l 1
 389.12 904.192 l 1
 528.384 777.216 l 1
 508.928 742.4 l 1
 389.12 821.248 l 1
 270.336 742.4 l 1x30
76.7998 160.768 m 1xc8
 97.2803 96.2559 144.384 55.2959 207.872 55.2959 c 0
 295.936 55.2959 349.184 103.424 349.184 209.92 c 2
 349.184 698.368 l 1
 425.984 698.368 l 1
 425.984 209.92 l 2
 425.984 68.6084 327.68 -16.3838 209.92 -16.3838 c 0
 124.928 -16.3838 48.1279 44.0322 12.2881 130.048 c 1
 76.7998 160.768 l 1xc8
EndSplineSet
Fore
Refer: 443 770 S 1 0 0 1 709 162 2
Refer: 43 74 N 1 0 0 1 0 0 3
Validated: 32769
EndChar

StartChar: jcircumflex
Encoding: 309 309 243
Width: 198
Flags: HW
HStem: -205 64<-46 37.7579> 459 20<65 134> 581 161
VStem: -38 278 65 69<-113.05 479>
LayerCount: 2
Back
SplineSet
-18.4316 580.608 m 1x30
 -37.8877 615.424 l 1
 100.352 742.4 l 1
 239.616 615.424 l 1
 220.16 580.608 l 1
 100.352 659.456 l 1
 -18.4316 580.608 l 1x30
-46.0801 -141.312 m 1xc8
 -17.4082 -141.312 l 2
 29.6963 -141.312 64.5117 -100.352 64.5117 -53.248 c 2
 64.5117 479.232 l 1
 134.144 479.232 l 1
 134.144 -53.248 l 2
 134.144 -137.216 66.5596 -204.8 -17.4082 -204.8 c 2
 -46.0801 -204.8 l 1
 -46.0801 -141.312 l 1xc8
EndSplineSet
Fore
Refer: 443 770 N 1 0 0 1 420 0 2
Refer: 389 567 N 1 0 0 1 0 0 3
Validated: 32769
EndChar

StartChar: Kcommaaccent
Encoding: 310 310 244
Width: 545
Flags: HW
HStem: -267 227 0 21<81 158 436.976 544> 678 20<81 158 416.232 532>
VStem: 81 77<0 252 370 698> 252 111<-133.983 -56.5017>
LayerCount: 2
Back
SplineSet
251.904 -94.208 m 0
 251.904 -63.4883 276.48 -38.9121 307.2 -38.9121 c 0
 337.92 -38.9121 362.496 -63.4883 362.496 -94.208 c 0
 362.496 -219.136 270.336 -266.24 270.336 -266.24 c 1
 252.928 -256 l 1
 252.928 -256 291.84 -217.088 307.2 -150.528 c 1
 276.48 -150.528 251.904 -124.928 251.904 -94.208 c 0
80.8965 0 m 1
 80.8965 698.368 l 1
 157.696 698.368 l 1
 157.696 369.664 l 1
 433.152 698.368 l 1
 532.48 698.368 l 1
 272.384 388.096 l 1
 543.744 0 l 1
 450.56 0 l 1
 221.184 327.68 l 1
 157.696 251.904 l 1
 157.696 0 l 1
 80.8965 0 l 1
EndSplineSet
Fore
Refer: 458 806 N 1 0 0 1 627 0 2
Refer: 44 75 N 1 0 0 1 0 0 3
Validated: 32769
EndChar

